<?xml version="1.0" encoding="utf-8"?>
<!-- Generator: Adobe Illustrator 21.1.0, SVG Export Plug-In . SVG Version: 6.00 Build 0)  -->
<svg version="1.1" id="Layer_1" xmlns="http://www.w3.org/2000/svg" xmlns:xlink="http://www.w3.org/1999/xlink" x="0px" y="0px"
	 viewBox="0 0 64.1 55.5" style="enable-background:new 0 0 64.1 55.5;" xml:space="preserve">
<style type="text/css">
	.st0{clip-path:url(#SVGID_2_);fill:#D1D3D4;}
	
		.st1{clip-path:url(#SVGID_2_);fill:none;stroke:#231F20;stroke-width:4;stroke-linecap:round;stroke-linejoin:round;stroke-miterlimit:10;}
	.st2{clip-path:url(#SVGID_2_);fill:#FFFFFF;}
	.st3{clip-path:url(#SVGID_2_);fill:#231F20;}
</style>
<g>
	<defs>
		<rect id="SVGID_1_" y="0" width="64.1" height="55.5"/>
	</defs>
	<clipPath id="SVGID_2_">
		<use xlink:href="#SVGID_1_"  style="overflow:visible;"/>
	</clipPath>
	<path class="st0" d="M2,19.5c0,4,3.3,7.3,7.3,7.3L9,32.5l11.1-5.7h7.8c4,0,7.3-3.3,7.3-7.3V9.3c0-4-3.3-7.3-7.3-7.3H9.3
		C5.3,2,2,5.3,2,9.3V19.5z"/>
	<path class="st1" d="M2,19.5c0,4,3.3,7.3,7.3,7.3L9,32.5l11.1-5.7h7.8c4,0,7.3-3.3,7.3-7.3V9.3c0-4-3.3-7.3-7.3-7.3H9.3
		C5.3,2,2,5.3,2,9.3V19.5z"/>
	<path class="st2" d="M62.1,34.6c0,5.8-4.7,10.6-10.6,10.6l0.3,8.3l-16.1-8.3H24.5c-5.8,0-10.6-4.7-10.6-10.6V19.7
		c0-5.8,4.7-10.6,10.6-10.6h27.1c5.8,0,10.6,4.7,10.6,10.6V34.6z"/>
	<path class="st1" d="M62.1,34.6c0,5.8-4.7,10.6-10.6,10.6l0.3,8.3l-16.1-8.3H24.5c-5.8,0-10.6-4.7-10.6-10.6V19.7
		c0-5.8,4.7-10.6,10.6-10.6h27.1c5.8,0,10.6,4.7,10.6,10.6V34.6z"/>
	<path class="st3" d="M52.6,26.8c0,1.7-1.4,3-3,3s-3-1.4-3-3c0-1.7,1.4-3,3-3S52.6,25.1,52.6,26.8"/>
	<path class="st3" d="M41.8,26.8c0,1.7-1.4,3-3,3s-3-1.4-3-3c0-1.7,1.4-3,3-3S41.8,25.1,41.8,26.8"/>
	<path class="st3" d="M31,26.8c0,1.7-1.4,3-3,3s-3-1.4-3-3c0-1.7,1.4-3,3-3S31,25.1,31,26.8"/>
</g>
</svg>
