<?xml version="1.0" encoding="utf-8"?>
<!-- Generator: Adobe Illustrator 21.1.0, SVG Export Plug-In . SVG Version: 6.00 Build 0)  -->
<svg version="1.1" id="Layer_1" xmlns="http://www.w3.org/2000/svg" xmlns:xlink="http://www.w3.org/1999/xlink" x="0px" y="0px"
	 viewBox="0 0 60.7 49.5" style="enable-background:new 0 0 60.7 49.5;" xml:space="preserve">
<style type="text/css">
	.st0{clip-path:url(#SVGID_2_);fill:#D1D3D4;}
	
		.st1{clip-path:url(#SVGID_2_);fill:none;stroke:#231F20;stroke-width:4;stroke-linecap:round;stroke-linejoin:round;stroke-miterlimit:10;}
	.st2{clip-path:url(#SVGID_2_);fill:#FFFFFF;}
	.st3{clip-path:url(#SVGID_2_);fill:#231F20;}
</style>
<g>
	<defs>
		<rect id="SVGID_1_" width="60.7" height="49.5"/>
	</defs>
	<clipPath id="SVGID_2_">
		<use xlink:href="#SVGID_1_"  style="overflow:visible;"/>
	</clipPath>
	<path class="st0" d="M32.9,21.3c0,6.5-5.3,11.8-11.8,11.8c-6.5,0-11.8-5.3-11.8-11.8c0-6.5,5.3-11.8,11.8-11.8
		C27.7,9.5,32.9,14.7,32.9,21.3"/>
	<circle class="st1" cx="21.1" cy="21.3" r="11.8"/>
	<path class="st2" d="M39.6,9.5C30.4,9.5,22.7,16,21,24.8c-1.6-0.8-3.4-1.3-5.4-1.3c-6.6,0-12,5.4-12,12c0,6.6,5.4,12,12,12h24
		c10.5,0,19-8.5,19-19C58.7,18,50.1,9.5,39.6,9.5"/>
	<path class="st1" d="M39.6,9.5C30.4,9.5,22.7,16,21,24.8c-1.6-0.8-3.4-1.3-5.4-1.3c-6.6,0-12,5.4-12,12c0,6.6,5.4,12,12,12h24
		c10.5,0,19-8.5,19-19C58.7,18,50.1,9.5,39.6,9.5z"/>
	<path class="st3" d="M28.8,2.5c0,1.4-1.1,2.5-2.5,2.5s-2.5-1.1-2.5-2.5c0-1.4,1.1-2.5,2.5-2.5S28.8,1.1,28.8,2.5"/>
	<path class="st3" d="M16.9,2.5c0,1.4-1.1,2.5-2.5,2.5s-2.5-1.1-2.5-2.5C11.9,1.1,13,0,14.4,0S16.9,1.1,16.9,2.5"/>
	<path class="st3" d="M7.5,10.1c0,1.4-1.1,2.5-2.5,2.5s-2.5-1.1-2.5-2.5c0-1.4,1.1-2.5,2.5-2.5S7.5,8.8,7.5,10.1"/>
	<path class="st3" d="M5,21.2c0,1.4-1.1,2.5-2.5,2.5S0,22.6,0,21.2c0-1.4,1.1-2.5,2.5-2.5S5,19.8,5,21.2"/>
</g>
</svg>
