<?xml version="1.0" encoding="utf-8"?>
<!-- Generator: Adobe Illustrator 21.1.0, SVG Export Plug-In . SVG Version: 6.00 Build 0)  -->
<svg version="1.1" id="Layer_1" xmlns="http://www.w3.org/2000/svg" xmlns:xlink="http://www.w3.org/1999/xlink" x="0px" y="0px"
	 viewBox="0 0 53.6 60.5" style="enable-background:new 0 0 53.6 60.5;" xml:space="preserve">
<style type="text/css">
	.st0{fill:#FFFFFF;stroke:#231F20;stroke-width:4;stroke-linecap:round;stroke-linejoin:round;stroke-miterlimit:10;}
	.st1{fill:#FFFFFF;}
	.st2{fill:#231F20;}
</style>
<g>
	<path class="st0" d="M51.6,56.1c0,1.1-0.9,2-2,2H10.7c-1.1,0-2-0.9-2-2V4c0-1.1,0.9-2,2-2h38.9c1.1,0,2,0.9,2,2V56.1z"/>
	<rect x="14.5" y="7.5" class="st1" width="30.3" height="42.7"/>
	<path class="st0" d="M23.7,56.5c0,1.1-0.9,2-2,2H4c-1.1,0-2-0.9-2-2V19.8c0-1.1,0.9-2,2-2h17.7c1.1,0,2,0.9,2,2V56.5z"/>
	<rect x="6.2" y="25" class="st1" width="13.5" height="23"/>
	<circle class="st2" cx="12.7" cy="52" r="1.8"/>
</g>
</svg>
