<svg id="Layer_1" data-name="Layer 1" xmlns="http://www.w3.org/2000/svg" viewBox="0 0 14 17"><defs><style>.cls-1{fill:#9f45ff;}</style></defs><title>add-note</title><path class="cls-1" d="M11.67,17H2.33A2.33,2.33,0,0,1,0,14.68V3.86A2.33,2.33,0,0,1,2.33,1.55H3.89a.77.77,0,0,1,0,1.55H2.33a.77.77,0,0,0-.77.77h0V14.68a.77.77,0,0,0,.77.77h9.34a.77.77,0,0,0,.77-.77h0V3.86a.77.77,0,0,0-.77-.77H10.11a.77.77,0,1,1,0-1.55h1.56A2.33,2.33,0,0,1,14,3.86V14.68A2.33,2.33,0,0,1,11.67,17ZM9.33,4.64H4.67A1.55,1.55,0,0,1,3.11,3.09V1.54A1.55,1.55,0,0,1,4.67,0H9.33a1.55,1.55,0,0,1,1.56,1.54V3.09A1.55,1.55,0,0,1,9.33,4.64ZM4.67,1.54h0V3.09H9.33V1.54Z"/></svg>