<svg xmlns="http://www.w3.org/2000/svg" width="39.687" height="40.16" viewBox="0 0 39.687 40.16">

    <defs>
        <style>
            .cls-1 {
            fill: #209588;
            fill-rule: evenodd;
            }
        </style>
    </defs>
    <path id="icon-audio" class="cls-1" d="M166.325,1363.76H178a14,14,0,0,1,14,14v12.14a14,14,0,0,1-14,14H166.325a14,14,0,0,1-14-14v-12.14A14,14,0,0,1,166.325,1363.76Zm-6.722,15.85v8.44h5.584l6.978,7.02v-22.49l-6.978,7.03H159.6Zm18.843,4.22a6.129,6.129,0,0,0-3.489-5.63v11.25A6.1,6.1,0,0,0,178.446,1383.83Zm-3.489-12.38v2.96a9.847,9.847,0,0,1,0,18.84v2.95A12.722,12.722,0,0,0,174.957,1371.45Z" transform="translate(-152.313 -1363.75)"/>
</svg>
