<svg
        xmlns="http://www.w3.org/2000/svg"
        xmlns:xlink="http://www.w3.org/1999/xlink"
        width="17px" height="15px">
    <path fill-rule="evenodd"  fill="rgb(241, 67, 54)"
          d="M4.326,3.611 L4.326,1.373 C4.326,0.891 4.715,0.500 5.196,0.500 C5.676,0.500 6.065,0.891 6.065,1.373 L6.065,3.611 C6.065,4.093 5.676,4.484 5.196,4.484 C4.715,4.484 4.326,4.093 4.326,3.611 ZM11.804,4.484 C12.285,4.484 12.674,4.093 12.674,3.611 L12.674,1.373 C12.674,0.891 12.285,0.500 11.804,0.500 C11.324,0.500 10.935,0.891 10.935,1.373 L10.935,3.611 C10.935,4.093 11.324,4.484 11.804,4.484 ZM16.500,2.486 L16.500,14.301 C16.500,14.687 16.189,15.000 15.805,15.000 L1.196,15.000 C0.812,15.000 0.500,14.687 0.500,14.301 L0.500,2.486 C0.500,2.100 0.812,1.723 1.196,1.723 L2.822,1.723 C3.206,1.723 3.517,2.036 3.517,2.422 C3.517,2.808 3.206,3.121 2.822,3.121 L1.891,3.121 L1.891,6.090 L15.109,6.090 L15.109,3.121 L14.179,3.121 C13.794,3.121 13.483,2.808 13.483,2.422 C13.483,2.036 13.794,1.723 14.179,1.723 L15.805,1.723 C16.189,1.723 16.500,2.100 16.500,2.486 ZM15.109,13.602 L15.109,7.313 L1.891,7.313 L1.891,13.602 L15.109,13.602 ZM7.403,3.121 L9.598,3.121 C9.982,3.121 10.294,2.808 10.294,2.422 C10.294,2.036 9.982,1.723 9.598,1.723 L7.403,1.723 C7.018,1.723 6.707,2.036 6.707,2.422 C6.707,2.808 7.018,3.121 7.403,3.121 Z"/>
</svg>