<svg xmlns="http://www.w3.org/2000/svg" width="16.72" height="15.156" viewBox="0 0 16.72 15.156">
  <metadata><?xpacket begin="﻿" id="W5M0MpCehiHzreSzNTczkc9d"?>
<x:xmpmeta xmlns:x="adobe:ns:meta/" x:xmptk="Adobe XMP Core 5.6-c138 79.159824, 2016/09/14-01:09:01        ">
   <rdf:RDF xmlns:rdf="http://www.w3.org/1999/02/22-rdf-syntax-ns#">
      <rdf:Description rdf:about=""/>
   </rdf:RDF>
</x:xmpmeta>
                                                                                                    
                                                                                                    
                                                                                                    
                                                                                                    
                                                                                                    
                                                                                                    
                                                                                                    
                                                                                                    
                                                                                                    
                                                                                                    
                                                                                                    
                                                                                                    
                                                                                                    
                                                                                                    
                                                                                                    
                                                                                                    
                                                                                                    
                                                                                                    
                                                                                                    
                                                                                                    
                           
<?xpacket end="w"?></metadata>
<defs>
    <style>
      .cls-1 {
        fill: #d718d9;
        fill-rule: evenodd;
      }
    </style>
  </defs>
  <path id="Ellipse_15_copy_4" data-name="Ellipse 15 copy 4" class="cls-1" d="M1306.7,406.891h-2.61a2.093,2.093,0,0,0-2.09,2.091v9.928a2.093,2.093,0,0,0,2.09,2.09h12.54a2.087,2.087,0,0,0,2.09-2.09v-9.928a2.087,2.087,0,0,0-2.09-2.091h-9.93Zm10.98,2.091a1.048,1.048,0,0,0-1.05-1.046h-12.54a1.039,1.039,0,0,0-1.04,1.046v9.928a1.039,1.039,0,0,0,1.04,1.045h12.54a1.048,1.048,0,0,0,1.05-1.045v-9.928Zm-12.54-3.136h3.13v2.09h-3.13v-2.09Zm1.04,0h1.05v3.136h-1.05v-3.136Zm6.27,0.523h3.14v2.09h-3.14v-2.09Zm1.05-.523h1.04v3.136h-1.04v-3.136Zm-7.32,5.226a1.045,1.045,0,1,1-1.04,1.045A1.048,1.048,0,0,1,1306.18,411.072Zm4.18,0a1.045,1.045,0,1,1-1.04,1.045A1.048,1.048,0,0,1,1310.36,411.072Zm4.18,0a1.045,1.045,0,1,1-1.04,1.045A1.048,1.048,0,0,1,1314.54,411.072Zm-8.36,4.18a1.045,1.045,0,1,1-1.04,1.045A1.048,1.048,0,0,1,1306.18,415.252Zm4.18,0a1.045,1.045,0,1,1-1.04,1.045A1.048,1.048,0,0,1,1310.36,415.252Zm4.18,0a1.045,1.045,0,1,1-1.04,1.045A1.048,1.048,0,0,1,1314.54,415.252Z" transform="translate(-1302 -405.844)"/>
</svg>
