<?xml version="1.0" encoding="utf-8"?>
<!-- Generator: Adobe Illustrator 20.1.0, SVG Export Plug-In . SVG Version: 6.00 Build 0)  -->
<svg version="1.1" id="Layer_1" xmlns="http://www.w3.org/2000/svg" xmlns:xlink="http://www.w3.org/1999/xlink" x="0px" y="0px"
	 width="14px" height="14px" viewBox="0 0 14 14" style="enable-background:new 0 0 14 14;" xml:space="preserve">
<g>
	<defs>
		<rect id="SVGID_1_" width="14" height="14"/>
	</defs>
	<clipPath id="SVGID_2_">
		<use xlink:href="#SVGID_1_"  style="overflow:visible;"/>
	</clipPath>
	<path style="clip-path:url(#SVGID_2_);fill:#F25B41;" d="M1.5,6.3c0-1.6,0.6-3.2,1.8-4.4C4.5,0.7,6,0,7.7,0c1.7,0,3.3,0.7,4.4,1.8
		C13.3,3,14,4.6,14,6.3c0,1.7-0.7,3.3-1.8,4.4c-2.4,2.4-6.4,2.4-8.9,0C2.1,9.5,1.5,7.9,1.5,6.3 M12.7,6.3c0-1.3-0.5-2.6-1.5-3.5
		c-0.9-0.9-2.2-1.5-3.5-1.5c-1.3,0-2.6,0.5-3.5,1.5c-1.9,2-2,5.1,0,7.1c2,2,5.1,2,7.1,0C12.2,8.9,12.7,7.6,12.7,6.3"/>
	<path style="clip-path:url(#SVGID_2_);fill:#F25B41;" d="M0,13.4c0-0.2,0.1-0.3,0.2-0.5l3.1-3.1c0.2-0.2,0.7-0.2,0.9,0
		s0.2,0.7,0,0.9l-3.1,3.1c-0.2,0.2-0.7,0.2-0.9,0C0.1,13.7,0,13.5,0,13.4"/>
</g>
</svg>
