<svg id="Capa_1" data-name="Capa 1" xmlns="http://www.w3.org/2000/svg" viewBox="0 0 347.33 432.29"><defs><style>.cls-1{fill:#f14336;}</style></defs><title>bell-icon-silhouette</title><path class="cls-1" d="M115.65,377.92a58.29,58.29,0,0,0,116,0c-23.8,1.82-44.72,2.22-58,2.22S139.45,379.74,115.65,377.92Z"/><path class="cls-1" d="M323.1,278.84A500.08,500.08,0,0,1,298.58,124.9a124.93,124.93,0,0,0-249.86,0,497,497,0,0,1-24.42,154C61.85,289.43,112.7,297,173.65,297S285.52,289.41,323.1,278.84Z"/><path class="cls-1" d="M342.92,325.46c-7.6-15.59-14.26-31.66-20.29-48-42.52,13.24-95.85,15-149,15s-106.36-1.75-148.87-15c-6,16.25-12.71,32.28-20.34,47.94C1.66,331.14,0,334.7,0,335c0,26.21,77.76,47.48,173.67,47.48S347.33,361.25,347.33,335C347.34,334.7,345.68,331.14,342.92,325.46Z"/></svg>