<?xml version="1.0" encoding="utf-8"?>
<!-- Generator: Adobe Illustrator 20.1.0, SVG Export Plug-In . SVG Version: 6.00 Build 0)  -->
<svg version="1.1" id="Layer_1" xmlns="http://www.w3.org/2000/svg" xmlns:xlink="http://www.w3.org/1999/xlink" x="0px" y="0px"
	 width="11px" height="11px" viewBox="0 0 11 11" style="enable-background:new 0 0 11 11;" xml:space="preserve">
<path style="fill-rule:evenodd;clip-rule:evenodd;fill:#9B9B9B;" d="M4.5,5.5L0.2,1.2c-0.3-0.3-0.3-0.7,0-1c0.3-0.3,0.7-0.3,1,0
	l4.3,4.3l4.3-4.3c0.3-0.3,0.7-0.3,1,0c0.3,0.3,0.3,0.7,0,1L6.5,5.5l4.3,4.3c0.3,0.3,0.3,0.7,0,1c-0.3,0.3-0.7,0.3-1,0L5.5,6.5
	l-4.3,4.3c-0.3,0.3-0.7,0.3-1,0c-0.3-0.3-0.3-0.7,0-1L4.5,5.5z"/>
</svg>
