<svg id="Layer_1" data-name="Layer 1" xmlns="http://www.w3.org/2000/svg" viewBox="0 0 175.48 175.48">
    <defs>
        <style>.cls-1{fill:#3455f9;}</style>
    </defs>
    <title>kl-logo</title>
    <path class="cls-1" d="M171.79,21.5a12.59,12.59,0,1,0-17.81,0,12.59,12.59,0,0,0,17.81,0"/>
    <path class="cls-1" d="M21.49,21.5a12.59,12.59,0,1,0-17.81,0h0a12.61,12.61,0,0,0,17.8,0"/>
    <path class="cls-1" d="M3.69,154a12.59,12.59,0,1,0,17.8,0h0a12.59,12.59,0,0,0-17.8,0"/>
    <path class="cls-1" d="M154,154a12.59,12.59,0,1,0,17.8,0h0A12.58,12.58,0,0,0,154,154h0"/>
    <path class="cls-1"
          d="M144.73,87.74C152,67.19,164,41.16,149.11,26.35s-40.87-2.89-61.42,4.42c-20.5-7.33-46.52-19.29-61.37-4.42s-2.88,40.87,4.42,61.41c-7.3,20.54-19.26,46.57-4.42,61.42s40.87,2.88,61.41-4.42c20.54,7.3,46.57,19.26,61.42,4.42s2.88-40.91-4.42-61.45M87.58,139.67a50,50,0,1,1,50-50,50,50,0,0,1-50,50"/>
    <path class="cls-1"
          d="M117.55,71.67a10,10,0,0,1-11,8.84l-.26,0A23.69,23.69,0,0,1,69,109.1a2.7,2.7,0,1,0-3.82,3.82,33.57,33.57,0,0,0,52.38-41.25"/>
    <path class="cls-1"
          d="M63.11,107.05a5.46,5.46,0,0,1,3-1.53,23.69,23.69,0,0,1,36.43-29.93,7.2,7.2,0,0,0,7.93,1.51L113,75.28a7.18,7.18,0,0,0-.29-9.84,33.57,33.57,0,0,0-50.84,43.61,5.54,5.54,0,0,1,1.26-2"/>
    <path class="cls-1"
          d="M69.26,67.36a29.14,29.14,0,0,0-5.89,32.73,23.69,23.69,0,0,1,39.12-24.53,7.2,7.2,0,0,0,7.93,1.51l2.51-1.82a7.2,7.2,0,0,0,1.56-2.88,29.17,29.17,0,0,0-45.23-5Z"/>
    <path class="cls-1"
          d="M107.2,70.67a24.52,24.52,0,0,0-34.67,0,24.9,24.9,0,0,0-4.2,5.61L69,75.6a23.69,23.69,0,0,1,33.5,0,7.2,7.2,0,0,0,7.93,1.51l1-.74a24.53,24.53,0,0,0-4.22-5.7"/>
    <path class="cls-1"
          d="M107.4,111.84a29.59,29.59,0,0,0,6-33.15,10,10,0,0,1-7.17,1.79A23.69,23.69,0,0,1,69,109.1a2.7,2.7,0,0,0-4.58,1.53c.36.41.74.82,1.14,1.21a29.59,29.59,0,0,0,41.85,0Z"/>
    <path class="cls-1"
          d="M107.57,101.56A23.71,23.71,0,0,1,69,109.09a2.69,2.69,0,0,0-3.8,0h0c.47.56,1,1.11,1.49,1.63a24.83,24.83,0,0,0,40.91-9.16"/>
</svg>