<svg id="Layer_1" data-name="Layer 1" xmlns="http://www.w3.org/2000/svg" viewBox="0 0 57.04 56.94"><defs><style>.cls-1{fill:#3289df;}</style></defs><title>novp-logo</title><path class="cls-1" d="M57,28.35c-.4-11.7-5.8-20.3-16.2-25.3s-20.6-3.8-29.7,3.2S-1.68,23.05.72,34.35c4.2,20,28.7,29.5,44.4,16.9-8-3.2-11.1-9.2-11-17.2v-6.7c-.1-3.4-1.7-5.5-4.4-5.6s-4.6,2.1-4.7,5.7c0,3.2-.1,6.5,0,9.7.1,2.8-1.2,4.7-4,4.7s-4-2-4.1-4.7c0-3.6-.2-7.1-.1-10.7a12.78,12.78,0,0,1,9.8-12.3,12.47,12.47,0,0,1,15.4,12c.1,3.4-.1,6.9.2,10.3.3,3.8,2.6,6.5,5.6,7s5.6-1.2,7.2-4.8a21.36,21.36,0,0,0,2-10.3m-27.7.9a1.9,1.9,0,1,1-2,1.9,2,2,0,0,1,2-1.9"/></svg>
