<svg id="Layer_1" data-name="Layer 1" xmlns="http://www.w3.org/2000/svg" viewBox="0 0 48.3 47"><defs><style>.cls-1{fill:#fff;}</style></defs><title>logo_icon-white</title><path class="cls-1" d="M41.4,6.9A23,23,0,0,0,24.8,0,23.14,23.14,0,0,0,8.2,6.9,23.14,23.14,0,0,0,1.3,23.5a22.81,22.81,0,0,0,3.3,12,20.57,20.57,0,0,1,2.9-.7,13.67,13.67,0,0,1,6.5.6A16.32,16.32,0,0,1,8.7,23.5,16.1,16.1,0,1,1,24.8,39.6a15.92,15.92,0,0,1-6.6-1.4,12.57,12.57,0,0,0-10.4-.8C.4,39.9,0,46.2,0,46.2c6-6.6,14-1.8,14-1.8h0A23.57,23.57,0,0,0,24.8,47a23,23,0,0,0,16.6-6.9,23.55,23.55,0,0,0,6.9-16.6A23,23,0,0,0,41.4,6.9"/><path class="cls-1" d="M25.2,23.1a56.63,56.63,0,0,1-8.1-.6.86.86,0,0,1,.3-1.7,52.7,52.7,0,0,0,15.5,0,.86.86,0,1,1,.3,1.7A46.49,46.49,0,0,1,25.2,23.1Z"/><path class="cls-1" d="M24.9,27.6a29.9,29.9,0,0,1-7.2-.7.82.82,0,1,1,.4-1.6,36.43,36.43,0,0,0,13.5,0,.86.86,0,0,1,.3,1.7A35.47,35.47,0,0,1,24.9,27.6Z"/><path class="cls-1" d="M25.1,31.9a47.21,47.21,0,0,1-6.7-.5.86.86,0,1,1,.3-1.7,43.09,43.09,0,0,0,11.9.1.86.86,0,0,1,.3,1.7A39.48,39.48,0,0,1,25.1,31.9Z"/><circle class="cls-1" cx="25.1" cy="16.2" r="2.2"/></svg>