<svg id="Layer_1" data-name="Layer 1" xmlns="http://www.w3.org/2000/svg" viewBox="0 0 133.44 17.37"><defs><style>.cls-1{fill:#000000;}</style></defs>
    <path class="cls-1" d="M2.42,13.39A4.09,4.09,0,0,1,.65,12.07,3.1,3.1,0,0,1,0,10.31.34.34,0,0,1,.12,10a.37.37,0,0,1,.29-.12h.94a.49.49,0,0,1,.48.39,2.36,2.36,0,0,0,1,1.4,4,4,0,0,0,2.34.58,4.26,4.26,0,0,0,2.45-.57,1.87,1.87,0,0,0,.81-1.61A1.56,1.56,0,0,0,8,9a3.37,3.37,0,0,0-1.18-.74Q6.08,8,4.52,7.51A11.79,11.79,0,0,1,2.17,6.6,3.57,3.57,0,0,1,.85,5.41,3.24,3.24,0,0,1,.41,3.63,3.14,3.14,0,0,1,1,1.77,3.73,3.73,0,0,1,2.59.47,6.18,6.18,0,0,1,5.1,0,5.77,5.77,0,0,1,7.67.53,4.23,4.23,0,0,1,9.3,1.86a3,3,0,0,1,.6,1.61.39.39,0,0,1-.37.41h-1a.46.46,0,0,1-.29-.1A.51.51,0,0,1,8,3.49a2,2,0,0,0-.93-1.37,3.56,3.56,0,0,0-2-.54A3.76,3.76,0,0,0,3,2.09a1.73,1.73,0,0,0-.77,1.52,1.64,1.64,0,0,0,.36,1.1,3,3,0,0,0,1.1.75,20,20,0,0,0,2.17.76,14.62,14.62,0,0,1,2.57.92,3.41,3.41,0,0,1,1.4,1.15,3.11,3.11,0,0,1,.47,1.77,3.29,3.29,0,0,1-1.38,2.82,6.17,6.17,0,0,1-3.74,1A6.85,6.85,0,0,1,2.42,13.39Z"/><path class="cls-1" d="M13.41,12.67a5.09,5.09,0,0,1-1.24-3.35V8a5.07,5.07,0,0,1,1.29-3.32,4.18,4.18,0,0,1,3.15-1.24A4.13,4.13,0,0,1,19.9,4.83a5.4,5.4,0,0,1,1.17,3.66v.35a.41.41,0,0,1-.13.32.44.44,0,0,1-.32.12H13.88v.18a3.57,3.57,0,0,0,.77,2.14,2.31,2.31,0,0,0,1.89.89A2.75,2.75,0,0,0,18,12.18a3.43,3.43,0,0,0,.86-.74.56.56,0,0,1,.59-.33h.85a.44.44,0,0,1,.3.1.28.28,0,0,1,.13.25,1.76,1.76,0,0,1-.52,1,4.26,4.26,0,0,1-1.48,1,5.25,5.25,0,0,1-2.19.44A4.17,4.17,0,0,1,13.41,12.67ZM19.26,8V7.91a3.25,3.25,0,0,0-.73-2.2,2.5,2.5,0,0,0-2-.85,2.46,2.46,0,0,0-2,.85,3.29,3.29,0,0,0-.71,2.2V8Z"/><path class="cls-1" d="M24.4,13.51a3.37,3.37,0,0,1-1.27-1A2.55,2.55,0,0,1,22.66,11a2.5,2.5,0,0,1,1-2.08A6,6,0,0,1,26.5,7.87l2.89-.41V6.9c0-1.32-.76-2-2.29-2a2.52,2.52,0,0,0-1.43.36,2.24,2.24,0,0,0-.79.84.64.64,0,0,1-.17.26.36.36,0,0,1-.24.07h-.75a.38.38,0,0,1-.3-.13.42.42,0,0,1-.13-.3,1.87,1.87,0,0,1,.42-1A3.32,3.32,0,0,1,25,4a4.71,4.71,0,0,1,2.18-.53,4.07,4.07,0,0,1,3.1,1A3.51,3.51,0,0,1,31.17,7v6.27a.42.42,0,0,1-.13.32.44.44,0,0,1-.32.12h-.84a.4.4,0,0,1-.31-.12.45.45,0,0,1-.12-.32v-.85a3.23,3.23,0,0,1-1.23,1.06,4.57,4.57,0,0,1-2.09.43A4,4,0,0,1,24.4,13.51Zm4.22-1.85a3.33,3.33,0,0,0,.81-2.41V8.7L27.17,9a5.3,5.3,0,0,0-2.1.66,1.34,1.34,0,0,0-.71,1.16A1.36,1.36,0,0,0,25,12.06a2.68,2.68,0,0,0,1.54.43A2.79,2.79,0,0,0,28.62,11.66Z"/><path class="cls-1" d="M34.11,13.58a.45.45,0,0,1-.12-.32V4.18a.48.48,0,0,1,.12-.33.42.42,0,0,1,.32-.13h.81a.47.47,0,0,1,.34.12.49.49,0,0,1,.12.34V5a2.9,2.9,0,0,1,2.69-1.31h.78a.49.49,0,0,1,.33.11.44.44,0,0,1,.11.33v.72a.41.41,0,0,1-.44.44h-1.1a2.12,2.12,0,0,0-2.28,2.3v5.69a.42.42,0,0,1-.13.32.48.48,0,0,1-.33.12h-.87A.45.45,0,0,1,34.11,13.58Z"/><path class="cls-1" d="M41.84,12.73a4.61,4.61,0,0,1-1.21-3.27V7.91a4.61,4.61,0,0,1,1.21-3.27,4.33,4.33,0,0,1,3.22-1.17,5.07,5.07,0,0,1,2.35.5,3.55,3.55,0,0,1,1.43,1.21,3.09,3.09,0,0,1,.51,1.47.36.36,0,0,1-.13.31.44.44,0,0,1-.32.13h-.84A.46.46,0,0,1,47.77,7a1,1,0,0,1-.2-.32,2.6,2.6,0,0,0-1-1.34A2.73,2.73,0,0,0,45,5a2.55,2.55,0,0,0-1.93.75A3.49,3.49,0,0,0,42.33,8V9.35a3.47,3.47,0,0,0,.77,2.3A2.55,2.55,0,0,0,45,12.4a2.72,2.72,0,0,0,1.55-.4,2.58,2.58,0,0,0,.94-1.34,1,1,0,0,1,.2-.32.46.46,0,0,1,.29-.08h.84a.44.44,0,0,1,.32.13.36.36,0,0,1,.13.31,3.06,3.06,0,0,1-.46,1.48,3.65,3.65,0,0,1-1.43,1.23,5,5,0,0,1-2.35.51A4.33,4.33,0,0,1,41.84,12.73Z"/><path class="cls-1" d="M51.81,13.58a.46.46,0,0,1-.13-.32V.44a.41.41,0,0,1,.13-.32A.44.44,0,0,1,52.13,0H53a.41.41,0,0,1,.44.44v4.5a3.82,3.82,0,0,1,1.32-1.09,4.25,4.25,0,0,1,1.88-.38,3.63,3.63,0,0,1,2.89,1.19,4.61,4.61,0,0,1,1,3.14v5.46a.41.41,0,0,1-.38.44h-1a.44.44,0,0,1-.32-.12.45.45,0,0,1-.12-.32V7.91a3.2,3.2,0,0,0-.68-2.16,2.47,2.47,0,0,0-2-.77,2.58,2.58,0,0,0-2,.78,3,3,0,0,0-.73,2.15v5.35a.42.42,0,0,1-.13.32.43.43,0,0,1-.31.12h-.74A.44.44,0,0,1,51.81,13.58Z"/><path class="cls-1" d="M63.76,13.58a.42.42,0,0,1-.13-.32V.66a.47.47,0,0,1,.12-.34.41.41,0,0,1,.32-.13H65a.49.49,0,0,1,.48.29l4.11,7.9L73.72.48a.51.51,0,0,1,.45-.3h.9a.44.44,0,0,1,.33.13.47.47,0,0,1,.12.34v12.6a.42.42,0,0,1-.13.32.44.44,0,0,1-.32.12h-.9a.4.4,0,0,1-.31-.12.45.45,0,0,1-.12-.32V3.67l-3.3,6.39a.64.64,0,0,1-.62.4h-.58a.65.65,0,0,1-.61-.4L65.35,3.67v9.59a.46.46,0,0,1-.13.32.44.44,0,0,1-.32.12H64A.43.43,0,0,1,63.76,13.58Z"/><path class="cls-1" d="M80.17,17.25a.34.34,0,0,1-.12-.27,2.94,2.94,0,0,1,.1-.34l1.51-3.53L78,4.4a.83.83,0,0,1-.12-.33A.53.53,0,0,1,78,3.78a.4.4,0,0,1,.27-.11h.91a.49.49,0,0,1,.46.31l3,7.1L85.68,4a.5.5,0,0,1,.47-.31H87a.39.39,0,0,1,.39.38.82.82,0,0,1-.1.35L81.77,17.06a.77.77,0,0,1-.2.23.47.47,0,0,1-.28.08h-.85A.38.38,0,0,1,80.17,17.25Z"/><path class="cls-1" d="M89.47,13.57a.44.44,0,0,1-.13-.33V.68a.5.5,0,0,1,.12-.35A.46.46,0,0,1,89.8.19h4.71q5.68,0,5.81,5.25v3a5.42,5.42,0,0,1-1.46,4,6,6,0,0,1-4.25,1.28H89.8A.44.44,0,0,1,89.47,13.57Zm5-2.11a3.18,3.18,0,0,0,2.32-.71,3.45,3.45,0,0,0,.75-2.37V5.5a3.28,3.28,0,0,0-.79-2.32,3.28,3.28,0,0,0-2.38-.75H92v9Z"/><path class="cls-1" d="M103.62,12.74a4.44,4.44,0,0,1-1.33-3.21V7.84a4.44,4.44,0,0,1,1.35-3.2,5.78,5.78,0,0,1,7,0A4.52,4.52,0,0,1,112,7.84V9.53a4.49,4.49,0,0,1-1.34,3.21,5.86,5.86,0,0,1-7,0Zm5.08-1.43a2.88,2.88,0,0,0,.59-1.87,6.71,6.71,0,0,0,0-.75,6.82,6.82,0,0,0,0-.76,2.87,2.87,0,0,0-.6-1.88,2.22,2.22,0,0,0-3.14,0,2.93,2.93,0,0,0-.6,1.88V9.44a2.88,2.88,0,0,0,.6,1.87,2.26,2.26,0,0,0,3.15,0Z"/><path class="cls-1" d="M115.07,12.72a4.49,4.49,0,0,1-1.34-3.26V7.91a4.49,4.49,0,0,1,1.34-3.26,4.81,4.81,0,0,1,3.39-1.18A5.76,5.76,0,0,1,121,4a4.08,4.08,0,0,1,1.56,1.33,3.11,3.11,0,0,1,.55,1.49.38.38,0,0,1-.13.33.47.47,0,0,1-.33.14H121a.44.44,0,0,1-.31-.09.89.89,0,0,1-.19-.32,2.27,2.27,0,0,0-.77-1.06,2.27,2.27,0,0,0-2.74.29A2.91,2.91,0,0,0,116.38,8V9.36c.07,1.67.78,2.51,2.12,2.51a2.09,2.09,0,0,0,1.21-.32,2.26,2.26,0,0,0,.76-1.07.82.82,0,0,1,.18-.31.49.49,0,0,1,.32-.09h1.72a.46.46,0,0,1,.33.13.38.38,0,0,1,.13.33,3.21,3.21,0,0,1-.54,1.46,4.19,4.19,0,0,1-1.54,1.34,5.54,5.54,0,0,1-2.61.56A4.81,4.81,0,0,1,115.07,12.72Z"/><path class="cls-1" d="M126.53,13.45a3.77,3.77,0,0,1-1.46-1,1.7,1.7,0,0,1-.47-1,.41.41,0,0,1,.12-.31A.44.44,0,0,1,125,11h1.58a.31.31,0,0,1,.27.16l.44.36a2.39,2.39,0,0,0,.77.46,2.69,2.69,0,0,0,1,.16,2.34,2.34,0,0,0,1.25-.3,1,1,0,0,0,.48-.86.87.87,0,0,0-.22-.62,2.07,2.07,0,0,0-.79-.45,17.51,17.51,0,0,0-1.71-.45,5.2,5.2,0,0,1-2.42-1.06,2.45,2.45,0,0,1-.78-1.89,2.55,2.55,0,0,1,.46-1.46A3.33,3.33,0,0,1,126.73,4a5.06,5.06,0,0,1,2.19-.44,5.53,5.53,0,0,1,2.26.42,4,4,0,0,1,1.44,1,1.75,1.75,0,0,1,.49,1,.43.43,0,0,1-.43.42h-1.51a.4.4,0,0,1-.33-.15l-.44-.36a2.84,2.84,0,0,0-.66-.42,2.37,2.37,0,0,0-.89-.15,1.7,1.7,0,0,0-1.1.31,1,1,0,0,0-.38.81.93.93,0,0,0,.18.58,1.68,1.68,0,0,0,.74.43,10.59,10.59,0,0,0,1.68.42c2.32.45,3.47,1.46,3.47,3A2.62,2.62,0,0,1,132.26,13a5.66,5.66,0,0,1-3.31.85A5.86,5.86,0,0,1,126.53,13.45Z"/></svg>