<?xml version="1.0" encoding="utf-8"?>
<!-- Generator: Adobe Illustrator 21.1.0, SVG Export Plug-In . SVG Version: 6.00 Build 0)  -->
<svg version="1.1" id="Layer_1" xmlns="http://www.w3.org/2000/svg" xmlns:xlink="http://www.w3.org/1999/xlink" x="0px" y="0px"
	 viewBox="0 0 48.3 47" style="enable-background:new 0 0 48.3 47;" xml:space="preserve">
<style type="text/css">
	.st0{fill:#EF4438;}
	.st1{fill:#1A468A;}
</style>
<g>
	<path class="st0" d="M41.4,6.9C37,2.4,31.1,0,24.8,0S12.7,2.4,8.2,6.9S1.3,17.2,1.3,23.5c0,4.3,1.1,8.4,3.3,12
		c0.9-0.3,1.8-0.5,2.9-0.7c1.9-0.3,4.1-0.2,6.5,0.6c-3.2-3-5.3-7.2-5.3-11.9c0-8.9,7.2-16.1,16.1-16.1s16.1,7.2,16.1,16.1
		s-7.2,16.1-16.1,16.1c-2.4,0-4.6-0.5-6.6-1.4c-4.3-2.1-7.6-1.8-10.4-0.8C0.4,39.9,0,46.2,0,46.2c6-6.6,14-1.8,14-1.8l0,0
		c3.3,1.7,7,2.6,10.8,2.6c6.3,0,12.2-2.4,16.6-6.9s6.9-10.3,6.9-16.6C48.3,17.2,45.9,11.3,41.4,6.9"/>
</g>
<g>
	<g>
		<path class="st1" d="M25.2,23.1c-4.6,0-7.9-0.6-8.1-0.6c-0.5-0.1-0.8-0.5-0.7-1c0.1-0.5,0.5-0.8,1-0.7c0.1,0,7.4,1.3,15.5,0
			c0.5-0.1,0.9,0.2,1,0.7c0.1,0.5-0.2,0.9-0.7,1C30.3,23,27.6,23.1,25.2,23.1z"/>
		<path class="st1" d="M24.9,27.6c-4.2,0-7-0.6-7.2-0.7c-0.5-0.1-0.8-0.6-0.6-1c0.1-0.5,0.6-0.8,1-0.6c0,0,6.1,1.4,13.5,0
			c0.5-0.1,0.9,0.2,1,0.7c0.1,0.5-0.2,0.9-0.7,1C29.4,27.5,27,27.6,24.9,27.6z"/>
		<path class="st1" d="M25.1,31.9c-3.7,0-6.6-0.5-6.7-0.5c-0.5-0.1-0.8-0.5-0.7-1c0.1-0.5,0.5-0.8,1-0.7c0,0,6,1,11.9,0.1
			c0.5-0.1,0.9,0.2,1,0.7c0.1,0.5-0.2,0.9-0.7,1C28.9,31.8,26.9,31.9,25.1,31.9z"/>
	</g>
	<circle class="st1" cx="25.1" cy="16.2" r="2.2"/>
</g>
</svg>
