<svg id="Layer_1" data-name="Layer 1" xmlns="http://www.w3.org/2000/svg" xmlns:xlink="http://www.w3.org/1999/xlink" viewBox="0 0 208.34 298.75"><defs><style>.cls-1{fill:none;}.cls-2{clip-path:url(#clip-path);}.cls-3{fill:#fce30a;}.cls-4{font-size:74.3px;font-family:Ionicons, Ionicons;}.cls-5{font-size:45.73px;font-family:Pacifico, Pacifico;}.cls-6{fill:#f95858;}.cls-7{fill:#010101;}</style><clipPath id="clip-path"><rect class="cls-1" width="208.34" height="298.75"/></clipPath></defs><title>wb</title><g class="cls-2"><path d="M169,229.9c7.8-.35,15.59-1,23.38-1.47,10.13-.62,15.86,7.78,16,15.27.15,8.82-3,16.23-8.25,23a72.88,72.88,0,0,1-27.65,21.58,101.88,101.88,0,0,1-16.68,6,116.64,116.64,0,0,1-25.89,3.63c-4.94.16-9.88,1-14.8.92-4.76-.12-9.54-.48-14.31-.82a128.06,128.06,0,0,1-23.87-4.14c-5.07-1.35-10.2-2.87-14.76-5.41a135.19,135.19,0,0,1-20-13.08c-8.18-6.68-15.61-14-21.43-22.87a134.49,134.49,0,0,1-10.22-19.1,103.44,103.44,0,0,1-5.47-16.09,94.76,94.76,0,0,1-2.53-12.3C1.2,194.27-.22,183.6,0,172.84a128.87,128.87,0,0,1,3.12-25.18C8.63,123.15,20.53,102.19,38,84.32A106.05,106.05,0,0,1,67.47,63,177.3,177.3,0,0,1,89.81,54c3-1,6.06-1.64,9.12-2.32s5.93-.82,8.75-2.38c2.31-1.28,5.16-.37,7.76,0,.76.11,1.09.75,1.52,1.25,3.23,3.7,6.6,7.19,11.33,9.06a8.53,8.53,0,0,1,3.57,3,72.61,72.61,0,0,1,6.39,10.82c1.12,2.25,1,6.26-1,7.22-2.87,1.42-3,4.24-4.38,6.39a71.22,71.22,0,0,0-3.58,7.19,179.83,179.83,0,0,0-7.9,19c-2,5.69-3.85,11.44-5.32,17.32a128.23,128.23,0,0,0-3,14c-1.08,8.09-2.28,16.21-1.1,24.44a114.87,114.87,0,0,0,3.06,16.33c4.35,14.73,11.07,28,24.33,36.81a38.77,38.77,0,0,0,18.75,6.76c3.59.28,7.13,1.09,10.76,1"/><path class="cls-3" d="M117.77,291a111.94,111.94,0,0,1-26.82-2.78,106.85,106.85,0,0,1-24-8.39,114.16,114.16,0,0,1-33.62-25A78,78,0,0,1,19.5,232.9,112.89,112.89,0,0,1,12.81,213a164.27,164.27,0,0,1-4-41.56,110.79,110.79,0,0,1,1.64-18.14,124.24,124.24,0,0,1,5.39-18.95,115.55,115.55,0,0,1,13.33-26.27C37.82,95.45,48,84.22,60.66,75.45A127.56,127.56,0,0,1,85.11,62.58c7.82-3.21,15.91-5.52,24-7.92,3.44-1,6.6-.8,9.19,2.1.4.45,1,.69.9,1.4s-.66,1.11-1.33,1.36A110.25,110.25,0,0,0,92.56,72.63a37.58,37.58,0,0,0-8.82,8.26c-.4.53-1,1.19-.4,1.75s1.06-.25,1.46-.62a74.46,74.46,0,0,1,19.14-12.7c5.11-2.43,10.4-4.45,15.56-6.72,3.44-1.52,5-.19,6.86,2.11,1.76,2.15,3.42,4.36,5.11,6.56a1.84,1.84,0,0,1-.12,2.73c-4.91,5.92-8.19,12.77-11.21,19.79a196.16,196.16,0,0,0-6.69,18.5c-1.57,5-2.63,10.1-4.09,15.11a113.25,113.25,0,0,0-3.22,14.21,123.41,123.41,0,0,0-1.46,20.2,110.57,110.57,0,0,0,2.6,23.44c3.45,15.2,9.69,29,22.46,38.78a57.79,57.79,0,0,0,18.2,9.28,64.36,64.36,0,0,0,28,2.52,49.92,49.92,0,0,1,11.91-.53c2.2.24,3.39,1.49,4.22,3.48s0,3.28-1.23,4.6A57.49,57.49,0,0,1,165.46,260a73.26,73.26,0,0,1-22.79,3.4c-.53,0-1.06,0-1.58,0s-1.56-.31-1.71.6.78,1.2,1.52,1.25c3.74.28,7.45,1.11,11.22.83,5.08-.38,10.23-.49,15.12-2.07a80.66,80.66,0,0,0,14.68-6.48,58.68,58.68,0,0,0,16.21-12.94c.88-1,1.51-.9,2.38,0a8.16,8.16,0,0,1,1.39,8.19c-2.82,7.23-8.07,12.52-13.79,17.44-6.14,5.28-12.73,9.93-20.24,13a94,94,0,0,1-19.39,5.39c-9.44,1.67-18.92,2.23-30.72,2.36"/><text class="cls-4" transform="translate(167.49 48.13) rotate(-137.05)"></text></g><text class="cls-5" transform="matrix(0.87, 0.5, -0.5, 0.87, 28.22, 125.77)">W</text><g class="cls-2"><path class="cls-6" d="M138.06,52.58a5.39,5.39,0,1,1-5.39-5.39,5.39,5.39,0,0,1,5.39,5.39"/><path class="cls-7" d="M113.35,261.05a11.33,11.33,0,0,1-6.79-1.06c-15.9-7.74-29.74-18-39.9-32.75-.19-.27-.56-.49-.4-1.11,1.3,0,2.66,0,4,0a1.4,1.4,0,0,1,1.3.74C82.25,241.32,96.32,251.67,112,260c.44.24,1,.28,1.31,1.05"/><path class="cls-7" d="M60,210.86a2.43,2.43,0,0,1-.37.14c-4.69.16-4.74.19-7.07-3.87-8.23-14.32-12.32-29.68-11.38-46.26.12-2.06.32-2.59,1.75-4,.57,19.66,5.52,37.81,17.07,54"/></g></svg>