<svg id="Layer_1" data-name="Layer 1" xmlns="http://www.w3.org/2000/svg" viewBox="0 0 184.3 47"><defs><style>.cls-1{fill:#ef4438;}.cls-2{fill:#1a468a;}.cls-3{fill:#09448d;}</style></defs><title>logo3-NEW</title><path class="cls-1" d="M41.4,6.9A23,23,0,0,0,24.8,0,23.16,23.16,0,0,0,8.2,6.9,23.16,23.16,0,0,0,1.3,23.5a22.86,22.86,0,0,0,3.3,12,20.75,20.75,0,0,1,2.9-.7,13.68,13.68,0,0,1,6.5.6A16.34,16.34,0,0,1,8.7,23.5,16.1,16.1,0,1,1,24.8,39.6h0a16,16,0,0,1-6.6-1.4,12.58,12.58,0,0,0-10.4-.8C.4,39.9,0,46.2,0,46.2c6-6.6,14-1.8,14-1.8h0A23.56,23.56,0,0,0,24.8,47a23,23,0,0,0,16.6-6.9,23.54,23.54,0,0,0,6.9-16.6A23,23,0,0,0,41.4,6.9" transform="translate(0 0)"/><path class="cls-2" d="M25.2,23.1a57.76,57.76,0,0,1-8.1-.6.86.86,0,0,1,.3-1.7,53,53,0,0,0,15.5,0,.86.86,0,0,1,.3,1.7A46.55,46.55,0,0,1,25.2,23.1Z" transform="translate(0 0)"/><path class="cls-2" d="M24.9,27.6a30,30,0,0,1-7.2-.7.82.82,0,0,1,.4-1.6,36.48,36.48,0,0,0,13.5,0,.86.86,0,0,1,.3,1.7A35.72,35.72,0,0,1,24.9,27.6Z" transform="translate(0 0)"/><path class="cls-2" d="M25.1,31.9a47,47,0,0,1-6.7-.5.86.86,0,1,1,.3-1.7,43.12,43.12,0,0,0,11.9.1.86.86,0,0,1,.3,1.7A38.81,38.81,0,0,1,25.1,31.9Z" transform="translate(0 0)"/><circle class="cls-2" cx="25.1" cy="16.2" r="2.2"/><path class="cls-3" d="M53.25,30.21a4.09,4.09,0,0,1-1.77-1.32,3.1,3.1,0,0,1-.65-1.76.34.34,0,0,1,.12-.27.37.37,0,0,1,.29-.12h.94a.49.49,0,0,1,.48.39,2.36,2.36,0,0,0,1,1.4,4,4,0,0,0,2.34.58,4.26,4.26,0,0,0,2.45-.57,1.87,1.87,0,0,0,.81-1.61,1.56,1.56,0,0,0-.39-1.08,3.37,3.37,0,0,0-1.18-.74q-.78-.32-2.34-.78A11.79,11.79,0,0,1,53,23.42a3.57,3.57,0,0,1-1.32-1.19,3.24,3.24,0,0,1-.44-1.78,3.14,3.14,0,0,1,.56-1.86,3.73,3.73,0,0,1,1.62-1.3,6.18,6.18,0,0,1,2.51-.47,5.77,5.77,0,0,1,2.57.53,4.23,4.23,0,0,1,1.63,1.33,3,3,0,0,1,.6,1.61.39.39,0,0,1-.4.41h-1a.46.46,0,0,1-.29-.1.51.51,0,0,1-.19-.29,2,2,0,0,0-.93-1.37,3.56,3.56,0,0,0-2-.54,3.76,3.76,0,0,0-2.09.51,1.73,1.73,0,0,0-.77,1.52,1.64,1.64,0,0,0,.36,1.1,3,3,0,0,0,1.1.75,20.05,20.05,0,0,0,2.17.76,14.62,14.62,0,0,1,2.57.92,3.41,3.41,0,0,1,1.4,1.15,3.11,3.11,0,0,1,.47,1.77,3.29,3.29,0,0,1-1.38,2.82,6.17,6.17,0,0,1-3.74,1A6.85,6.85,0,0,1,53.25,30.21Z" transform="translate(0 0)"/><path class="cls-3" d="M64.24,29.49A5.09,5.09,0,0,1,63,26.14l0-.65,0-.64a5.07,5.07,0,0,1,1.29-3.32,4.18,4.18,0,0,1,3.15-1.24,4.13,4.13,0,0,1,3.29,1.36,5.4,5.4,0,0,1,1.17,3.66v.35a.41.41,0,0,1-.13.32.44.44,0,0,1-.32.12H64.71v.18a3.57,3.57,0,0,0,.77,2.14,2.31,2.31,0,0,0,1.89.89A2.75,2.75,0,0,0,68.85,29a3.43,3.43,0,0,0,.86-.74.56.56,0,0,1,.59-.33h.85a.44.44,0,0,1,.3.1.28.28,0,0,1,.13.25,1.76,1.76,0,0,1-.52,1,4.26,4.26,0,0,1-1.48,1,5.25,5.25,0,0,1-2.19.44A4.17,4.17,0,0,1,64.24,29.49Zm5.85-4.7v-.06a3.25,3.25,0,0,0-.73-2.2,2.5,2.5,0,0,0-2-.85,2.46,2.46,0,0,0-2,.85,3.29,3.29,0,0,0-.71,2.2v.06Z" transform="translate(0 0)"/><path class="cls-3" d="M75.23,30.33a3.37,3.37,0,0,1-1.27-1,2.55,2.55,0,0,1-.47-1.48,2.5,2.5,0,0,1,1-2.08,6,6,0,0,1,2.84-1.08l2.89-.41v-.56c0-1.32-.76-2-2.29-2a2.52,2.52,0,0,0-1.43.36,2.24,2.24,0,0,0-.79.84.64.64,0,0,1-.17.26.36.36,0,0,1-.24.07h-.75a.38.38,0,0,1-.3-.13.42.42,0,0,1-.13-.3,1.87,1.87,0,0,1,.42-1,3.32,3.32,0,0,1,1.28-1A4.71,4.71,0,0,1,78,20.29a4.07,4.07,0,0,1,3.1,1A3.51,3.51,0,0,1,82,23.81v6.27a.42.42,0,0,1-.13.32.44.44,0,0,1-.32.12h-.84a.4.4,0,0,1-.31-.12.45.45,0,0,1-.12-.32v-.85a3.23,3.23,0,0,1-1.23,1.06,4.57,4.57,0,0,1-2.09.43A4,4,0,0,1,75.23,30.33Zm4.22-1.85a3.33,3.33,0,0,0,.81-2.41v-.55L78,25.85a5.3,5.3,0,0,0-2.1.66,1.34,1.34,0,0,0-.71,1.16,1.36,1.36,0,0,0,.64,1.21,2.68,2.68,0,0,0,1.54.43A2.79,2.79,0,0,0,79.45,28.48Z" transform="translate(0 0)"/><path class="cls-3" d="M84.94,30.4a.45.45,0,0,1-.12-.32V21a.48.48,0,0,1,.12-.33.42.42,0,0,1,.32-.13h.81a.47.47,0,0,1,.34.12.49.49,0,0,1,.12.34v.85a2.9,2.9,0,0,1,2.69-1.31H90a.49.49,0,0,1,.33.11.44.44,0,0,1,.11.33v.72a.42.42,0,0,1-.11.31.42.42,0,0,1-.33.13h-1.1a2.12,2.12,0,0,0-2.28,2.3v5.69a.42.42,0,0,1-.13.32.48.48,0,0,1-.33.12h-.87A.45.45,0,0,1,84.94,30.4Z" transform="translate(0 0)"/><path class="cls-3" d="M92.67,29.55a4.61,4.61,0,0,1-1.21-3.27l0-.77,0-.78a4.61,4.61,0,0,1,1.21-3.27,4.33,4.33,0,0,1,3.22-1.17,5.07,5.07,0,0,1,2.35.5A3.55,3.55,0,0,1,99.67,22a3.09,3.09,0,0,1,.51,1.47.36.36,0,0,1-.13.31.44.44,0,0,1-.32.13h-.84a.46.46,0,0,1-.29-.08,1,1,0,0,1-.2-.32,2.6,2.6,0,0,0-1-1.34,2.73,2.73,0,0,0-1.54-.4,2.55,2.55,0,0,0-1.93.75,3.49,3.49,0,0,0-.77,2.3l0,.68,0,.67a3.47,3.47,0,0,0,.77,2.3,2.55,2.55,0,0,0,1.93.75,2.72,2.72,0,0,0,1.55-.4,2.58,2.58,0,0,0,.94-1.34,1,1,0,0,1,.2-.32.46.46,0,0,1,.29-.08h.84a.44.44,0,0,1,.32.13.36.36,0,0,1,.13.31A3.06,3.06,0,0,1,99.67,29a3.65,3.65,0,0,1-1.43,1.23,5,5,0,0,1-2.35.51A4.33,4.33,0,0,1,92.67,29.55Z" transform="translate(0 0)"/><path class="cls-3" d="M102.64,30.4a.46.46,0,0,1-.13-.32V17.26a.41.41,0,0,1,.13-.32.44.44,0,0,1,.32-.12h.89a.41.41,0,0,1,.44.44v4.5a3.82,3.82,0,0,1,1.32-1.09,4.25,4.25,0,0,1,1.88-.38,3.63,3.63,0,0,1,2.89,1.19,4.61,4.61,0,0,1,1,3.14v5.46a.41.41,0,0,1-.44.44h-.91a.44.44,0,0,1-.32-.12.45.45,0,0,1-.12-.32V24.73a3.2,3.2,0,0,0-.68-2.16,2.47,2.47,0,0,0-2-.77,2.58,2.58,0,0,0-2,.78,3,3,0,0,0-.73,2.15v5.35a.42.42,0,0,1-.13.32.43.43,0,0,1-.31.12H103A.44.44,0,0,1,102.64,30.4Z" transform="translate(0 0)"/><path class="cls-3" d="M114.59,30.4a.42.42,0,0,1-.13-.32V17.48a.47.47,0,0,1,.12-.34.41.41,0,0,1,.32-.13h.91a.49.49,0,0,1,.48.29l4.11,7.9,4.15-7.9A.51.51,0,0,1,125,17h.9a.44.44,0,0,1,.33.13.47.47,0,0,1,.12.34v12.6a.42.42,0,0,1-.13.32.44.44,0,0,1-.32.12H125a.4.4,0,0,1-.31-.12.45.45,0,0,1-.12-.32V20.49l-3.3,6.39a.64.64,0,0,1-.62.4h-.58a.65.65,0,0,1-.61-.4l-3.28-6.39v9.59a.46.46,0,0,1-.13.32.44.44,0,0,1-.32.12h-.87A.43.43,0,0,1,114.59,30.4Z" transform="translate(0 0)"/><path class="cls-3" d="M131,34.07a.34.34,0,0,1-.12-.27,2.94,2.94,0,0,1,.1-.34l1.51-3.53-3.69-8.71a.83.83,0,0,1-.12-.33.53.53,0,0,1,.14-.29.4.4,0,0,1,.27-.11H130a.49.49,0,0,1,.46.31l3,7.1,3.05-7.1a.5.5,0,0,1,.47-.31h.86a.37.37,0,0,1,.27.11.37.37,0,0,1,.12.27.82.82,0,0,1-.1.35L132.6,33.88a.77.77,0,0,1-.2.23.47.47,0,0,1-.28.08h-.85A.38.38,0,0,1,131,34.07Z" transform="translate(0 0)"/><path class="cls-3" d="M140.3,30.39a.44.44,0,0,1-.13-.33V17.5a.5.5,0,0,1,.12-.35.46.46,0,0,1,.34-.14h4.71q5.68,0,5.81,5.25c0,.75,0,1.25,0,1.51s0,.74,0,1.48a5.42,5.42,0,0,1-1.46,4,6.05,6.05,0,0,1-4.25,1.28h-4.81A.44.44,0,0,1,140.3,30.39Zm5-2.11a3.18,3.18,0,0,0,2.32-.71,3.45,3.45,0,0,0,.75-2.37c0-.78,0-1.26,0-1.45s0-.68,0-1.43a3.28,3.28,0,0,0-.79-2.32,3.28,3.28,0,0,0-2.38-.75h-2.35v9Z" transform="translate(0 0)"/><path class="cls-3" d="M154.45,29.56a4.44,4.44,0,0,1-1.33-3.21l0-.84,0-.85a4.44,4.44,0,0,1,1.35-3.2,5.78,5.78,0,0,1,7,0,4.52,4.52,0,0,1,1.35,3.2c0,.15,0,.43,0,.85s0,.69,0,.84a4.49,4.49,0,0,1-1.34,3.21,5.86,5.86,0,0,1-7,0Zm5.08-1.43a2.88,2.88,0,0,0,.59-1.87,6.71,6.71,0,0,0,0-.75,6.82,6.82,0,0,0,0-.76,2.87,2.87,0,0,0-.6-1.88,2,2,0,0,0-1.56-.65,2,2,0,0,0-1.58.65,2.93,2.93,0,0,0-.6,1.88l0,.76,0,.75a2.88,2.88,0,0,0,.6,1.87,2,2,0,0,0,1.58.64A2,2,0,0,0,159.53,28.13Z" transform="translate(0 0)"/><path class="cls-3" d="M165.9,29.54a4.49,4.49,0,0,1-1.34-3.26l0-.77,0-.78a4.49,4.49,0,0,1,1.34-3.26,4.81,4.81,0,0,1,3.39-1.18,5.76,5.76,0,0,1,2.58.54,4.08,4.08,0,0,1,1.56,1.33,3.11,3.11,0,0,1,.55,1.49.38.38,0,0,1-.13.33.47.47,0,0,1-.33.14H171.8a.44.44,0,0,1-.31-.09.89.89,0,0,1-.19-.32,2.27,2.27,0,0,0-.77-1.06,2,2,0,0,0-1.2-.33,2,2,0,0,0-1.54.62,2.91,2.91,0,0,0-.58,1.89l0,.71,0,.64c.07,1.67.78,2.51,2.12,2.51a2.09,2.09,0,0,0,1.21-.32,2.26,2.26,0,0,0,.76-1.07.82.82,0,0,1,.18-.31.49.49,0,0,1,.32-.09h1.72a.46.46,0,0,1,.33.13.38.38,0,0,1,.13.33,3.21,3.21,0,0,1-.54,1.46,4.19,4.19,0,0,1-1.54,1.34,5.54,5.54,0,0,1-2.61.56A4.81,4.81,0,0,1,165.9,29.54Z" transform="translate(0 0)"/><path class="cls-3" d="M177.36,30.27a3.77,3.77,0,0,1-1.46-1,1.7,1.7,0,0,1-.47-1,.41.41,0,0,1,.12-.31.44.44,0,0,1,.3-.12h1.58a.31.31,0,0,1,.27.16l.44.36a2.39,2.39,0,0,0,.77.46,2.69,2.69,0,0,0,1,.16,2.34,2.34,0,0,0,1.25-.3,1,1,0,0,0,.48-.86.87.87,0,0,0-.22-.62,2.07,2.07,0,0,0-.79-.45,17.51,17.51,0,0,0-1.71-.45,5.2,5.2,0,0,1-2.42-1.06,2.45,2.45,0,0,1-.78-1.89,2.55,2.55,0,0,1,.46-1.46,3.33,3.33,0,0,1,1.38-1.12,5.06,5.06,0,0,1,2.19-.44,5.53,5.53,0,0,1,2.26.42,4.05,4.05,0,0,1,1.44,1,1.75,1.75,0,0,1,.49,1,.43.43,0,0,1-.43.42H182a.4.4,0,0,1-.33-.15l-.44-.36a2.84,2.84,0,0,0-.66-.42,2.37,2.37,0,0,0-.89-.15,1.7,1.7,0,0,0-1.1.31,1,1,0,0,0-.38.81.93.93,0,0,0,.18.58,1.68,1.68,0,0,0,.74.43,10.59,10.59,0,0,0,1.68.42c2.32.45,3.47,1.46,3.47,3a2.62,2.62,0,0,1-1.18,2.22,5.66,5.66,0,0,1-3.31.85A5.86,5.86,0,0,1,177.36,30.27Z" transform="translate(0 0)"/></svg>