<svg
        xmlns="http://www.w3.org/2000/svg"
        xmlns:xlink="http://www.w3.org/1999/xlink"
        width="18px" height="18px">
    <path fill-rule="evenodd"  fill="rgb(241, 67, 54)"
          d="M17.100,18.000 L0.900,18.000 C0.403,18.000 0.000,17.597 0.000,17.100 L0.000,0.900 C0.000,0.403 0.403,0.000 0.900,0.000 L17.100,0.000 C17.597,0.000 18.000,0.403 18.000,0.900 L18.000,17.100 C18.000,17.597 17.597,18.000 17.100,18.000 ZM16.200,1.800 L1.800,1.800 L1.800,16.200 L16.200,16.200 L16.200,1.800 ZM13.500,6.300 L4.500,6.300 L4.500,4.500 L13.500,4.500 L13.500,6.300 ZM13.500,9.900 L4.500,9.900 L4.500,8.100 L13.500,8.100 L13.500,9.900 ZM13.500,13.500 L4.500,13.500 L4.500,11.700 L13.500,11.700 L13.500,13.500 Z"/>
</svg>