<svg xmlns="http://www.w3.org/2000/svg" width="16.59" height="11.406" viewBox="0 0 16.59 11.406">
  <metadata><?xpacket begin="﻿" id="W5M0MpCehiHzreSzNTczkc9d"?>
<x:xmpmeta xmlns:x="adobe:ns:meta/" x:xmptk="Adobe XMP Core 5.6-c138 79.159824, 2016/09/14-01:09:01        ">
   <rdf:RDF xmlns:rdf="http://www.w3.org/1999/02/22-rdf-syntax-ns#">
      <rdf:Description rdf:about=""/>
   </rdf:RDF>
</x:xmpmeta>
                                                                                                    
                                                                                                    
                                                                                                    
                                                                                                    
                                                                                                    
                                                                                                    
                                                                                                    
                                                                                                    
                                                                                                    
                                                                                                    
                                                                                                    
                                                                                                    
                                                                                                    
                                                                                                    
                                                                                                    
                                                                                                    
                                                                                                    
                                                                                                    
                                                                                                    
                                                                                                    
                           
<?xpacket end="w"?></metadata>
<defs>
    <style>
      .cls-1 {
        fill: #18d9b2;
        fill-rule: evenodd;
      }
    </style>
  </defs>
  <path id="mail_copy" data-name="mail copy" class="cls-1" d="M1304.04,287.588h14.52a1.042,1.042,0,0,1,1.04,1.038v9.337a1.041,1.041,0,0,1-1.04,1.037h-14.52a1.035,1.035,0,0,1-1.04-1.037v-9.337A1.036,1.036,0,0,1,1304.04,287.588Zm0,1.038h14.52v9.337h-14.52v-9.337Zm6.56,7.082-7.08-7.079v-0.522h0.97l6.81,6.743,6.86-6.743h0.92v0.585l-7.02,7.016A1.029,1.029,0,0,1,1310.6,295.708Zm5.41,2.255-3.71-3.593,0.79-.8,4.47,4.389h-1.55Zm-10.9,0,4.29-4.223,0.83,0.71-3.61,3.513h-1.51Z" transform="translate(-1303 -287.594)"/>
</svg>
