<svg id="Layer_1" data-name="Layer 1" xmlns="http://www.w3.org/2000/svg" xmlns:xlink="http://www.w3.org/1999/xlink" viewBox="0 0 1424.46 806.14"><defs><style>.cls-1{fill:none;}.cls-2{clip-path:url(#clip-path);}.cls-3{fill:#e3edf5;}.cls-4{clip-path:url(#clip-path-2);}.cls-5{fill:#dcfafb;}.cls-6{fill:#b4f1f4;}.cls-7{fill:#7ff4f4;}.cls-8{fill:#44b5ec;}.cls-9{clip-path:url(#clip-path-3);}.cls-10{fill:url(#linear-gradient);}.cls-11{opacity:0.29;}.cls-12{clip-path:url(#clip-path-5);}.cls-13{clip-path:url(#clip-path-6);}.cls-14{fill:#aff9f5;}.cls-15{clip-path:url(#clip-path-7);}.cls-16{fill:#004381;}.cls-17{fill:#00d89e;}.cls-18{fill:#ffd0ce;}.cls-19{clip-path:url(#clip-path-8);}.cls-20{fill:url(#linear-gradient-2);}.cls-21{fill:#ea659d;}.cls-22{clip-path:url(#clip-path-10);}.cls-23{fill:url(#linear-gradient-3);}.cls-24{clip-path:url(#clip-path-11);}.cls-25{fill:url(#linear-gradient-4);}.cls-26{clip-path:url(#clip-path-12);}.cls-27{fill:url(#linear-gradient-5);}.cls-28{fill:#1a1b5c;}.cls-29{clip-path:url(#clip-path-14);}.cls-30{fill:url(#linear-gradient-6);}.cls-31{fill:#003977;}.cls-32{clip-path:url(#clip-path-16);}.cls-33{fill:url(#linear-gradient-7);}.cls-34{clip-path:url(#clip-path-17);}.cls-35{fill:url(#linear-gradient-8);}.cls-36{fill:#a6eee9;}.cls-37{fill:#58dbdb;}.cls-38{clip-path:url(#clip-path-19);}.cls-39{fill:url(#linear-gradient-9);}.cls-40{fill:#6df3c7;}.cls-41{opacity:0.7;}.cls-42{clip-path:url(#clip-path-21);}.cls-43{fill:#fff;}.cls-44{clip-path:url(#clip-path-22);}.cls-45{clip-path:url(#clip-path-23);}.cls-46{fill:url(#linear-gradient-10);}.cls-47{fill:#00649f;}.cls-48{clip-path:url(#clip-path-25);}.cls-49{fill:url(#linear-gradient-11);}.cls-50{clip-path:url(#clip-path-26);}.cls-51{fill:url(#linear-gradient-12);}.cls-52{clip-path:url(#clip-path-27);}.cls-53{fill:url(#linear-gradient-13);}.cls-54{clip-path:url(#clip-path-28);}.cls-55{fill:url(#linear-gradient-14);}.cls-56{fill:#236acc;}.cls-57{fill:#aeddf1;}.cls-58{fill:#00c18d;}.cls-59{fill:#c2866e;}.cls-60{clip-path:url(#clip-path-30);}.cls-61{fill:url(#linear-gradient-15);}.cls-62{clip-path:url(#clip-path-32);}.cls-63{fill:url(#linear-gradient-16);}.cls-64{fill:#8ceae7;}.cls-65{fill:#2e1709;}.cls-66{clip-path:url(#clip-path-34);}.cls-67{fill:url(#linear-gradient-17);}.cls-68{fill:#bcf7e2;}.cls-69{clip-path:url(#clip-path-36);}.cls-70{fill:url(#linear-gradient-18);}.cls-71{clip-path:url(#clip-path-38);}.cls-72{fill:url(#linear-gradient-19);}.cls-73{clip-path:url(#clip-path-40);}.cls-74{fill:url(#linear-gradient-20);}.cls-75{clip-path:url(#clip-path-42);}.cls-76{fill:url(#linear-gradient-21);}.cls-77{clip-path:url(#clip-path-43);}.cls-78{fill:url(#linear-gradient-22);}.cls-79{clip-path:url(#clip-path-45);}.cls-80{fill:url(#linear-gradient-23);}.cls-81{clip-path:url(#clip-path-47);}.cls-82{fill:url(#linear-gradient-24);}.cls-83{fill:#35abdd;}.cls-84{fill:#00c1b3;}.cls-85{clip-path:url(#clip-path-49);}.cls-86{fill:url(#linear-gradient-25);}.cls-87{clip-path:url(#clip-path-51);}.cls-88{fill:url(#linear-gradient-26);}.cls-89{fill:#69c4f0;}.cls-90{fill:#00add6;}.cls-91{clip-path:url(#clip-path-53);}.cls-92{fill:url(#linear-gradient-27);}.cls-93{fill:#00a6d3;}.cls-94{clip-path:url(#clip-path-55);}.cls-95{fill:url(#linear-gradient-28);}.cls-96{clip-path:url(#clip-path-56);}.cls-97{fill:url(#linear-gradient-29);}.cls-98{fill:#86605f;}.cls-99{clip-path:url(#clip-path-58);}.cls-100{fill:url(#linear-gradient-30);}.cls-101{clip-path:url(#clip-path-60);}.cls-102{fill:url(#linear-gradient-31);}</style><clipPath id="clip-path"><rect class="cls-1" width="1424.46" height="806.14"/></clipPath><clipPath id="clip-path-2"><rect class="cls-1" width="1424.46" height="806.14"/></clipPath><clipPath id="clip-path-3"><rect class="cls-1" x="412.95" y="680.03" width="539.4" height="48.4"/></clipPath><linearGradient id="linear-gradient" y1="806.14" x2="1" y2="806.14" gradientTransform="matrix(539.4, 0, 0, -539.4, 412.95, 435540.8)" gradientUnits="userSpaceOnUse"><stop offset="0" stop-color="#5ed7ad"/><stop offset="1" stop-color="#4acfd3"/></linearGradient><clipPath id="clip-path-5"><rect class="cls-1" x="368.49" width="366.6" height="111.85"/></clipPath><clipPath id="clip-path-6"><rect class="cls-1" x="103.53" y="164.63" width="267.08" height="91.38"/></clipPath><clipPath id="clip-path-7"><rect class="cls-1" x="1002.02" y="185.14" width="305.95" height="94.66"/></clipPath><clipPath id="clip-path-8"><path class="cls-1" d="M1130.59,554.78c-4.1,17.49,28.63,27.6,39.53,28.59,11.22,1,44.36-8.83,43.62-23.78-.81-16.26-15.17-43.65-15.17-43.65l-52.32-1s-13.12,29-15.65,39.81"/></clipPath><linearGradient id="linear-gradient-2" y1="806.13" x2="1" y2="806.13" gradientTransform="translate(1213.3 67761.39) rotate(-180) scale(83.38)" gradientUnits="userSpaceOnUse"><stop offset="0" stop-color="#00add6"/><stop offset="1" stop-color="#00add6"/></linearGradient><clipPath id="clip-path-10"><path class="cls-1" d="M1157.29,431.64a54,54,0,0,0-5.64,2.91c3,4.11,11.83,15.21,19.21,16s25.68-16.26,25.77-16.83a69.37,69.37,0,0,0-6.79-3.36c-6.45-2.13-11.09-3-15.23-3-5.61,0-10.29,1.68-17.32,4.32"/></clipPath><linearGradient id="linear-gradient-3" y1="806.12" x2="1" y2="806.12" gradientTransform="translate(1189.61 87214.19) rotate(-180) scale(107.65)" gradientUnits="userSpaceOnUse"><stop offset="0" stop-color="#ffd0ce"/><stop offset="1" stop-color="#f4aaa7"/></linearGradient><clipPath id="clip-path-11"><path class="cls-1" d="M1182.37,408.1l-15.58.18a.86.86,0,0,0-.76.93l.21,17.88c.07,5.66,3.45,9.73,8.18,9.67a8.76,8.76,0,0,0,9-9.1l-.21-18.67a.86.86,0,0,0-.78-.91h0"/></clipPath><linearGradient id="linear-gradient-4" y1="806.1" y2="806.1" gradientTransform="matrix(-10.12, -28.43, 23.73, -11.98, -17953.15, 10091.1)" xlink:href="#linear-gradient-3"/><clipPath id="clip-path-12"><path class="cls-1" d="M1153.74,391.78a3.93,3.93,0,1,0,.27,0h-.27"/></clipPath><linearGradient id="linear-gradient-5" y1="806.13" y2="806.13" gradientTransform="translate(1157.95 6744.03) rotate(-180) scale(7.87)" xlink:href="#linear-gradient-3"/><clipPath id="clip-path-14"><path class="cls-1" d="M1184.41,389.7a3.94,3.94,0,1,0,.27,0h-.27"/></clipPath><linearGradient id="linear-gradient-6" y1="806.15" y2="806.15" gradientTransform="translate(1180.74 -5954.67) scale(7.87)" xlink:href="#linear-gradient-3"/><clipPath id="clip-path-16"><path class="cls-1" d="M1163,577.46l13.28,103.22L1173.38,702l6.77,65.29,13,2.24,4.29-2.11s8.57-49,8.22-67.84c-.1-5.6-.89-19.16-.89-19.16s11.14-96.17,8.87-122.19c-.16-1.88-1.57-2.68-3.81-2.68-11.79,0-46.78,21.92-46.78,21.92"/></clipPath><linearGradient id="linear-gradient-7" y1="806.15" y2="806.15" gradientTransform="translate(1217.73 42074.52) rotate(180) scale(51.37)" xlink:href="#linear-gradient-2"/><clipPath id="clip-path-17"><path class="cls-1" d="M1130.59,554.78c-7.83,35.85-16.13,125.05-16.13,125.05l3.78,9.21,12.87,80.49,19.63,1.38-.71-74.3-3.57-16.42,23.74-95.14s-29-32.12-37.45-32.12a2,2,0,0,0-2.14,1.83"/></clipPath><linearGradient id="linear-gradient-8" y1="806.14" y2="806.14" gradientTransform="matrix(59.33, 2.4, -2.15, -58, 2846.4, 47413.63)" xlink:href="#linear-gradient-2"/><clipPath id="clip-path-19"><rect class="cls-1" x="1149.8" y="485.23" width="22.14" height="4.28" transform="translate(-10.63 26.14) rotate(-1.28)"/></clipPath><linearGradient id="linear-gradient-9" y1="806.14" x2="1" y2="806.14" gradientTransform="translate(1171.94 18336.96) rotate(180) scale(22.14)" gradientUnits="userSpaceOnUse"><stop offset="0" stop-color="#bcf7e2"/><stop offset="1" stop-color="#a6eee9"/></linearGradient><clipPath id="clip-path-21"><rect class="cls-1" x="184.22" y="258.87" width="40.22" height="7.01"/></clipPath><clipPath id="clip-path-22"><rect class="cls-1" x="185.15" y="269.35" width="40.07" height="7"/></clipPath><clipPath id="clip-path-23"><path class="cls-1" d="M175.45,683.86c-1,20.26,17.6,75.38,18.18,91,.26,7-.58,7-1.4,12.83-.29,2.07-.83,7.06,2.45,9,2.58,1.52,15.07,1.19,14.78-1.63-.32-3.16-2.24-10.92-2.23-16.24,0-10.91-.76-49.06-1.25-66.5-.29-10.18,3-40.63,3-40.63l-31.07-3.56s-2.25,12.06-2.43,15.75"/></clipPath><linearGradient id="linear-gradient-10" y1="806.13" y2="806.13" gradientTransform="matrix(0, -62.84, 62.84, 0, -50461.78, 726.73)" xlink:href="#linear-gradient-3"/><clipPath id="clip-path-25"><path class="cls-1" d="M198.14,431.78c-1.85.51-6.81-.22-6.81-.22,2.54,4.19,16.62,20,23.75,20,6.27,0,20.42-13.86,20.55-14.4a67,67,0,0,0-6.22-3.79c-7.2-3.1-12-4.32-16.66-4.32-4.45,0-8.69,1.12-14.61,2.77"/></clipPath><linearGradient id="linear-gradient-11" y1="806.11" y2="806.11" gradientTransform="matrix(-95.78, 0, 0, -95.78, 228.3, 77650.45)" xlink:href="#linear-gradient-3"/><clipPath id="clip-path-26"><path class="cls-1" d="M221.54,415.86l-16.31.19a.69.69,0,0,0-.68.7l.17,15a7.7,7.7,0,0,0,7.78,7.61l2.31,0a7.7,7.7,0,0,0,7.61-7.78l-.17-15a.69.69,0,0,0-.69-.69h0"/></clipPath><linearGradient id="linear-gradient-12" y1="806.1" y2="806.1" gradientTransform="matrix(-11.32, -23.11, 26.88, -9.83, -21451.8, 8361.2)" xlink:href="#linear-gradient-3"/><clipPath id="clip-path-27"><path class="cls-1" d="M192.67,396.22a3.8,3.8,0,1,0,1.8-.46,3.74,3.74,0,0,0-1.8.46"/></clipPath><linearGradient id="linear-gradient-13" y1="806.17" y2="806.17" gradientTransform="matrix(7.57, 0, 0, 7.57, 190.84, -5702.14)" xlink:href="#linear-gradient-3"/><clipPath id="clip-path-28"><path class="cls-1" d="M231,392.5a3.79,3.79,0,1,0,.29,0H231"/></clipPath><linearGradient id="linear-gradient-14" y1="806.13" y2="806.13" gradientTransform="matrix(-7.57, 0, 0, -7.57, 235.06, 6498.11)" xlink:href="#linear-gradient-3"/><clipPath id="clip-path-30"><path class="cls-1" d="M1318.21,371l1.17,18a14.23,14.23,0,1,0,28.21-3.38l-3-17.36Z"/></clipPath><linearGradient id="linear-gradient-15" y1="806.16" x2="1" y2="806.16" gradientTransform="matrix(0, 34.04, 34.04, 0, -26110.53, 368.29)" gradientUnits="userSpaceOnUse"><stop offset="0" stop-color="#b97663"/><stop offset="1" stop-color="#c2866e"/></linearGradient><clipPath id="clip-path-32"><path class="cls-1" d="M1287.22,400.79c-2.66,3.7.09,47.83.09,47.83l-1.56,85.77,89.66,2.45s2.77-43.19,5.39-80.36c2-28.71-1.68-58-6.3-61-7.23-4.57-23.85-8.89-23.85-8.89s-4.2,6.79-6.56,9.67c-4.73,5.77-20.37,4-24.36-2.27-1.9-3-2.26-8-2.26-8s-27.41,10.8-30.24,14.74"/></clipPath><linearGradient id="linear-gradient-16" y1="806.14" x2="1" y2="806.14" gradientTransform="matrix(95.62, 0, 0, -95.62, 1285.75, 77542.89)" gradientUnits="userSpaceOnUse"><stop offset="0" stop-color="#00d5ae"/><stop offset="1" stop-color="#00d89e"/></linearGradient><clipPath id="clip-path-34"><polygon class="cls-1" points="1278.58 427.71 1291.77 510.89 1350.47 510.89 1337.28 427.71 1278.58 427.71"/></clipPath><linearGradient id="linear-gradient-17" y1="806.14" y2="806.14" gradientTransform="matrix(71.89, 0, 0, -71.89, 1278.58, 58420.52)" xlink:href="#linear-gradient-9"/><clipPath id="clip-path-36"><path class="cls-1" d="M703.86,495.07c-2.68,54.61-14.92,91.71-36.88,109.45H800.09c-22-17.74-34.21-54.84-36.88-109.45Z"/></clipPath><linearGradient id="linear-gradient-18" y1="806.14" y2="806.14" gradientTransform="matrix(0, -109.45, -109.45, 0, 88962.72, 604.51)" xlink:href="#linear-gradient-9"/><clipPath id="clip-path-38"><path class="cls-1" d="M615.14,337c16.36,45.76,37.42,79.38,62.82,100.35,11.65,9.61,26.22,13.81,41,14.15,11.56.27,29.71-6.07,41-16.58,24.06-22.47,43.34-57.2,57.48-103.64,16.15-53,24.71-112,25-187.8L581.31,142c3.61,75.91,15.18,142.8,33.83,195"/></clipPath><linearGradient id="linear-gradient-19" y1="806.14" y2="806.14" gradientTransform="matrix(-261.17, 0, 0, 261.17, 842.48, -210245.3)" xlink:href="#linear-gradient-9"/><clipPath id="clip-path-40"><path class="cls-1" d="M863.95,505c2.7,20.49-3.17,41.46,1.05,62.24.65,3.17-.77,3.88.6,4.76,8,5.13,35.13,25,47.55,23.3a6.59,6.59,0,0,0,3.13-1.49l3.7,1.09s7-13.86,5.41-15.4c-.73-.71-3.88-2.2-4-2.46-.57-1.73-1-4.33-2.65-4.82-28.35-8.48-28.76-14-28.76-14s-4.63-37.85-7.09-46.37c-2.74-9.5-5.14-13.35-11.24-14.69a1.4,1.4,0,0,0-.3,0c-2.35,0-7.83,4.83-7.43,7.83"/></clipPath><linearGradient id="linear-gradient-20" y1="806.13" x2="1" y2="806.13" gradientTransform="translate(-50804.61 579.85) rotate(-90) scale(64.13)" gradientUnits="userSpaceOnUse"><stop offset="0" stop-color="#00d5ae"/><stop offset="1" stop-color="#00d89e"/></linearGradient><clipPath id="clip-path-42"><path class="cls-1" d="M841.26,486.3c-.12.56,3.26,13,9,16,6.52,3.35,20.7,1,25-1.66,0,0-2.09-12-3.54-13.34-9.53-8.67-9.4-7.29-25.16-8.25h0c-1.87,0-5.22,7.26-5.22,7.26"/></clipPath><linearGradient id="linear-gradient-21" y1="806.14" y2="806.14" gradientTransform="matrix(0, 102.5, 102.5, 0, -81774.49, 477.9)" xlink:href="#linear-gradient-3"/><clipPath id="clip-path-43"><path class="cls-1" d="M868.65,455.38l-11.94,26.07c-1.69,4.39,1.6,9.73,6,11.42s6.45,2.37,8.14-2l8-16.35a.77.77,0,0,0-.44-1l-8.79-18.58a.78.78,0,0,0-.27-.05.77.77,0,0,0-.72.49"/></clipPath><linearGradient id="linear-gradient-22" y1="806.17" y2="806.17" gradientTransform="matrix(23.94, -23.7, -26.99, -23.87, 22612.64, 19728.66)" xlink:href="#linear-gradient-3"/><clipPath id="clip-path-45"><path class="cls-1" d="M866,451.94a3.89,3.89,0,1,0,4.55-3.12,3.86,3.86,0,0,0-.73-.07,3.91,3.91,0,0,0-3.82,3.19"/></clipPath><linearGradient id="linear-gradient-23" y1="806.12" y2="806.12" gradientTransform="matrix(0, -7.77, 7.77, 0, -5395.74, 456.71)" xlink:href="#linear-gradient-3"/><clipPath id="clip-path-47"><path class="cls-1" d="M829.93,484.7c-13.37,8.16-13.77,22.63-16,33.68-.89,4.42-5.26,21.66-4.77,39.44.14,5-.73,14.47,3.15,16.52,12.83,6.77,55.55,3.52,60-5.32,2.35-4.69-3.17-22.61-.21-29.46,1.52-3.51,5.33-9.07,7.08-12.48,3.68-7.16.35-18.72-.46-22.89-.74-3.81-5.1-13.72-5.1-13.72l-2.83,2-17.32-14.16s-18.06,3-23.53,6.36"/></clipPath><linearGradient id="linear-gradient-24" y1="806.12" x2="1" y2="806.12" gradientTransform="matrix(0, -70.59, 70.59, 0, -56059.53, 564.59)" gradientUnits="userSpaceOnUse"><stop offset="0" stop-color="#00d5ba"/><stop offset="1" stop-color="#00d89e"/></linearGradient><clipPath id="clip-path-49"><path class="cls-1" d="M814.15,506.82c-2.94,14.43-6.58,37.51-7.7,50.66a9.39,9.39,0,0,0,.23,3.7c6.88,14,26.43,24.08,48.29,34.51a6.47,6.47,0,0,0,3.95,0s2.22,1.56,2.9,1.49c4-.41,11.07-11.3,10.37-15.28-.21-1.18-3.68-3.15-3.78-3.41-.63-1.71-1.11-3.43-2.65-4.14-23.41-10.65-33-22.91-33-22.91s8.26-31.38,7.42-44c-.66-9.87-3.25-20.74-12.26-21.09h-.23c-7.59,0-12.5,15.12-13.58,20.44"/></clipPath><linearGradient id="linear-gradient-25" y1="806.14" x2="1" y2="806.14" gradientTransform="translate(829.79 53649.12) rotate(-179.95) scale(65.88)" gradientUnits="userSpaceOnUse"><stop offset="0" stop-color="#00d5ae"/><stop offset="1" stop-color="#00d5ad"/></linearGradient><clipPath id="clip-path-51"><path class="cls-1" d="M464.59,505.49s-6.9,11.12-13.67,24.36c-3.74,7.32-9.16,18.2-10.73,24.77-.76,3.2,2.25,6.14,5.62,6.33,0,0,22.54,0,23.66-2l21.16-37.47a5.76,5.76,0,0,0-2-7.7l-15.72-10.06a6.08,6.08,0,0,0-8.34,1.76"/></clipPath><linearGradient id="linear-gradient-26" y1="806.16" y2="806.16" gradientTransform="matrix(63.81, 0, 0, -63.81, 429.92, 51969.98)" xlink:href="#linear-gradient-3"/><clipPath id="clip-path-53"><path class="cls-1" d="M490.41,461.53c-3.28,4.57-1.71,20.9-.74,30.94.46,4.77,1.58,66.5,3.55,75.69,2.6,12.17,87.93,7.56,90.57,4.26,4.51-5.64,16.86-95,8-107.66-4.85-6.92-29.07-13.08-29.07-13.08s-5.19,8.38-8.1,11.94c-5.83,7.12-25.13,4.95-30.06-2.8-2.34-3.67-2.78-9.86-2.78-9.86s-27.85,5.72-31.34,10.58"/></clipPath><linearGradient id="linear-gradient-27" y1="806.11" x2="1" y2="806.11" gradientTransform="matrix(141.07, 0, 0, -141.07, 471.84, 114236.02)" gradientUnits="userSpaceOnUse"><stop offset="0" stop-color="#00bec5"/><stop offset="1" stop-color="#00d89e"/></linearGradient><clipPath id="clip-path-55"><polygon class="cls-1" points="536.51 506.62 522.09 506.18 480.95 501.49 484.03 557.35 522.75 563.45 522.87 565.46 533.79 565.46 533.79 564.04 572.08 557.35 579.07 501.1 536.51 506.62"/></clipPath><linearGradient id="linear-gradient-28" y1="806.14" x2="1" y2="806.14" gradientTransform="matrix(0, 64.36, 64.36, 0, -51355.06, 501.1)" gradientUnits="userSpaceOnUse"><stop offset="0" stop-color="#94edcb"/><stop offset="1" stop-color="#8ceae7"/></linearGradient><clipPath id="clip-path-56"><path class="cls-1" d="M513.73,431.08c0,2.52,3,4.51,5.88,4.51s3.6-1.95,3.6-4.46-2.32-4.56-5.17-4.56-4.31,2-4.31,4.51"/></clipPath><linearGradient id="linear-gradient-29" y1="806.14" y2="806.14" gradientTransform="matrix(-9.48, 0, 0, 9.48, 523.21, -7211.55)" xlink:href="#linear-gradient-3"/><clipPath id="clip-path-58"><path class="cls-1" d="M559.27,427.59c-.47.1-1.93,8.94-.48,9,2.85.12,5.65-2.45,5.55-5a4.2,4.2,0,0,0-4.14-4.13,4.59,4.59,0,0,0-.92.1"/></clipPath><linearGradient id="linear-gradient-30" y1="806.13" y2="806.13" gradientTransform="matrix(6.26, 0, 0, -6.26, 558.09, 5478.66)" xlink:href="#linear-gradient-3"/><clipPath id="clip-path-60"><path class="cls-1" d="M603.75,499.13l-15.37,3.33c-2.91,1.07-3.84,6-2.94,8.89l11.46,44.48c.66,2.17,22.67,7,22.67,7,3.33.54,6.9-1.68,6.85-5a187.57,187.57,0,0,0-2.9-26.68,78.18,78.18,0,0,0-12-28.55,6.08,6.08,0,0,0-7.77-3.52"/></clipPath><linearGradient id="linear-gradient-31" y1="806.13" y2="806.13" gradientTransform="translate(-53950.21 566.27) rotate(-90) scale(67.68)" xlink:href="#linear-gradient-3"/></defs><title>Vector Smart Object</title><g class="cls-2"><rect class="cls-3" y="793.55" width="1424.46" height="12.6"/><g class="cls-4"><path class="cls-5" d="M1161.07,731.68a2.37,2.37,0,0,0,1.06-3.18h0a2.37,2.37,0,0,0-3.18-1.06c-.31.15-31.74,14.18-83.46,28.39-47.77,13.12-123,29.22-211,24.59-36.62-1.92-68.59-7.93-96.22-16.55l6,15.88c24.41,6.37,52.85,10.86,86.67,12.64,88.63,4.66,171.46-14.25,219.57-27.46,52.16-14.33,80.24-33.08,80.56-33.24"/><path class="cls-5" d="M965.44,787.5c18.69-14.14,106.48-38.22,161.21-25.57,25.83,6,63.65,5.12,63.65,5.12s-57.93,28.68-109.34,26.36c-50.9-2.29-115.51-5.91-115.51-5.91"/><path class="cls-5" d="M1104.48,752.38c28.91-22.75,44-56.76,78.86-61.73a229.91,229.91,0,0,0,46.25-11.52s-15.12,41.43-36.33,54.2c-49.14,29.6-88.77,19-88.77,19"/><path class="cls-5" d="M1167.43,663.81C1126.18,738,1076,769.08,990.13,780.47c0,0,16.82-2.57,36.29-31,14.77-21.58,37.9-61.76,59.63-71.52,40.32-18.11,81.38-14.1,81.38-14.1"/><path class="cls-5" d="M872.26,785.86c51.69-17.74,45.53-66.14,86.08-84.92a537.51,537.51,0,0,0,99.24-60.42s1.4,52.19-21.86,85.23c-55.53,78.9-163.47,60.11-163.47,60.11"/><path class="cls-5" d="M239.44,735.42s24.69-4.24,88.64-24c89.36-27.67,153.81,81,153.81,81s-88.79,9.35-149.48-5.36c-54-13.08-93-51.62-93-51.62"/><path class="cls-6" d="M348.07,637.37s19.48,17.42,89.42,59c78.65,46.76,146.56,92.32,146.56,92.32s-166.31,24.19-216.49-35.47c-30.4-36.14-19.49-115.86-19.49-115.86"/><path class="cls-7" d="M501.36,680h538.45a11.56,11.56,0,0,0,11.56-11.56V643.47a11.56,11.56,0,0,0-11.56-11.56H501.36Z"/><path class="cls-5" d="M501.36,676.17H856.91a12.78,12.78,0,0,0,12.78-12.78V648.51a12.78,12.78,0,0,0-12.78-12.78H501.36Z"/><path class="cls-6" d="M501.36,648.83H869.69v-.35a12.75,12.75,0,0,0-12.75-12.75H501.36Z"/><rect class="cls-8" x="476.91" y="728.48" width="538.97" height="65.06"/><rect class="cls-5" x="476.91" y="737.99" width="538.97" height="46.04"/><rect class="cls-6" x="476.91" y="737.99" width="538.97" height="12.1"/></g><g class="cls-9"><rect class="cls-10" x="412.95" y="680.03" width="539.4" height="48.4"/></g><g class="cls-4"><rect class="cls-5" x="412.95" y="686.22" width="539.4" height="36.02"/><rect class="cls-6" x="412.95" y="686.22" width="539.4" height="9.47"/><g class="cls-11"><g class="cls-12"><path class="cls-6" d="M453.46,59.94c4.36-34.39,61.89-42.73,79.19-24C551.8-13.9,652-14.7,662.38,51.21c31.65-3.3,72.75,16.71,72.72,60.65H368.5c-.68-41.54,57.39-55,85-51.91"/></g></g><g class="cls-11"><g class="cls-13"><path class="cls-14" d="M151.85,214.52c7.48-24.56,28.63-29.46,58.08-23.59,36.5-39.06,110.15-35.58,123.91,17C360,205.5,380.12,232.8,365.9,256H103.58c-1.24-28.12,25.18-43.8,48.27-41.49"/></g></g><g class="cls-11"><g class="cls-15"><path class="cls-6" d="M1250.12,243.45c-4.5-24.7-23.89-39.94-62.42-33.52-47.78-45.67-107.21-24.47-113.24,32.71C1019.65,237,1002,258.9,1002,279.8h306c-1.89-25.11-29.42-38.57-57.85-36.35"/></g></g><path class="cls-5" d="M406.83,350.87a2,2,0,0,1-2-2v-6.22a16.36,16.36,0,0,1-10.67-14.94,16,16,0,0,1,16.14-15.82h8.43a16.08,16.08,0,0,1,0,32.15h-3.3l-7.29,6.35a2,2,0,0,1-1.31.49m3.47-35a12,12,0,0,0-12.14,11.82c0,6,4.72,10.42,9.16,11.52a2,2,0,0,1,1.52,1.94v3.3l4.54-4a2,2,0,0,1,1.31-.49h4a12.08,12.08,0,0,0,0-24.15Z"/><path class="cls-5" d="M414.42,335.51a2,2,0,0,1-2-2v-5.33a2,2,0,0,1,4,0v5.33a2,2,0,0,1-2,2"/><path class="cls-5" d="M414.42,325.29a2.74,2.74,0,1,1,2.75-2.74,2.75,2.75,0,0,1-2.75,2.74m0-4a1.26,1.26,0,1,0,1.25,1.26,1.25,1.25,0,0,0-1.25-1.26"/><path class="cls-5" d="M54.44,507a2,2,0,0,0-1.71-1.55l-2.82-.34c-.18-.28-.37-.55-.57-.81L50,501.5a2,2,0,0,0-.88-2.13l-3.42-2.17a2,2,0,0,0-2.3.12l-2.24,1.76q-.49-.1-1-.17l-1.52-2.4a2,2,0,0,0-2.13-.88l-4,.89A2,2,0,0,0,31,498.22L30.65,501q-.42.27-.81.57L27.07,501a2,2,0,0,0-2.13.88l-2.17,3.43a2,2,0,0,0,.12,2.3l1.75,2.24q-.1.49-.17,1l-2.4,1.52a2,2,0,0,0-.88,2.13l.89,4A2,2,0,0,0,23.79,520l2.82.34c.18.28.37.55.57.81l-.62,2.77a2,2,0,0,0,.88,2.13l3.42,2.17a2,2,0,0,0,2.3-.12l2.24-1.75c.33.07.65.13,1,.17l1.52,2.4a2,2,0,0,0,1.69.93,2.06,2.06,0,0,0,.44,0l4-.89a2,2,0,0,0,1.55-1.71l.34-2.82q.42-.27.81-.57l2.77.63a2,2,0,0,0,2.13-.88l2.17-3.43a2,2,0,0,0-.12-2.3l-1.75-2.23c.07-.32.13-.65.17-1l2.4-1.52a2,2,0,0,0,.88-2.13Zm-5.36,4.74a2,2,0,0,0-.93,1.58,9.75,9.75,0,0,1-.38,2.17,2,2,0,0,0,.35,1.8l1.49,1.9-.66,1-2.35-.53a2,2,0,0,0-1.77.46,9.77,9.77,0,0,1-1.8,1.27,2,2,0,0,0-1,1.51l-.29,2.39-1.2.27-1.28-2a2,2,0,0,0-1.58-.93,9.67,9.67,0,0,1-2.17-.37,2,2,0,0,0-.56-.08,2,2,0,0,0-1.23.43L31.81,524l-1-.66L31.3,521a2,2,0,0,0-.46-1.77,9.92,9.92,0,0,1-1.27-1.8,2,2,0,0,0-1.51-1l-2.39-.29L25.4,515l2-1.29a2,2,0,0,0,.93-1.57,10,10,0,0,1,.38-2.18,2,2,0,0,0-.35-1.79l-1.49-1.89.66-1,2.35.53a2,2,0,0,0,1.77-.46,9.74,9.74,0,0,1,1.8-1.27,2,2,0,0,0,1-1.52l.29-2.39,1.2-.27,1.29,2a2,2,0,0,0,1.58.93,9.89,9.89,0,0,1,2.17.38,2,2,0,0,0,1.79-.35l1.9-1.49,1,.66-.53,2.35a2,2,0,0,0,.46,1.77,9.83,9.83,0,0,1,1.27,1.8,2,2,0,0,0,1.51,1l2.39.29.27,1.2Z"/><path class="cls-5" d="M41.62,507.37A6.29,6.29,0,1,0,38.25,519a6.34,6.34,0,0,0,1.4-.16,6.29,6.29,0,0,0,2-11.46m-1.42,6.54a2.27,2.27,0,0,1-1.43,1h0a2.29,2.29,0,1,1-1-4.47,2.31,2.31,0,0,1,.51-.06,2.29,2.29,0,0,1,1.93,3.52"/><path class="cls-5" d="M64.4,496.55l-.6-3.15a2,2,0,0,0-1.66-1.6l-2-.31-.23-.36.52-2a2,2,0,0,0-.81-2.16l-2.65-1.8a2,2,0,0,0-2.31,0L53,486.43l-.42-.09-1-1.78a2,2,0,0,0-2.1-1l-3.15.6a2,2,0,0,0-1.6,1.66l-.31,2-.36.24-2-.52a2,2,0,0,0-2.16.81L38,491.09a2,2,0,0,0,0,2.31l1.79,2.44a2,2,0,1,0,3.23-2.36l-1-1.3.22-.32,1.56.41a2,2,0,0,0,1.78-.4,7.25,7.25,0,0,1,1.38-.91,2,2,0,0,0,1.08-1.48l.25-1.6.38-.07.82,1.39a2,2,0,0,0,1.54,1,7.34,7.34,0,0,1,1.62.34,2,2,0,0,0,1.8-.29l1.3-1,.32.22-.41,1.56a2,2,0,0,0,.4,1.79,7.38,7.38,0,0,1,.91,1.38,2,2,0,0,0,1.48,1.07l1.59.24.07.38-1.39.82a2,2,0,0,0-1,1.54,7.26,7.26,0,0,1-.34,1.61,2,2,0,0,0,.29,1.81l.74,1-2.1-.58A2,2,0,0,0,55.35,506l3.56,1a2,2,0,0,0,2.07-.65l1.74-2.08a2,2,0,0,0,.08-2.46l-1.22-1.66c0-.14.06-.28.09-.42l1.78-1a2,2,0,0,0,1-2.1"/><path class="cls-5" d="M1045.85,74.88a2,2,0,0,1-2-2v-36a2,2,0,1,1,4,0v36a2,2,0,0,1-2,2"/><path class="cls-5" d="M1081.89,74.88h-36a2,2,0,0,1,0-4h36a2,2,0,0,1,0,4"/><path class="cls-5" d="M1045.85,74.88a2,2,0,0,1-1.48-3.35L1062.21,52a2,2,0,0,1,3.43.93l1,4.9L1080,43.35a2,2,0,0,1,2.94,2.71l-16,17.36a2,2,0,0,1-3.43-.94l-1-4.89-15.21,16.64a2,2,0,0,1-1.48.65"/><path class="cls-5" d="M1081.89,53.21a2,2,0,0,1-2-1.88l-.27-4.62h-4.88a2,2,0,0,1,0-4h6.77a2,2,0,0,1,2,1.88l.38,6.5A2,2,0,0,1,1082,53.2h-.12"/><path class="cls-5" d="M1057.91,38.84h-5.67a2,2,0,0,1,0-4h5.67a2,2,0,0,1,0,4"/><path class="cls-5" d="M1057.91,46.91h-5.67a2,2,0,0,1,0-4h5.67a2,2,0,0,1,0,4"/><path class="cls-5" d="M59.15,130.43a13.42,13.42,0,1,1,10.46.7,13.38,13.38,0,0,1-10.46-.7M69.43,110a9.42,9.42,0,1,0,4.66,5.31A9.4,9.4,0,0,0,69.43,110"/><path class="cls-5" d="M62.59,115.36a2,2,0,0,1,.24-3.67,7.15,7.15,0,0,1,9.11,4.4,2,2,0,0,1-3.78,1.32,3.21,3.21,0,0,0-1.61-1.8,3.13,3.13,0,0,0-2.41-.14,2,2,0,0,1-1.56-.1"/><path class="cls-5" d="M52.12,145.22l0,0a5,5,0,0,1-2.58-3.89,8,8,0,0,1,.89-4.73l.09-.15,6.16-9.72A2,2,0,1,1,60,128.85l-6.11,9.64a4,4,0,0,0-.44,2.27,1.17,1.17,0,0,0,.45.89h0a1.17,1.17,0,0,0,1-.15,4,4,0,0,0,1.58-1.66l4.08-10.65a2,2,0,1,1,3.73,1.43l-4.13,10.76a2,2,0,0,1-.09.2A8,8,0,0,1,56.75,145a5,5,0,0,1-4.63.18"/><path class="cls-5" d="M54.62,135.72a2,2,0,0,1,1.77-3.59l3.68,1.78a2,2,0,0,1,.93,2.67,2,2,0,0,1-2.67.93l-3.68-1.78,0,0"/><path class="cls-5" d="M1019.77,442.81h-7a2,2,0,0,1-2-1.9c-.06-1-.58-4.11-2.27-5.62a10.89,10.89,0,1,1,18.41-8.8c.55,4.71-2.5,8.18-3.46,9.15l0,0c-1.42,1.49-1.71,4.2-1.69,5.12a2,2,0,0,1-2,2m-5.22-4h3.37a10.94,10.94,0,0,1,2.65-5.91h0l.08-.08A7.57,7.57,0,0,0,1023,427a6.9,6.9,0,0,0-7-6.41,6.78,6.78,0,0,0-6.84,6.71,6.88,6.88,0,0,0,2.09,5,11.78,11.78,0,0,1,3.35,6.5"/><path class="cls-5" d="M1017.61,448H1015a2,2,0,0,1,0-4h2.65a2,2,0,0,1,0,4"/><path class="cls-5" d="M1016.34,436.64a2,2,0,0,1-2-2V430.8a2,2,0,1,1,4,0v3.83a2,2,0,0,1-2,2"/><path class="cls-5" d="M1016.23,428.22a3.11,3.11,0,1,1,3.13-3.11,3.12,3.12,0,0,1-3.12,3.11m0-4a.89.89,0,1,0,.88.89.89.89,0,0,0-.88-.89"/><path class="cls-5" d="M1006.76,418.24a2,2,0,0,1-1.4-.57l-2.77-2.73a2,2,0,1,1,2.81-2.85l2.76,2.72a2,2,0,0,1-1.4,3.42"/><path class="cls-5" d="M1025.83,419.07a2,2,0,0,1-1.4-3.42l2.76-2.72a2,2,0,1,1,2.81,2.85l-2.77,2.73a2,2,0,0,1-1.4.57"/><path class="cls-5" d="M1030.4,425.56a2,2,0,0,1-.2-4l3.86-.39a2,2,0,1,1,.41,4l-3.86.39h-.2"/><path class="cls-5" d="M1002,425.56h-.21l-3.86-.39a2,2,0,1,1,.41-4l3.86.39a2,2,0,0,1-.2,4"/><path class="cls-5" d="M1016.34,415a2,2,0,0,1-2-2v-4a2,2,0,0,1,4,0v4a2,2,0,0,1-2,2"/><path class="cls-5" d="M1397.16,152.25h-17.73a4.45,4.45,0,0,0-4.46,4.43v30.88a4.45,4.45,0,0,0,4.46,4.43h17.73a4.45,4.45,0,0,0,4.47-4.43V156.68a4.45,4.45,0,0,0-4.47-4.43m-17.73,4h17.73a.47.47,0,0,1,.49.45V158h-18.7v-1.32a.47.47,0,0,1,.49-.45m18.22,26h-18.7V162h18.7Zm-.49,5.75h-17.73a.47.47,0,0,1-.49-.45v-1.32h18.7v1.32a.47.47,0,0,1-.49.45"/><path class="cls-5" d="M1383.94,177.76a6.69,6.69,0,0,0,3.28,1,4.1,4.1,0,0,0,3-1.21l.1-.12c.55-.71,3.3-4.42,3.3-7.19,0-2.49-2.44-4.1-2.93-4.39a2,2,0,1,0-2.06,3.4,3.2,3.2,0,0,1,1,1c0,.91-1.21,3.1-2.38,4.65a6,6,0,0,1-1.41-.55,2,2,0,1,0-2,3.46"/><path class="cls-16" d="M1146.9,433c-4.89-.68-11.22,13.1-13.7,25.75-4.58,23.31-8.65,37.42-8.6,56.73,0,4.3,8,36.22,8,36.22l10.14-8.23-2.42-29.23s7.29-43.86,7.35-52.2c0-6.51,5.59-28.16-.76-29"/><polygon class="cls-17" points="1156.18 516.17 1193.29 518.57 1190.24 439.88 1154.99 441.25 1156.18 516.17"/><path class="cls-18" d="M1211.28,564.28s-.79,27.32-1.61,37.69c-.76,9.53-3.52,28.46-5.07,37.89-1.46,8.91-4.39,35.85-4.15,40.31.35,6.65,3.28,19.5,2.72,28.57-2.54,41-8.41,62.87-8.41,62.87a103.27,103.27,0,0,0,6.79,11.23c1.53,2.14,1,3.77,3.56,6.64,1,1.08-4.3,3-6.57,3-3.92,0-12-3.8-16.07-9.14-2-2.63-.39-7.15-1-13.09-1.5-15.14-2.77-44.42-4.36-62.94-.79-9.19,1.63-22.87.43-31.65-.17-1.27-3.4-23.84-3.58-25.09-1.5-10.06-3.15-48.6-3.15-48.6Z"/><path class="cls-18" d="M1133.94,577.46s-17.27,89-17,100.9c.17,6.66,2.61,5,3.88,14,5.71,40.69,14.06,81,14.06,81s-10.55,7.62-16.44,12.18c-4,3.06-9.74,3.58-8.6,6.69.51,1.37,23.26-2.81,25.52-3,3.91-.34,11.05-.06,12.45-4,.84-2.35-.7-7.52-.57-13.49.32-15.21,1.35-51.26,0-67-.8-9.19-3.65-15.61-4.69-20.06-2.68-11.5,25.75-91.55,25.75-91.55Z"/><path class="cls-16" d="M1209.91,795.58c-2,.27-5.46.49-5.46.49-1.69.17-5.55.07-6.9-1l-6.87-4.94a10.46,10.46,0,0,0-4.06-1.77l-1.44-.29a5.08,5.08,0,0,1-3.81-3.34c-.73-3,.26-8.14.26-8.14s11.15,12.12,19.32,10.33c3.52-.77-1.18-6.79-1.18-6.79a43.43,43.43,0,0,0,10.14,10.45c.84.62,2.18,1.64,2.32,2.67.11.81-.25,2-2.31,2.3"/><path class="cls-16" d="M1148.77,782l-1-4.65a86.23,86.23,0,0,1-19.79,7.43c-3.68.93-8.64.4-9.49.76l-8.22,3.47a6.45,6.45,0,0,0-2.9,2.43,1.62,1.62,0,0,0,1.38,2.47l15.93.17a5.19,5.19,0,0,0,2-.39l9.57-3.93.53,3.85,10.77-.42,1.46-5.82a15,15,0,0,0-.23-5.37"/></g><g class="cls-19"><rect class="cls-20" x="1125.17" y="513.29" width="90.62" height="72.78" transform="translate(-20.45 45.83) rotate(-2.22)"/></g><g class="cls-4"><path class="cls-21" d="M1189,366.68c17.07,21.54,14.28,51.37,9.76,57.14-6,7.71-37.94,2.76-51.34,4.65-2.56.36-11.29-27.8-.65-55.89,5.14-13.57,31.93-18.88,42.23-5.9"/></g><g class="cls-22"><rect class="cls-23" x="1152.93" y="413.83" width="42.43" height="51" transform="translate(232.2 1266.58) rotate(-61.81)"/></g><g class="cls-24"><polygon class="cls-25" points="1192.11 432.46 1180.78 400.65 1157.35 412.48 1168.67 444.29 1192.11 432.46"/></g><g class="cls-26"><rect class="cls-27" x="1149.66" y="391.5" width="8.69" height="8.63" transform="matrix(1, -0.07, 0.07, 1, -24.4, 79.98)"/></g><g class="cls-4"><path class="cls-18" d="M1167,370.82h0a16.25,16.25,0,0,1,17.11,15.34l1,15c.62,9.08-8.42,17.08-16.78,17.67-9.26.65-14.57-6.4-15.19-15.47l-1-15A16.25,16.25,0,0,1,1167,370.82"/><path class="cls-21" d="M1155,365.54c3.94-3.53,14.43-6.94,24.63.73,10.43,7.85,6.52,24.18,4.72,23-5.93-3.83-5.3-9.85-10.63-9.7-4.29.12-10.47,12-24.58,14.93-1.1.23-3.29-7.55-2.89-11.37,1.14-11,5.52-14.73,8.74-17.62"/><path class="cls-28" d="M1167.29,392.56l.09,1.28a4.8,4.8,0,0,0,4.94,4.62l1.2-.08a6,6,0,0,0,5.38-6.61,2.53,2.53,0,0,0-2.6-2.44l-6.75.45a2.53,2.53,0,0,0-2.25,2.77m.81-.05a1.68,1.68,0,0,1,1.5-1.84l6.74-.45a1.68,1.68,0,0,1,1.74,1.63,5.19,5.19,0,0,1-4.63,5.68l-1.2.08a4,4,0,0,1-4.07-3.81Z"/><path class="cls-28" d="M1159.88,390.44l-6.74.45a2.53,2.53,0,0,0-2.25,2.77,6,6,0,0,0,6.22,5.82l1.2-.08a4.79,4.79,0,0,0,4.27-5.24l-.09-1.28a2.53,2.53,0,0,0-2.61-2.44m1.88,3.77a4,4,0,0,1-3.52,4.32l-1.2.08a5.2,5.2,0,0,1-5.35-5,1.68,1.68,0,0,1,1.5-1.84l6.75-.45a1.69,1.69,0,0,1,1.74,1.63Z"/><path class="cls-28" d="M1163,392.84a3.05,3.05,0,0,1,3.83-.29.41.41,0,0,1,.11.54.35.35,0,0,1-.5.12,2.36,2.36,0,0,0-3,.23.35.35,0,0,1-.21.1.36.36,0,0,1-.3-.13.41.41,0,0,1,0-.55"/></g><g class="cls-29"><rect class="cls-30" x="1180.34" y="389.43" width="8.68" height="8.62" transform="translate(-23.88 80.86) rotate(-3.87)"/></g><g class="cls-4"><path class="cls-31" d="M1184.35,427.78s-17.49,39.16-18.82,51.45c-1.85,17.13-2,60.88-2,60.88l47.36-2.62-4.08-42.58s8.85-45.77-2.21-57.12c-3.94-4-20.21-10-20.21-10"/><path class="cls-31" d="M1165.75,427.31s-9.32,34.95-9.65,52.94c-.3,16.41.16,59.85.16,59.85l-20.84-3.78s.84-20.78,1.84-40.86c1.47-29.61.81-49.13,10.4-61.7,3.07-4,18.09-6.46,18.09-6.46"/></g><g class="cls-32"><rect class="cls-33" x="1158.91" y="554.6" width="61.12" height="215.87" transform="translate(-24.81 46.65) rotate(-2.22)"/></g><g class="cls-34"><polygon class="cls-35" points="1106.28 550.36 1170.18 552.95 1178.35 773.5 1114.46 770.91 1106.28 550.36"/></g><g class="cls-4"><polygon class="cls-36" points="1170.36 486.43 1168.54 482.3 1152.99 482.64 1151.36 486.75 1170.36 486.43"/><path class="cls-37" d="M1151.15,489.2l.41,3.1,2.45,18.54a1.82,1.82,0,0,0,1.84,1.58l11.1-.24a1.82,1.82,0,0,0,1.77-1.66l1.94-21.93Z"/></g><g class="cls-38"><rect class="cls-39" x="1149.71" y="484.74" width="22.33" height="5.25" transform="translate(-10.44 25.66) rotate(-1.26)"/></g><g class="cls-4"><path class="cls-18" d="M1168.08,508.57c2.32.78,10-.44,15.09-1.16l1.18-6.84s-5.32-.77-6-1c-4.56-1.18-10.16-4.43-14.66-5.83-2.25-.7-11.47,1.27-11.47,1.27a6.12,6.12,0,0,0,1.5,1.64c1.61.91,7.92,0,7.92,0l-5.75,3.95-2.77,4.1a2.39,2.39,0,0,0,1.8.67c1.15,0,3.08-2.73,3.08-2.73l3.48-.51-6,7a9.13,9.13,0,0,0,2.17,1.36,9.74,9.74,0,0,0,2.69-.51s.71.78.93.83c2.21.5,5.26-2.77,6.83-2.24"/><path class="cls-16" d="M1205.22,437.6c6-1,11.62,12.79,14.57,24,5.45,20.67,8.89,30.58,9.77,52.55.38,9.32-3.85,10.37-6.73,9.7-19.55-4.52-45.86-13-45.86-13l.47-12.52,30.32,2.65s-4.53-6.51-6.2-39.26c-.47-9.16.3-23.57,3.65-24.13"/><polygon class="cls-16" points="1183.62 793.29 1190.68 793.29 1190.68 785.68 1181.98 785.68 1183.62 793.29"/><rect class="cls-5" x="175.08" y="234.82" width="59.04" height="72.67" transform="matrix(1, -0.08, 0.08, 1, -22.09, 18.18)"/><path class="cls-21" d="M193.71,290.26l-6.51-8.72L198,283l-2.44,1.82,8.3,4.87a2.87,2.87,0,0,1,2-.27l3-4.08A3,3,0,1,1,214.7,284l10.17,5.78a1.43,1.43,0,0,1-1.41,2.48l-9.66-5.49a3,3,0,0,1-3,.65L208,291.23a3,3,0,0,1,.2.82,3,3,0,1,1-6,0l-8.16-4.78Z"/><rect class="cls-6" x="172.31" y="234.94" width="59.1" height="8.17" transform="translate(-19.4 17.83) rotate(-4.83)"/><path class="cls-40" d="M183,255.61a2,2,0,0,1-.16-4l3-.25a2,2,0,1,1,.33,4l-3,.25H183m11.86-1a2,2,0,0,1-.16-4l8.83-.73a2,2,0,1,1,.33,4l-8.83.73h-.17m17.67-1.47a2,2,0,0,1-.16-4l8.83-.73a2,2,0,1,1,.33,4l-8.83.73h-.17"/><g class="cls-41"><g class="cls-42"><path class="cls-43" d="M222.44,260.87l-36.22,3Z"/><path class="cls-40" d="M186.21,265.88a2,2,0,0,1-.16-4l36.22-3a2,2,0,1,1,.33,4l-36.22,3h-.17"/></g></g><g class="cls-41"><g class="cls-44"><path class="cls-43" d="M223.23,271.35l-36.07,3Z"/><path class="cls-40" d="M187.15,276.35a2,2,0,0,1-.16-4l36.07-3a2,2,0,0,1,.33,4l-36.07,3h-.17"/></g></g></g><g class="cls-45"><rect class="cls-46" x="173.8" y="667.92" width="36.66" height="130.45" transform="translate(-7.88 2.11) rotate(-0.62)"/></g><g class="cls-4"><path class="cls-31" d="M209.13,791.42c-1.77,3.86-4.55.56-8.24.71-3.34.13-7.29,3.6-8.85-2.28-1.08,3.83-1.62,5.61,2,8.4a13.3,13.3,0,0,0,7.89,3.07c2.09,0,4.67-1.17,6.91-4.26a4.8,4.8,0,0,0,.31-5.64"/><path class="cls-18" d="M172.28,306.43c.59,4.9-2.62,20.78-2.28,25.71.05.77-2.31,4-2.31,4L178,340.26s4.2-9.47,4.44-9.49a14.11,14.11,0,0,0,3.83-8.52c.12-3-.75-3-1.16-5.94-.24-1.73,4.09-5.3,4-7.68,0-.24-.79-.5,0-2.85.22-.63-.64-2.7-.64-2.7L181.38,307l1.15-4.76s3.24-1.46,3.41-2.65a2.51,2.51,0,0,0-.35-2l-4.76,2.08-5.17,5.18s2.17-6.33,1.53-8.16a6.43,6.43,0,0,0-1.4-1.86s-3.8,9.14-3.5,11.59"/><path class="cls-47" d="M194.47,369.39c-3-8.82,2.94-17.3,10.26-19.53,7-2.13,16.91,5,17.62,14.32.41,5.31-4.72,10.71-10.59,12.55-6.61,2.08-13.6,3.66-17.29-7.34"/><path class="cls-47" d="M228.76,376c4.44,6.59,4.89,17.16.33,23.09-1.18,1.54-23.15,4-24.62,4-13.81.08-13.33-18.56-11.15-23.8,5.34-12.8,26-17.42,35.44-3.33"/></g><g class="cls-48"><rect class="cls-49" x="191.9" y="415.58" width="43.17" height="49.41" transform="translate(-271.74 377.17) rotate(-56.72)"/></g><g class="cls-50"><polygon class="cls-51" points="232.23 435.79 219.74 410.3 194.77 419.43 207.26 444.92 232.23 435.79"/></g><g class="cls-52"><rect class="cls-53" x="188.74" y="394.18" width="11.52" height="11.32" transform="translate(-167.88 142.19) rotate(-28.65)"/></g><g class="cls-54"><rect class="cls-55" x="227.05" y="392.2" width="8.45" height="8.37" transform="translate(-29.76 18.93) rotate(-4.4)"/></g><g class="cls-4"><path class="cls-18" d="M195.34,399.28c.65,12.83,8.08,19.45,16.35,20,.5,0,1.22-.74,2-.8,1-.08,1.78.66,2.4.55,7.93-1.39,15.7-10.31,14-22.46-1.81-13-9.62-23.16-19.23-22.42s-16.24,12-15.57,25.1"/><path class="cls-47" d="M199.45,373.48c3.84-3.43,14.13-6.8,24.18.47,10.29,7.44,8.12,21.46,6.09,21a12.22,12.22,0,0,1-5-5.53c-.31-.73-1.3-3.55-1.3-3.55l2,6.89a10.49,10.49,0,0,1-3.9-4.53,46.36,46.36,0,0,1-1.82-6.33s-16.07,16.68-24.41,15.52c-.8-.11-.75-.94-1.71-4.51-2.46-9.19,2.77-16.66,5.91-19.46"/><path class="cls-47" d="M220.42,368.54c.85-2.37,1.78-4.87,1.48-7.44-.52-4.41-4.09-5.13-7.06-7.39a.52.52,0,0,1,.42-.94c6.15,1.75,11,10.92,5.66,16.08a.31.31,0,0,1-.5-.31"/><path class="cls-47" d="M220.2,369.72c1.56-2.27,3.18-4.93,3.31-7.78.23-5.23-4.38-7.11-8.42-8.78a.25.25,0,0,1,.14-.47c4.26.91,8.22,3.67,8.87,8.23.41,2.86-.78,7.76-3.57,9.14-.21.1-.47-.13-.33-.34"/><path class="cls-47" d="M219.87,380.89c-1.23,9-12.25,15-20.53,16-.49.06-.87-.61-.35-.88,8.15-4.09,17-5.59,20.55-15.18.06-.16.35-.15.33.05"/><path class="cls-18" d="M193.86,664.55s13.86,22,20.78,26.65c19.54,13.09,51,33.71,66.27,48.38,4.08,3.92,11.12,12.86,15.33,16.64,2.07,1.86,3.82,1.85,6.49,1.1a9.71,9.71,0,0,0,6.37-11.23c-1.2-4.43-7.9-8.14-11.22-11.32-1.93-1.84-3-3.81-5.36-5.14-1.27-.73-6.65-2.85-7.9-3.62-11.26-6.91-29.08-45.47-43.19-55.23-5.78-4-22.78-17.6-22.78-17.6Z"/><polygon class="cls-6" points="222.31 433.16 212.71 437.93 200.28 432.27 192.07 502.16 225 507.14 222.31 433.16"/><path class="cls-56" d="M204,503.32l-19.26-1.87s-1.42-14.22-3.33-17.69c-2.85-5.2-4.48-11.54-4.16-21.49.21-6.49,0-26.83,4.4-28.57,8.31-3.3,8.13-4.36,16-2.14l7.2,8.48S193.3,465,198.46,481.19c2.37,7.43,5.59,22.13,5.59,22.13"/><path class="cls-5" d="M212.71,437.93l-10.55-8.29s-6.61.81-5.43,4,7.88,12.58,11.15,11.63c2.22-.65,1.24-2.45,4.84-7.36"/><path class="cls-56" d="M235.37,503.78s11.27,10.16,18.24,29.79c9.91,27.93,15,54.61,15.56,94.54.2,14.79,2.74,33.38,2.74,33.38s-13.16,2.16-40.44,15.27c-8.9,4.28-23.34,3.12-39.4-.93-8-2-12.74.25-17.85-1-9.91-2.35-15.9-9.49-19.46-10.85-4.26-1.62-9.36-.84-11.14-1.6-13-5.54-19.37-12.29-18.51-14.56,11.62-30.53,18.17-95.79,35.8-121.66,4.57-6.71,25.13-25,25.13-25Z"/><path class="cls-56" d="M210.62,503.78h24.75c-.65,0,2-13.4,4.83-16.93,10.23-12.8,3.84-46-.87-50.08-3-2.57-12.54-5.53-12.54-5.53l-9.86,11.13s2.88,31.93-.66,41c-2.95,7.53-5.66,20.43-5.66,20.43"/><path class="cls-5" d="M212.71,437.93l13.62-8.21s4.93,2,3.73,4.91S219.63,446,216.73,445c-2-.7-1-2.34-4-7.09"/><path class="cls-21" d="M235.7,506.36s-14.41.59-21.36.21c-8.47-.46-30.73-2.64-30.73-2.64l.92-4.22s18.16,1.46,27,2.07c7.25.5,23.94.07,23.94.07Z"/><path class="cls-18" d="M293.54,450.31a14.91,14.91,0,0,1,5.2,2.79c3.47,2.79,4.67,5.18,4,7.11-2.93,9-8.52,10.34-11.27,14.45C290,477,285,485,285,485s-7.9-7.15-8.12-7.24,1.58-7.15,2.42-9.17c1.15-2.75,4.95-3.77,6.14-6.51.7-1.6-3.11,1.65-4.23,1.53-.43,0-1.14-1.11-.77-1.56.15-.19.76-1,.76-1a6.59,6.59,0,0,1-.15-2.24c.18-.65,4.42-3,4.42-3l6.39-.63-1.69-.91-1.28,1.2-3.43.34s1.7-4.51,3.43-5a8.48,8.48,0,0,1,4.65-.45"/><polygon class="cls-57" points="287.63 484.03 290.93 479.49 277.88 471.94 274.63 475.74 287.63 484.03"/><polygon class="cls-57" points="178.7 342.94 181.02 336.25 167.02 331.38 165.58 337.46 178.7 342.94"/><path class="cls-56" d="M253.17,447c6.36,8.83,11.86,35.52,11.86,35.52l10.8-10.35,14,11s-9.22,15.53-15.9,20.13c-12.61,8.67-19.1,6.46-21.87,5.52-2.31-.78-3.28-10.28-10.21-24.51-1.76-3.63-3.52-48.15-3.52-48.15s9.8,4,14.77,10.85"/><path class="cls-56" d="M193.76,431.08,173.4,394.95l7.37-56.39-15.72-5a22.62,22.62,0,0,0-3.93,5.48c-9.72,17.37-8.74,48.93-11,56.95-1.19,4.15,2.58,24.52,12,41.84,1.92,3.54,14.07,19,16.1,20.91,6.39,6.1,15.6-27.66,15.6-27.66"/><path class="cls-31" d="M293.91,753.8c3.8,1.91,3.9-2.4,6.88-4.59,2.7-2,7.95-1.73,5.49-7.31,3.23,2.31,4.77,3.37,3.69,7.8a13.29,13.29,0,0,1-4.25,7.33c-1.63,1.3-4.38,2-8.05,1a4.79,4.79,0,0,1-3.76-4.21"/><path class="cls-58" d="M1290.19,443.54s.61-41-.46-42c-1.68-1.64-6.07,1.9-8.1,4.19-5.55,6.29-32.11,63.77-26.25,85.6.9,3.34,10.69,7,10.69,7s14.31-14.22,14.85-15.47c3.64-8.42,8.17-35.66,8.17-35.66a6.43,6.43,0,0,0,1.1-3.62"/><path class="cls-59" d="M1334.19,408c-7.25.3-20.24-11.66-23-16.17,0,0,2.9-3.25,5.9-4.26,17.86-6,16.56-7.43,31.1-1.25,1.72.73,7.28,2.85,7.28,2.85-.12.6-14.95,18.56-21.32,18.83"/></g><g class="cls-60"><rect class="cls-61" x="1318.21" y="368.29" width="30.8" height="34.9"/></g><g class="cls-4"><polygon class="cls-17" points="1369.06 738.29 1365.34 779.85 1352.9 780.38 1351.4 760.67 1355.99 747.46 1369.06 738.29"/><polygon class="cls-47" points="1288.56 531.46 1284.25 560.63 1283.61 589.52 1380.8 589.52 1378.1 566.24 1370.42 528.77 1288.56 531.46"/></g><g class="cls-62"><rect class="cls-63" x="1284.56" y="386.05" width="98.26" height="150.79"/></g><g class="cls-4"><path class="cls-47" d="M1368,769.24s7.82-10.86,9.2-71c.13-5.68-7.08-37.49-16.4-40.49-5-1.6-14,2.46-16.95,6.67-10,14.12,5.81,104.79,5.81,104.79Z"/><polygon class="cls-17" points="1322.15 747.4 1320.71 780.31 1305.53 777.17 1305.32 751.65 1322.15 747.4"/><path class="cls-47" d="M1297.07,663c-2.81,11.64-1.6,42.8-1.6,42.8l8.47,60.87,20.73,1,4.65-79.63s-2.94-22.1-5.76-26.41c-2.67-4.1-24.09-8.57-26.48,1.34"/><path class="cls-16" d="M1301.24,771.52c-21.17,12.28-22.12,5.43-28.4,10.28a6.52,6.52,0,0,0-1.92,3.38c-.31,1.13,1.32,4.82,1.32,4.82l52-1c1-1.63,1.13-6.27.94-7.63-.33-2.3-2.69-10.88-2.69-10.88l-.75,0a2.45,2.45,0,0,0-1.76.81c-4.06,4.5-10.94,1.69-13.62-.41-1-.81.61-2.64-2.26-2.25-.85.11-2.18,2.49-2.88,2.9"/><path class="cls-5" d="M1271.51,788.19s1,1.32,5.45,1.32c37,0,47.29-.53,47.29-.53l-1.14,4.73-49.85-.16Z"/><path class="cls-64" d="M1303.26,774.82a.5.5,0,0,1-.37-.17,11.87,11.87,0,0,0-3.62-2.49.5.5,0,1,1,.39-.92,12.72,12.72,0,0,1,4,2.75.5.5,0,0,1-.37.83"/><path class="cls-64" d="M1300.56,777.67a.5.5,0,0,1-.24-.06,12.28,12.28,0,0,1-3.78-4,.5.5,0,0,1,.86-.51,11.5,11.5,0,0,0,3.39,3.6.5.5,0,0,1-.24.94"/><path class="cls-64" d="M1296.16,779.39a.5.5,0,0,1-.33-.12,8.41,8.41,0,0,1-2.09-4.12.5.5,0,0,1,1-.19,7.51,7.51,0,0,0,1.77,3.56.5.5,0,0,1-.33.88"/><path class="cls-16" d="M1351.34,773.17l-2.64,9.26a16,16,0,0,1-2.79,5.47,4.17,4.17,0,0,0-.81,3.46l1.56,4,24.14.47,1.49-3.14a4.13,4.13,0,0,0,.07-3.41l-.92-2.18c-.54-1.27-2-3.39-2.19-4.75-.33-2.3-1.37-9.21-1.37-9.21l-1.56.33a2.28,2.28,0,0,1-1.89-.45,7.79,7.79,0,0,0-6-1.65,17.68,17.68,0,0,0-4,1.84,2.27,2.27,0,0,1-1.55.25Z"/><path class="cls-5" d="M1345,790.65s1.56,2.24,2.79,2.27c4.17.09,5.51-1.36,11.05-1.36,4.31,0,9.07,1.6,11.42,1.68a8.37,8.37,0,0,0,2.2-.95s-1.63,4.27-2.1,4.65a3.3,3.3,0,0,1-2.32.77c-2.22,0-7.13,0-9.35,0s-5.41.25-9.31,0a3.33,3.33,0,0,1-2.69-1.71c-1.74-3.94-1.69-5.35-1.69-5.35"/><path class="cls-64" d="M1365.34,784.75a.5.5,0,0,1-.27-.08c-5.4-3.5-11.23-.59-11.29-.56a.5.5,0,0,1-.46-.89c.26-.13,6.39-3.21,12.29.61a.5.5,0,0,1-.27.92"/><path class="cls-64" d="M1366.6,781.62a.49.49,0,0,1-.29-.09c-5.64-4.07-13.39-.34-13.47-.3a.5.5,0,1,1-.44-.9c.34-.17,8.36-4,14.49.39a.5.5,0,0,1-.29.9"/><path class="cls-64" d="M1365.34,778.19a.5.5,0,0,1-.27-.08c-5.88-3.72-10.42-.26-10.46-.23a.5.5,0,1,1-.62-.79c.05,0,5.14-3.92,11.61.17a.5.5,0,0,1-.27.92"/><polygon class="cls-47" points="1372.13 675.79 1380.8 589.52 1378.1 566.24 1330 589.52 1338.62 660.15 1336.86 669.98 1344.28 688.03 1372.13 675.79"/><polygon class="cls-47" points="1325.72 670.46 1330 589.52 1283.61 589.52 1293.73 661.49 1291.97 671.32 1299.39 689.38 1325.72 670.46"/><path class="cls-59" d="M1309.58,353.16c-.23-2.24.75-4.14,3.06-4.38a4.14,4.14,0,0,1,4.59,3.63c.23,2.24-.19,4-2.49,4.28s-4.92-1.29-5.16-3.53"/><path class="cls-59" d="M1333.32,380.18c-5.42.65-16.57-4.4-18-12.35l-3.85-22.68c-1.58-8.79,7.66-17,14.16-18l3-.31c9.23-1,17.3,5.82,17.56,14.75l.89,23c.24,8.07-8.56,15-13.72,15.64"/><path class="cls-59" d="M1350.44,349.41a4.6,4.6,0,0,1-4,4.89c-1.18.07-.81-7.94-.44-8.07,2.2-.75,4.14.94,4.46,3.17"/><path class="cls-65" d="M1346.69,334.41c-.74-2.35-2.1-6.9-6.82-6.75A10.74,10.74,0,0,0,1335,326a42.06,42.06,0,0,0-15.2,1.13c-5.82,1.9-5.89,6.3-5.89,6.3a5.21,5.21,0,0,0-3.11,4.35c-.43,3.3.74,12.87.74,12.87l1.34,3.61.54-11.87c3,1.94,12.64,3.26,16.66,3,4.66-.32,12.25-3.25,14.89-5.39l1.63,12.72a38.41,38.41,0,0,0,1.56-4.6c.56-3.4-.35-10.23-1.45-13.73"/><path class="cls-58" d="M1368.58,443.79s4.7-47.35,5.92-48.27c1.9-1.45,10.55,8.09,12.6,11.91,5.65,10.52,11.26,35.19,13,46,2.06,13,5.37,37.09,1.39,48.4-1,2.79-6.88,9.62-6.88,9.62l-19-32.93Z"/></g><g class="cls-66"><rect class="cls-67" x="1278.58" y="427.71" width="71.89" height="83.18"/></g><g class="cls-4"><path class="cls-59" d="M1279.1,483.89l10.87-6.2s7.33-3.24,8.9-4.41c1.19-.89,10.48-7.22,10.79-10.56a10.48,10.48,0,0,0-.57-2.08,15.73,15.73,0,0,1,1.1-2.43c.4-.52-1.39-1.74-3.51-1.53-.13,0-1.78.34-3.73.73a35.47,35.47,0,0,1-8,.08,22.71,22.71,0,0,1,6.17-2.42c1.52-.27,5-.35,6-1.73.28-.38,0-2.22-2.5-2.71-2.2-.43-13.88,1.12-21.11,2.73-.89.2-1.72-5.08-1.72-5.08-2.22,0-5.71,3.66-6.78,5.21-2.39,3.48-5,17.9-5,17.9Z"/><path class="cls-58" d="M1288.46,480.57l-18.85-13s-15.67,13.44-15.71,19.75c0,2.77,4,8.46,6.79,10.23,1.86,1.18,6.71,2.14,8.72,1.62,7.09-1.83,19-18.59,19-18.59"/><path class="cls-59" d="M1352.37,487.17l-18-1.77s-6-.91-7.61-2.08c-1.2-.89-10.48-7.22-10.79-10.56a10.41,10.41,0,0,1,.57-2.08,15.62,15.62,0,0,0-1.1-2.43c-.4-.53,1.39-1.75,3.51-1.53.13,0,1.78.34,3.73.73a35.47,35.47,0,0,0,8,.08,33.72,33.72,0,0,0-6.25-2c-1.51-.27-5-.35-6-1.72-.28-.38,0-2.22,2.5-2.71,2.2-.43,14.12,0,21.19,2.27a.7.7,0,0,0,.89-.83l-.66-2.92c4.06.22,4.94,2.8,6.1,4.25,2.63,3.3,13,10.78,13,10.78Z"/><path class="cls-58" d="M1345.42,489.54l15.91-18.26,15.45,7.81,17.79,18.9s1.41,12.15,0,13.44c-1.64,1.51-10.49,2.05-13.78,1-10-3.19-35.38-22.89-35.38-22.89"/><path class="cls-5" d="M1211.76,150.93a8.91,8.91,0,1,1,8.68-6.89,8.92,8.92,0,0,1-8.68,6.89m0-13.82a4.92,4.92,0,1,0,1.12.13,4.93,4.93,0,0,0-1.12-.13"/><path class="cls-5" d="M355.08,509.51a8.91,8.91,0,1,1,8.68-6.89,8.93,8.93,0,0,1-8.68,6.89m0-13.82a4.92,4.92,0,1,0,1.12.13,4.94,4.94,0,0,0-1.12-.13"/><rect class="cls-5" x="836.27" y="490.73" width="5.96" height="4" transform="translate(-68.02 140.61) rotate(-9.21)"/><rect class="cls-5" x="842.01" y="482.64" width="4" height="5.85" transform="translate(-66.77 141.17) rotate(-9.2)"/><rect class="cls-5" x="848.59" y="488.76" width="5.64" height="4" transform="translate(-67.55 142.53) rotate(-9.21)"/><rect class="cls-5" x="844.03" y="494.93" width="4" height="6.18" transform="translate(-68.65 141.44) rotate(-9.19)"/><rect class="cls-5" x="280.9" y="60.03" width="5.96" height="4" transform="translate(-6.27 46.2) rotate(-9.2)"/><rect class="cls-5" x="286.64" y="51.94" width="4" height="5.85" transform="translate(-5.06 46.85) rotate(-9.2)"/><rect class="cls-5" x="293.22" y="58.06" width="5.64" height="4" transform="translate(-5.8 48.13) rotate(-9.21)"/><rect class="cls-5" x="288.66" y="64.23" width="4" height="6.18" transform="translate(-7.02 47.31) rotate(-9.19)"/><path class="cls-5" d="M140.95,731.18l-16.5-2.36,2.3-16.09,16.49,2.36Zm-12-5.76,8.58,1.23,1.17-8.17-8.58-1.23Z"/><path class="cls-68" d="M950.37,91.82H516.7l9.87,30.74a35.56,35.56,0,0,1,35.48,33.92c7.42,156,52.31,274.22,135.24,315.51h70.6C850,430.18,895.6,312.2,904.5,156.14A35.55,35.55,0,0,1,940,122.56h.53Z"/></g><g class="cls-69"><rect class="cls-70" x="666.98" y="495.07" width="133.12" height="109.45"/></g><g class="cls-4"><path class="cls-68" d="M699.07,471.43H768a6,6,0,0,1,6,6v14.7a6,6,0,0,1-6,6H699.07a6,6,0,0,1-6-6v-14.7a6,6,0,0,1,6-6"/><path class="cls-68" d="M657.26,604.51H809.81c4.27,0,8,2.46,9.27,6l7.28,21.26H640.71L648,610.56c1.23-3.59,5-6,9.27-6"/></g><g class="cls-71"><rect class="cls-72" x="581.31" y="142.02" width="261.17" height="309.74"/></g><g class="cls-4"><path class="cls-68" d="M549.41,363.07l0-.79a10.7,10.7,0,0,1,8-10.77c6.68-1.83,14.84-5.94,14.45-15.12-.64-15-18.26-25.94-38.65-38.59-30.34-18.82-68.1-42.25-63-92.54,2.19-21.54,11-37.27,26.06-46.76,24.37-15.3,56-8.81,70.51-4.81l1.54,23.09c-10.59-3.8-42.08-11.14-60.38.39-9.16,5.77-14.33,15.69-15.82,30.32-3.73,36.6,23.67,53.6,52.69,71.6,23.55,14.61,47.9,29.71,49,56.36,1,22.61-15.94,33.3-31,37.4a10.62,10.62,0,0,1-13.39-9.78"/><path class="cls-68" d="M914.92,363.07l0-.79a10.7,10.7,0,0,0-8-10.77c-6.68-1.83-14.84-5.94-14.45-15.12.64-15,18.26-25.94,38.65-38.59,30.34-18.82,68.11-42.25,63-92.54-2.19-21.54-11-37.27-26.06-46.76-24.37-15.3-56-8.81-70.52-4.81l-1.54,23.09c10.59-3.8,42.08-11.14,60.38.39,9.16,5.77,14.33,15.69,15.82,30.32,3.73,36.6-23.67,53.6-52.69,71.6-23.55,14.61-47.9,29.71-49,56.36-1,22.61,15.94,33.3,31,37.4a10.62,10.62,0,0,0,13.39-9.78"/><path class="cls-43" d="M747.54,126.84H577.62a4,4,0,0,1,0-8H747.54a4,4,0,0,1,0,8"/><path class="cls-18" d="M917.38,587c1.07-4.86,5.22-4.13,10.81-4.18s15.11-.75,20.17,1.38c2.53,1.06,6.39,7.89,6.5,8.06l1.54,3.89s-1.77,1.2-2.21.22a13.8,13.8,0,0,0-4.32-5.46l5.93,6.85a3.29,3.29,0,0,1-2.54.85c-1.31-.14-2.58-1.66-3.38-2.41-1.49-1.4-4.31-4.26-4.31-4.26l4.27,9.33a.44.44,0,0,1-.43.61,5.46,5.46,0,0,1-2.3-.63c-.66-.46-4.08-4.31-4.92-6.53-.22-.58-3.12-2-4.42-2.17-1.06-.17-3.71,1.87.12,2.32,1.13.14,3-.22,4.09.87.21.21.82,1,.23,1.4a9.15,9.15,0,0,1-3.57,1.12c-2.08.1-3.91,0-4.67,0-5.27.4-6.93-1.87-8.78-2.68-6.65-2.93-8.4-5.93-7.82-8.59"/></g><g class="cls-73"><rect class="cls-74" x="842.93" y="512.33" width="101.91" height="69.43" transform="translate(318.08 1422.67) rotate(-88.14)"/></g><g class="cls-4"><path class="cls-47" d="M877,427.29c-7.79,4.53-13.17,15.43-9.36,23.33,3.3,6.83,24.59,13.32,26.14,13.78,14.59,4.26,16.95-12.74,15.37-20.64-2.65-13.29-17.62-24.92-32.16-16.47"/></g><g class="cls-75"><rect class="cls-76" x="839.73" y="476.79" width="36.91" height="30.68" transform="translate(-49.95 99.76) rotate(-6.47)"/></g><g class="cls-77"><polygon class="cls-78" points="833.49 476.2 866.34 443.68 900.55 473.93 867.7 506.46 833.49 476.2"/></g><g class="cls-4"><path class="cls-47" d="M868.28,456.29l-1.2-10.09a174.65,174.65,0,0,0-11.62,17.25c-6.81,12.29-8.31,22.81-3,33.5,4.86,9.83,1.23,13.92,1.46,14,0,0,8.12-8.52,7.76-14.84-.93-16.38-.24-19,.39-24.12.88-7.22,6.23-15.67,6.23-15.67"/></g><g class="cls-79"><rect class="cls-80" x="865.02" y="447.92" width="9.62" height="9.83" transform="translate(261.84 1222.26) rotate(-79.19)"/></g><g class="cls-4"><path class="cls-18" d="M901.64,465.21c-4.12,12.73-15.95,18.57-20.69,16-9.89-5.34-14.36-15.09-10.24-27.82s14-19.16,22.65-16.34,12.4,15.42,8.28,28.15"/><path class="cls-47" d="M885.37,430.51c-11.93,1.29-15,17.57-14.81,18.31a3.39,3.39,0,0,0,2.41,2.35c12.19-.35,28.36-5.15,28.36-5.15s7.61,12.2-8,38.43A59.84,59.84,0,0,0,907,461.39c5.79-18.15-4.3-32.75-21.61-30.88"/><path class="cls-18" d="M942.44,711.26l-2.07,47.4-8.08,3.72-7-2.68a186.3,186.3,0,0,0-.5-19.73c-.85-8.13-3.19-27.66-3.19-27.66Z"/><path class="cls-18" d="M906.21,715.77l-4.65,58.41-13.66,3.59s-2.52-25.87-3-33.77c-.29-5-.64-28.94-.64-28.94Z"/><path class="cls-47" d="M869.6,561l-57.76,3.54s-5.61,29.45-7.06,46.31c-.93,10.83,10.11,24.36,58.43,38,6.88,1.95,12.16,6.93,12,10.53-1.71,39.83,5.76,82,5.76,82l18.26,4.33,7.33-3.49s2.39-51.54,6-68c4.83-21.93,2.37-9.42,3.3,2.92,1,12.82,2.63,45.76,2.63,45.76l20.22,1.87,4.71-2.13s5.26-60.7,6.45-81.84c1.5-26.73-72.4-55-72.4-55C873.7,572.81,869.6,561,869.6,561"/></g><g class="cls-81"><rect class="cls-82" x="793.08" y="490.86" width="105.14" height="77.71" transform="translate(288.72 1357.7) rotate(-88.14)"/></g><g class="cls-4"><path class="cls-83" d="M918.92,796.31l-13.73.37a7.24,7.24,0,0,1-5-1.84l-7.88-7-5.74-2.43.09-1.84c-.56-3.29.49-9.17.49-9.17s3.36,2.84,8.19-.65c2.67-1.93,5.25-1.36,8,.44l2.07,4.18L918,791.19a3.45,3.45,0,0,1,1,2.53Z"/><polygon class="cls-84" points="877.74 495.07 873.59 488.85 870.48 492.25 874.52 500.6 877.74 495.07"/><path class="cls-84" d="M870.78,492.5l-4.6,8.84C859.44,496.53,841.5,479,841.5,479l10.83-3Z"/><path class="cls-83" d="M923.7,762.07l1.27-4.71,3.19,1.32a8.49,8.49,0,0,0,8.45-1.14l4.46-3.46,11.22,11.34a8.05,8.05,0,0,0,2.29,1.62l8.26,3.91a6.6,6.6,0,0,1,3.56,4.31.66.66,0,0,1-.67.83l-17.86-.58a5.3,5.3,0,0,1-2.06-.49l-9.62-4.44-.56,2.14-11-.36s-.29-1.36-.47-2.35a23.18,23.18,0,0,0-.87-2.43,15.37,15.37,0,0,1,.48-5.48"/><path class="cls-47" d="M859.77,457.32c-16.88,21-11.41,51.16-11.41,51.16l17.09,1.69s-7.67-19-2.24-44c1.55-7.11,2-15.56-3.44-8.86"/><polygon class="cls-21" points="918.58 633.74 942.97 583.65 994.41 573.96 967.8 619.36 918.58 633.74"/><polygon class="cls-21" points="918.58 633.74 874.6 607.24 927.37 593.08 935.74 598.51 918.58 633.74"/><polygon class="cls-5" points="919.08 632.72 879.24 608.92 879.39 607.56 927.1 594.23 935.31 599.39 919.08 632.72"/><path class="cls-18" d="M899.54,596.48c-.09-.18-2.56-5.13-4.94-6.49-4.76-2.74-15.59-4.49-21-5.12s-14.84-4.91-16.5-.22c-.91,2.57,6.79,11.66,8.9,12.87,2.87,1.65,9.1,2.06,12,3.66a23.4,23.4,0,0,1,5.44,4.16c.43.49,1.34,1.55,2,1.7a3.33,3.33,0,0,0,1.06-.23,11.4,11.4,0,0,0,1.7,2.71,10.67,10.67,0,0,0,2.89.78l-2.38-12.21,3.58,5.24s1.26,4,2.21,4.94a2.16,2.16,0,0,0,2.42.44l-2.38-13.24s4.19,6.14,6.25,6.79a7.14,7.14,0,0,0,2.59,0Z"/></g><g class="cls-85"><rect class="cls-86" x="806.23" y="486.35" width="66.71" height="110.96"/></g><g class="cls-4"><path class="cls-47" d="M855.1,569.5c-15.06-9.35-23-18-23.12-18.1l-.18-.2.07-.26c.08-.31,8.29-31,7.85-43.44-.34-9.72-2.19-16.86-10.11-20.11l.38-.93c8.41,3.45,10.38,10.89,10.73,21,.43,12.08-6.95,40.2-7.81,43.47,1.27,1.34,9,9.24,22.72,17.73Z"/></g><g class="cls-87"><rect class="cls-88" x="427.41" y="494.49" width="76.73" height="74.72" transform="translate(-227.71 669.3) rotate(-60)"/></g><g class="cls-4"><polygon class="cls-89" points="540.61 708.57 534.28 763.6 520.74 761.41 518.82 736.18 524.48 719.89 540.61 708.57"/><path class="cls-90" d="M495,556.54l-9.52,28-31.68,24.79,33.17,37s33.25-21.6,42.42-21.3c18.05.59,19.33,17.54,19.33,17.54l30.52-13a23.32,23.32,0,0,0,14.1-19.5A87.16,87.16,0,0,0,589.77,577l-5.89-19Z"/><path class="cls-18" d="M540.18,475.12c-8.94.34-25-13-28.33-18,0,0,3.57-3.63,7.28-4.75,22-6.68,20.43-8.29,38.38-1.39,2.13.82,9,3.18,9,3.18-.15.67-18.44,20.7-26.3,21"/></g><g class="cls-91"><rect class="cls-92" x="459.49" y="434.14" width="168.81" height="163" transform="translate(-174.61 728.84) rotate(-60)"/></g><g class="cls-4"><path class="cls-93" d="M540.23,748.75s8.71-35.31,10.41-109.47c.16-7-7.79-24.34-19.3-28-6.14-2-17.21,3-20.91,8.23-12.39,17.43,7.17,129.28,7.17,129.28Z"/><path class="cls-17" d="M495.62,459.26c-2.42-1.69-9.37,5.8-11.29,9.24-5.26,9.45-18.32,28.85-24.07,39.73,11.15,5.93,21,13,26.48,24.69,0,0,7.09-15.46,9.84-21.31,3.6-7.64,2.87-49.66-1-52.35"/></g><g class="cls-94"><rect class="cls-95" x="480.95" y="501.1" width="98.11" height="64.36"/></g><g class="cls-96"><rect class="cls-97" x="513.73" y="426.57" width="9.48" height="9.02"/></g><g class="cls-4"><path class="cls-18" d="M538.95,463.1h0c-6.59-1.16-19.3-5.2-20-14.18l-1.84-25.6c-.82-9.93,8.23-18.39,19.67-18.39h3.67c11.45,0,20.49,8.45,19.67,18.39l-1.84,25.6c-.74,9-9,14.18-19.3,14.18"/><path class="cls-98" d="M516.44,429.44l1.19,4.16,6.54-14.93,33.62,1.63,1.75,13.3,2-3.24s2.6-8.73,0-15.82c-1.37-3.75-7.36-8.31-13.18-9.75a57.38,57.38,0,0,0-18.8-.5c-7.39,1.44-8,6.32-8,6.32s-4.38,3-5.24,4.71c-1.69,3.39.13,14.12.13,14.12"/></g><g class="cls-99"><rect class="cls-100" x="557.21" y="427.39" width="7.37" height="9.41" transform="translate(-12.38 16.56) rotate(-1.67)"/></g><g class="cls-4"><path class="cls-98" d="M516.79,423.68s18.58,7.4,25.31,7.91c5.21.4,12.63-.69,16-4.74s2-13.48,2-13.48A74.82,74.82,0,0,1,545.51,415c-3.85,0-16.34-2.79-25.23-1-3.45.68-3.49,9.77-3.49,9.77"/><path class="cls-98" d="M528.45,449.47a20.57,20.57,0,0,0,2.68-1.7,9.4,9.4,0,0,1,6.59-1.72,9.58,9.58,0,0,1,5.31,1.76,21,21,0,0,0,3.21,2.17c2.83,1.33,7.74-1.72,9.08-4,1.89-3.24,3.33-20.32,3.33-20.32l.88,5.22a3.3,3.3,0,0,0,0,.39c.29,2.32,3.19,24.88-6.64,31.87-1.45,1-6.15,2.17-8.1,2.42a60.11,60.11,0,0,1-12.59-.45,29.48,29.48,0,0,1-8.59-3.19c-6.14-4-6.06-27.11-6-30.44a3.37,3.37,0,0,1,.1-.77l.53-2.12a116.9,116.9,0,0,0,2.25,16.17c1,4.27,6,5.65,8,4.75"/><path class="cls-47" d="M519.68,757.4a1.59,1.59,0,0,0-1.69,1.19c-1.14,4.26-3.8,12.37-6.45,16.92-1.29,2.21-4.78,5.93-5.58,8.56-.69,2.28-.4,10.39,6.31,12.89,5.58,2.08,19.23-.92,23.09-9.89,1-2.29.2-4.24.3-6.73.07-1.75,1.05-3.52,3-8l-1.51-13.45L533,757.77s-2.05-3.29-2.9-3.71c-1.68-.82-7.14-.86-8.53.44a4.36,4.36,0,0,0-.67,1.93,1.18,1.18,0,0,1-1.27,1"/><path class="cls-64" d="M523.18,780.93a1,1,0,0,1-.55-.17,13.16,13.16,0,0,0-10.45-2.05,1,1,0,1,1-.6-1.91,15,15,0,0,1,12.15,2.29,1,1,0,0,1-.55,1.83"/><path class="cls-64" d="M527.55,778.57a1,1,0,0,1-.77-.36c-4.47-5.36-11.25-4-11.31-4a1,1,0,1,1-.41-2c.33-.07,8-1.6,13.26,4.68a1,1,0,0,1-.77,1.64"/><path class="cls-64" d="M530.71,774.79a1,1,0,0,1-.76-.35c-5.82-6.8-12.83-3.88-12.9-3.85a1,1,0,1,1-.79-1.84c.08,0,8.45-3.52,15.21,4.38a1,1,0,0,1-.76,1.65"/><path class="cls-64" d="M531.34,768.69a1,1,0,0,1-.59-.19c-8-5.82-12.38-2.86-12.56-2.73a1,1,0,0,1-1.39-.22,1,1,0,0,1,.2-1.39c.23-.17,5.6-4,14.92,2.71a1,1,0,0,1-.59,1.81"/><path class="cls-6" d="M510.67,792a17.24,17.24,0,0,0,11.78.56c3.44-1.08,9.47-2,13.37-9.82.29,2.17.47,4.82,0,5.78-4.18,8-10.42,9.55-14,10.68a16.68,16.68,0,0,1-11.54-.61,8.14,8.14,0,0,1-4-4.09c-.81-2.22-.9-8.18-.21-10.46.06-.19.13-.38.21-.58a15.69,15.69,0,0,0,.62,4,9.44,9.44,0,0,0,3.87,4.52"/><path class="cls-18" d="M444.74,563.57c10.09.82,19.59-3.33,28.05-1,7.09,2,9.08-4.73,9.34-5.55.87-2.76-8.28-8.38-11.34-10.83-3.77-3-7-4.7-13.57-5.13-5.59-.36-16.41,6.58-17.07,14.15-.27,3.14,1.38,8.07,4.6,8.33"/><path class="cls-18" d="M465.45,558.63l10.25,8.07s5,3.52,7,3.77c1.53.19,12.95,2.1,15.7-.08a10.86,10.86,0,0,0,1.17-1.87,17.63,17.63,0,0,1,2.63-1c.69-.1.33-2.2-1.34-3.52-.1-.08-1.53-1-3.21-2.05a33.74,33.74,0,0,1-5.74-5.44,33.79,33.79,0,0,1,5.95,2.92c1.28.86,3.84,3.21,5.61,2.94.49-.08,1.69-1.58.27-3.66s-4.79-4.08-8.38-6.33c-1.3-.82-1.22-1.52-8.17-4L484,547l-.68-3.34s-8.94.39-11.34.26c-.59,0-9.9-2.19-9.9-2.19Z"/></g><g class="cls-101"><rect class="cls-102" x="575.77" y="493.94" width="59.47" height="74.27" transform="translate(-131.98 207.37) rotate(-17.56)"/></g><g class="cls-4"><path class="cls-18" d="M612.69,563.68c-11.29-.43-16.92-6.73-25.38-4.38-7.09,2-3.73-10.53-.66-13,3.77-3,7.89-4.63,14.46-5.15,14.83-1.18,21.25,4,24.46,10.91a13.54,13.54,0,0,1,1.12,6.36c-.4,6-10.76,5.35-14,5.23"/><path class="cls-18" d="M587.3,559.31l-12.1,4.88s-5.79,2-7.78,1.66c-1.52-.25-13-1.61-15-4.47a10.91,10.91,0,0,1-.6-2.13,17.74,17.74,0,0,0-2.25-1.67c-.63-.28.3-2.21,2.27-3,.12,0,1.74-.52,3.66-1.07a33.72,33.72,0,0,0,7-3.62A33.82,33.82,0,0,0,556,551c-1.47.46-4.58,2-6.2,1.25-.45-.21-1.18-2,.77-3.59s5.74-2.58,9.81-3.73c1.48-.42,1.59-1.12,9-1.57l3.48-.42,1.58-3s8.43,3.12,10.81,3.42c3.38.43,12.77-1.82,12.77-1.82Z"/><polygon class="cls-8" points="482.73 719.81 480.95 760.41 464.01 759.75 461.97 725.05 482.73 719.81"/><path class="cls-90" d="M462.29,604.57c-5,.71-13.64,8.56-15.2,13.44-3.81,11.93-2.58,53.46-2.58,53.46l15.3,72.75,25.57,1.28,2.48-102S487.49,620,484,614.66c-3.29-5.06-15.87-10.91-21.73-10.09"/><path class="cls-47" d="M445.4,782.17a28.64,28.64,0,0,1-1,3.31,11,11,0,0,0-.78,3.66c.09,1.41.18,4.53,1.14,5.51,3,3,12.3,4.26,16.5,3.5,2.46-.45,7.07-3.35,8.64-5.39,2.26-2.92,2-11.33,4.44-14.07.74-.83,2.35-.91,4.6-1.62a2.67,2.67,0,0,0,1.9-2.57L481.5,760c.05-1.2-.24-1.66-1.46-1.4l-2.56.68c-1,.21-1.13.36-1.83-.38a28.81,28.81,0,0,1-2.1-2.18,6.87,6.87,0,0,0-2.33-2c-2.24-.88-7.89-2-9.71,1.36-.73,1.34-1.73.84-2.46,1.67-1.4,1.6-3.91,9.18-4.67,11.31a4.52,4.52,0,0,1-.75,1.34Z"/><path class="cls-6" d="M461.23,798.15c2.46-.45,7.07-3.35,8.64-5.38,1-1.24,1.46-3.47,1.91-5.84-1.59,2-6.17,4.91-8.62,5.36-4.2.76-13.55-.48-16.5-3.5-1-1-1.38-5.22-1.26-6.61l-1.18,2.73a14.07,14.07,0,0,0-.62,4.24c.09,1.41.18,4.53,1.14,5.51,3,3,12.3,4.26,16.5,3.5"/><path class="cls-64" d="M465.45,781.25a1,1,0,0,1-.68-.27c-4.1-3.82-11.11-4.15-11.18-4.15a1,1,0,0,1-1-1,1,1,0,0,1,1-1c.32,0,7.81.35,12.46,4.69a1,1,0,0,1-.68,1.73"/><path class="cls-64" d="M468.31,778.25a1,1,0,0,1-.79-.38c-4.26-5.41-11.84-4.8-11.92-4.8a1,1,0,0,1-.18-2c.36,0,8.73-.73,13.67,5.55a1,1,0,0,1-.78,1.62"/><path class="cls-64" d="M470.82,774.41a1,1,0,0,1-.77-.36c-4.4-5.29-12.28-5.1-12.37-5.11a1,1,0,0,1-.07-2c.36,0,8.94-.23,14,5.82a1,1,0,0,1-.77,1.64"/><path class="cls-64" d="M473.16,769.79a1,1,0,0,1-.72-.3,15.05,15.05,0,0,0-12.66-4.42,1,1,0,0,1-.37-2,16.9,16.9,0,0,1,14.46,5,1,1,0,0,1-.72,1.7"/><path class="cls-6" d="M481.09,768.72l-.27,5.81a2.64,2.64,0,0,1-1.89,2.54c-.89.28-5,2.18-5,2.18,2.88-9.53,7.2-10.53,7.2-10.53"/><path class="cls-17" d="M583.88,508.45c.27,5.07,4.13,22.4,4.13,22.4l35.51-10.69s-5.26-14.44-7.73-19.38c-4.22-8.43-6.73-14.11-15.32-26.35-2.21-3.15-10.66-11.66-10.66-11.66s-6.54,34.15-5.92,45.68"/></g></g></svg>