<svg id="Layer_1" data-name="Layer 1" xmlns="http://www.w3.org/2000/svg" viewBox="0 0 201.68 201.68"><defs><style>.cls-1{fill:#fff;}</style></defs><title>plus</title><path class="cls-1" d="M100.84,201.68A100.84,100.84,0,1,1,201.68,100.84,101,101,0,0,1,100.84,201.68m0-188.24a87.39,87.39,0,1,0,87.39,87.39,87.5,87.5,0,0,0-87.39-87.39"/><path class="cls-1" d="M102,174.79H99.7a19,19,0,0,1-19-19V121H45.92a19,19,0,0,1-19-19V99.7a19,19,0,0,1,19-19H80.67V45.92a19,19,0,0,1,19-19H102a19,19,0,0,1,19,19V80.67h34.76a19,19,0,0,1,19,19V102a19,19,0,0,1-19,19H121v34.75a19,19,0,0,1-19,19M45.92,94.12a5.59,5.59,0,0,0-5.58,5.58V102a5.59,5.59,0,0,0,5.58,5.58H87.4a6.72,6.72,0,0,1,6.72,6.72v41.48a5.59,5.59,0,0,0,5.58,5.58H102a5.59,5.59,0,0,0,5.58-5.58V114.29a6.72,6.72,0,0,1,6.72-6.72h41.48a5.59,5.59,0,0,0,5.58-5.58V99.7a5.59,5.59,0,0,0-5.58-5.58H114.29a6.72,6.72,0,0,1-6.72-6.72V45.92A5.59,5.59,0,0,0,102,40.34H99.7a5.59,5.59,0,0,0-5.58,5.58V87.4a6.72,6.72,0,0,1-6.72,6.72Z"/></svg>