<svg id="Layer_1" data-name="Layer 1" xmlns="http://www.w3.org/2000/svg" viewBox="0 0 18.99 15"><defs><style>.cls-1{fill:#ed42d1;}</style></defs><title>preview</title><path class="cls-1" d="M9.49,15C3.53,15,.22,8.16.08,7.87a.88.88,0,0,1,0-.75C.22,6.84,3.53,0,9.49,0s9.27,6.84,9.41,7.13a.88.88,0,0,1,0,.75C18.76,8.16,15.45,15,9.49,15ZM1.69,7.5c.74,1.34,3.54,5.83,7.8,5.83s7.06-4.49,7.8-5.83c-.74-1.34-3.55-5.83-7.8-5.83S2.43,6.16,1.69,7.5Zm7.8,3.33a3.34,3.34,0,1,1,3.17-3.5q0,.08,0,.17a3.26,3.26,0,0,1-3.17,3.33Zm0-5a1.67,1.67,0,1,0,1.58,1.76s0-.06,0-.09A1.63,1.63,0,0,0,9.49,5.83Z" transform="translate(0)"/></svg>