<svg id="Layer_1" data-name="Layer 1" xmlns="http://www.w3.org/2000/svg" viewBox="0 0 16 16">
    <defs>
        <style>
            .cls-1{fill:#198cff;}
        </style>
    </defs>
    <title>resize-plus-icon</title>
    <path id="Resize_Plus_2_Icon" data-name="Resize Plus 2 Icon" class="cls-1" d="M15.42,15.41A2,2,0,0,1,14,16H11a1,1,0,1,1,0-2h1.6L9.29,10.7a1,1,0,0,1,0-1.43h0A1,1,0,0,1,10,9a1,1,0,0,1,.71.3h0L14,12.54V11a1,1,0,0,1,2,0v3A2,2,0,0,1,15.42,15.41ZM15,6h0a1,1,0,0,1-1-1V3.43L10.71,6.72a1,1,0,0,1-1.44,0,1,1,0,0,1,0-1.42L12.55,2H11a1,1,0,1,1,0-2h3a2,2,0,0,1,2,2V5a1,1,0,0,1-.29.71A1,1,0,0,1,15,6ZM6,7a1,1,0,0,1-.71-.3h0L2,3.43V5A1,1,0,1,1,0,5V2A2,2,0,0,1,2,0H5A1,1,0,0,1,5,2H3.42L6.71,5.28a1,1,0,0,1,0,1.43A1,1,0,0,1,6,7ZM1,10a1,1,0,0,1,1,1v1.6L5.27,9.28a1,1,0,0,1,1.43,0,1,1,0,0,1,0,1.4l0,0L3.44,14H5a1,1,0,1,1,.11,2H2a2,2,0,0,1-2-2V11a1,1,0,0,1,1-1H1Z"/>
</svg>
