<svg
        xmlns="http://www.w3.org/2000/svg"
        xmlns:xlink="http://www.w3.org/1999/xlink"
        width="13px" height="13px">
    <path fill-rule="evenodd"  fill="rgb(241, 67, 54)"
          d="M12.771,12.768 C12.467,13.077 11.973,13.077 11.668,12.768 L9.256,10.357 C8.342,11.042 7.205,11.448 5.975,11.448 C2.951,11.448 0.500,8.998 0.500,5.974 C0.500,2.951 2.951,0.500 5.975,0.500 C8.997,0.500 11.448,2.951 11.448,5.974 C11.448,7.201 11.045,8.332 10.365,9.244 L12.771,11.651 C13.076,11.960 13.076,12.459 12.771,12.768 ZM5.975,2.064 C3.814,2.064 2.064,3.815 2.064,5.974 L2.065,5.974 C2.065,8.134 3.816,9.884 5.975,9.884 C8.134,9.884 9.884,8.134 9.884,5.974 C9.884,3.814 8.134,2.064 5.975,2.064 Z"/>
</svg>