<svg id="Layer_1" data-name="Layer 1" xmlns="http://www.w3.org/2000/svg" viewBox="0 0 16.15 18"><defs><style>.cls-1{fill:#ffc05e;}</style></defs><title>share</title><path class="cls-1" d="M12.95,6.55a3.27,3.27,0,1,1,3.2-3.35s0,0,0,.07A3.24,3.24,0,0,1,12.95,6.55Zm0-4.91a1.64,1.64,0,1,0,1.6,1.67v0A1.62,1.62,0,0,0,12.95,1.64ZM3.35,12.27a3.27,3.27,0,1,1,3.2-3.35s0,0,0,.07a3.24,3.24,0,0,1-3.2,3.27Zm0-4.91A1.64,1.64,0,1,0,4.95,9V9a1.62,1.62,0,0,0-1.6-1.64ZM12.95,18a3.27,3.27,0,1,1,3.2-3.35v.07A3.24,3.24,0,0,1,12.95,18Zm0-4.91a1.64,1.64,0,1,0,1.6,1.67v0A1.62,1.62,0,0,0,12.95,13.09Zm-2.07,1.22a.79.79,0,0,1-.4-.11L5,10.94a.83.83,0,0,1-.29-1.12.79.79,0,0,1,1.07-.31h0l5.46,3.26a.83.83,0,0,1,.29,1.12A.8.8,0,0,1,10.88,14.31ZM5.42,8.58a.8.8,0,0,1-.69-.41A.83.83,0,0,1,5,7.06L10.47,3.8a.79.79,0,0,1,1.08.27v0a.83.83,0,0,1-.29,1.12L5.82,8.47a.79.79,0,0,1-.4.11Z"/></svg>