<?xml version="1.0" encoding="utf-8"?>
<!-- Generator: Adobe Illustrator 21.1.0, SVG Export Plug-In . SVG Version: 6.00 Build 0)  -->
<svg version="1.1" id="Layer_1" xmlns="http://www.w3.org/2000/svg" xmlns:xlink="http://www.w3.org/1999/xlink" x="0px" y="0px"
	 viewBox="0 0 1477.7 320.4" style="enable-background:new 0 0 1477.7 320.4;" xml:space="preserve">
<style type="text/css">
	.st0{fill:#E84539;}
</style>
<g>
	<circle class="st0" cx="160.2" cy="160.2" r="160.2"/>
	<g>
		<defs>
			<path id="SVGID_1_" d="M164.2,223.5h-43.8h-58c19.3,28.8,51.5,48.3,88.3,50.3l29-50.3H164.2z M215.4,185.6l-50.9,88.1
				c18.5-1.2,35.8-6.8,50.8-15.8c14.8-8.9,27.4-21.1,36.9-35.5l-29-50.3L215.4,185.6z M200.3,108.8l7.8,13.5l50.9,88.1
				c7.5-15.2,11.7-32.2,11.7-50.2c0-18.5-4.5-35.9-12.3-51.4H200.3z M61.7,98l29,50.3l7.8-13.5l12.3-21.3l9.6-16.6l29-50.2
				C112.7,49.1,80.7,68.9,61.7,98 M163.2,46.6l-29,50.3h15.6h43.8h58C232.2,68.1,200,48.6,163.2,46.6z"/>
		</defs>
		<use xlink:href="#SVGID_1_"  style="overflow:visible;fill:#FFFFFF;"/>
		<clipPath id="SVGID_2_">
			<use xlink:href="#SVGID_1_"  style="overflow:visible;"/>
		</clipPath>
	</g>
</g>
<g>
	<path d="M441.4,182.1c0-3.3-1.4-5.8-4.1-7.7c-2.7-1.9-6.1-3.6-10.2-5.2c-4-1.6-8.4-3.2-13.2-4.7c-4.7-1.6-9.1-3.7-13.2-6.3
		c-4-2.6-7.4-5.9-10.2-9.9c-2.7-4-4.1-9.2-4.1-15.6c0-5.5,1-10.3,2.9-14.4c1.9-4.2,4.7-7.6,8.2-10.2c3.5-2.7,7.8-4.7,12.8-6.1
		c5-1.4,10.5-2,16.5-2c6.9,0,13.5,0.6,19.8,1.8c6.3,1.2,11.4,2.9,15.4,5.1l-7.4,19.6c-1.3-0.7-2.9-1.5-4.8-2.3
		c-1.9-0.8-4.2-1.5-6.7-2c-2.5-0.6-5.2-1-8-1.4c-2.8-0.4-5.7-0.6-8.7-0.6c-5.3,0-9.3,0.9-12.2,2.8c-2.9,1.8-4.3,4.4-4.3,7.6
		c0,3.3,1.4,5.9,4.1,7.8c2.7,1.9,6.1,3.7,10.2,5.4c4,1.6,8.4,3.3,13.2,4.9c4.7,1.6,9.1,3.7,13.2,6.3c4,2.6,7.4,5.8,10.2,9.7
		c2.7,3.9,4.1,8.9,4.1,15c0,6.1-1.1,11.4-3.2,15.8c-2.1,4.4-5.1,8.1-8.9,11c-3.8,2.9-8.4,5-13.8,6.4c-5.4,1.4-11.2,2-17.7,2
		c-4.3,0-8.4-0.2-12.2-0.7c-3.8-0.5-7.4-1.1-10.6-1.7c-3.3-0.7-6.1-1.4-8.6-2.2c-2.5-0.8-4.4-1.5-5.9-2.3l7.7-19.7
		c1.2,0.6,2.8,1.3,4.8,2c2,0.7,4.3,1.4,6.9,2.1c2.5,0.7,5.2,1.2,8.1,1.7c2.9,0.4,5.8,0.6,8.8,0.6c6.9,0,12.2-1,15.8-3
		C439.6,189.4,441.4,186.3,441.4,182.1z"/>
	<path d="M552.2,204.8c-3.6,2.7-8.4,5.1-14.6,7c-6.1,1.9-12.7,2.9-19.8,2.9c-14.2,0-24.6-3.9-31.2-11.7c-6.6-7.8-9.9-18.4-9.9-32
		c0-14.4,3.7-25.3,11.2-32.7c7.5-7.4,18-11.1,31.5-11.1c4.4,0,8.8,0.6,13.1,1.7c4.3,1.1,8.1,2.9,11.5,5.5c3.4,2.6,6.1,6,8.1,10.4
		c2,4.4,3.1,9.8,3.1,16.2c0,2.2-0.1,4.6-0.4,7.3c-0.3,2.6-0.7,5.4-1.3,8.2h-55.2c0.5,7.1,2.6,12.4,6.2,15.8
		c3.6,3.4,9.5,5.1,17.7,5.1c4.9,0,9.4-0.7,13.3-2.1c3.9-1.4,7-2.9,9.1-4.3L552.2,204.8z M519.1,144.6c-6.5,0-11.4,1.8-14.5,5.3
		c-3.2,3.5-5,8-5.5,13.5h35.6c0.4-5.8-0.6-10.4-3.2-13.7C529,146.3,524.9,144.6,519.1,144.6z"/>
	<path d="M574.3,135.3c4.7-2.1,10.5-3.8,17.4-5.2c6.9-1.4,14-2,21.4-2c5.8,0,10.6,0.7,14.6,2c3.9,1.4,7.1,3.3,9.4,5.9
		c2.3,2.6,4,5.7,5,9.3c1,3.6,1.5,7.6,1.5,12.1c0,5.4-0.2,10.7-0.6,15.9c-0.4,5.3-0.6,10.8-0.6,16.7c0,4,0.3,7.9,0.8,11.7
		c0.5,3.8,1.4,7.4,2.5,10.9h-18l-3.6-12.3H622c-2.7,3.7-6.2,6.8-10.4,9.5c-4.2,2.6-9.6,3.9-16.2,3.9c-4,0-7.6-0.6-11-1.7
		c-3.3-1.2-6.1-2.8-8.5-5c-2.4-2.2-4.2-4.7-5.5-7.6c-1.3-2.9-2-6.1-2-9.6c0-9.4,3.1-16.4,9.4-21.2c6.3-4.8,15.7-7.2,28.5-7.2
		c2.9,0,5.9,0.2,8.8,0.7c2.9,0.5,5,0.8,6.1,1c0.3-2.2,0.5-4.1,0.5-5.7c0-4-1-6.9-3-8.8c-2-1.9-5.7-2.8-11.2-2.8
		c-5,0-10,0.6-14.7,1.8c-4.8,1.2-9,2.7-12.7,4.5L574.3,135.3z M603.1,196c4.9,0,8.9-1.2,11.8-3.5c2.9-2.3,5.1-4.7,6.5-7.3v-9.5
		c-0.5-0.2-1.3-0.4-2.4-0.6c-1.1-0.2-2.3-0.4-3.6-0.6c-1.3-0.2-2.6-0.4-3.9-0.5c-1.3-0.1-2.5-0.2-3.5-0.2c-5.7,0-9.9,1-12.6,3.1
		c-2.7,2-4.1,4.6-4.1,7.6c0,3.8,1.1,6.6,3.2,8.5C596.5,195.1,599.4,196,603.1,196z"/>
	<path d="M715.2,149.8c-3.2-1-6.3-1.6-9.5-1.6c-4.6,0-8.4,1.1-11.4,3.3c-3,2.2-5,5-5.9,8.4v52.5h-22.1v-82.8h17.3l2.4,11.5h2
		c2.1-4.3,4.9-7.6,8.4-9.9c3.5-2.3,7.5-3.5,12.1-3.5c2.8,0,6.1,0.6,9.8,1.7L715.2,149.8z"/>
	<path d="M792.8,207.4c-3.6,2.4-7.9,4.3-12.8,5.5c-5,1.3-10.2,1.9-15.5,1.9c-7.1,0-13.2-1.1-18.1-3.2s-8.9-5.1-12-9
		c-3.1-3.9-5.3-8.5-6.7-13.8c-1.4-5.3-2-11.2-2-17.7c0-13.8,3.4-24.5,10.2-32.2s16.6-11.6,29.6-11.6c6.3,0,11.5,0.5,15.5,1.5
		c4,1,7.6,2.3,10.8,3.9l-5.4,17.7c-2.7-1.2-5.4-2-8.1-2.6c-2.7-0.6-5.8-0.9-9.4-0.9c-6.6,0-11.7,1.9-15.2,5.8
		c-3.5,3.8-5.3,10-5.3,18.5c0,3.4,0.4,6.5,1.3,9.4c0.8,2.9,2.2,5.4,3.9,7.6c1.8,2.2,4,3.9,6.8,5.2c2.7,1.3,5.9,1.9,9.6,1.9
		c4.4,0,7.9-0.4,10.5-1.2c2.6-0.8,5-1.9,7.3-3.2L792.8,207.4z"/>
	<path d="M865,212.4v-45.6c0-7.1-1.1-12.3-3.2-15.4c-2.2-3.1-6.1-4.7-11.9-4.7c-4.2,0-8.1,1.3-11.6,4c-3.5,2.7-5.9,6.2-7,10.6v50.9
		h-22.1V102h22.1v37.7h1.9c2.8-3.7,6.4-6.7,10.6-9c4.3-2.3,9.6-3.5,16.2-3.5c4.5,0,8.5,0.6,11.8,1.7c3.4,1.1,6.2,3,8.4,5.7
		c2.3,2.7,4,6.3,5.1,10.7c1.2,4.5,1.7,10,1.7,16.6v50.5H865z"/>
	<path d="M1001.7,157.1l2.5-22.9h-0.9l-7.6,17.3l-25.5,41.2h-7.3l-27.1-41.3l-7.4-17h-0.9l3.3,22.5v55.5h-22.1V102h21.1l31.8,50.9
		l6,12.1h0.8l5.2-12.5l30.4-50.6h21v110.4h-23.3V157.1z"/>
	<path d="M1076.9,175.5l3.5,13.2h1.6l3-13.2l14.2-45.9h22.4l-27.4,74.9c-2.3,6.2-4.5,11.8-6.5,16.7c-2,4.9-4.3,9.1-6.7,12.6
		c-2.4,3.5-5.1,6.1-8.1,8c-3,1.8-6.5,2.8-10.6,2.8c-2.7,0-5.3-0.2-7.8-0.7c-2.5-0.5-4.6-1.2-6.4-2.1l4.6-17c1.6,0.5,3.2,0.8,4.9,0.8
		c1.5,0,2.9-0.2,4.3-0.5c1.4-0.3,2.6-0.9,3.8-1.8c1.2-0.9,2.2-2.2,3.2-3.8c1-1.6,1.9-3.8,2.6-6.5l-37.8-83.2h26.6L1076.9,175.5z"/>
	<path d="M1130.8,102c2.3-0.3,5-0.6,8-0.8c3-0.2,6.1-0.4,9.3-0.5c3.2-0.1,6.3-0.2,9.4-0.2c3-0.1,5.8-0.1,8.2-0.1
		c10.5,0,19.5,1.4,27,4.2c7.5,2.8,13.7,6.6,18.4,11.6c4.8,4.9,8.3,10.8,10.5,17.7c2.2,6.8,3.3,14.3,3.3,22.4
		c0,7.4-1.1,14.5-3.2,21.4c-2.2,6.9-5.7,13.1-10.5,18.5c-4.8,5.4-11.1,9.8-18.9,13c-7.8,3.3-17.3,4.9-28.7,4.9
		c-1.8,0-4.2-0.1-7.3-0.2c-3.1-0.1-6.3-0.2-9.6-0.4c-3.3-0.2-6.4-0.3-9.3-0.5c-2.9-0.2-5.1-0.3-6.5-0.6V102z M1167.4,121
		c-2.4,0-4.9,0-7.4,0.1c-2.5,0.1-4.5,0.2-5.8,0.4V193c0.5,0.1,1.3,0.2,2.4,0.2c1.1,0.1,2.3,0.1,3.5,0.2c1.2,0.1,2.4,0.1,3.5,0.2
		c1.1,0.1,1.9,0.1,2.4,0.1c6.7,0,12.3-1,16.7-3.2c4.4-2.1,7.9-4.9,10.5-8.4c2.6-3.5,4.4-7.4,5.4-11.8c1-4.4,1.6-9,1.6-13.7
		c0-3.9-0.5-7.9-1.4-12.1c-0.9-4.2-2.7-8-5.1-11.5c-2.5-3.5-5.8-6.3-10-8.6C1179.4,122.1,1174,121,1167.4,121z"/>
	<path d="M1237.9,171.1c0-13.7,3.6-24.4,10.9-32.2c7.3-7.8,17.6-11.7,31.1-11.7c7,0,13.2,1.1,18.4,3.3c5.3,2.2,9.6,5.3,13.1,9.2
		c3.5,3.9,6.1,8.6,7.8,13.9c1.7,5.3,2.6,11.1,2.6,17.4c0,6.7-0.9,12.8-2.8,18.2c-1.9,5.4-4.6,10-8.2,13.8c-3.6,3.8-8,6.7-13.2,8.7
		c-5.2,2-11.1,3-17.7,3c-7.1,0-13.3-1.1-18.6-3.3c-5.3-2.2-9.6-5.3-13.1-9.2c-3.5-3.9-6-8.6-7.7-13.9
		C1238.7,183.1,1237.9,177.3,1237.9,171.1z M1260.6,171.1c0,3.5,0.4,6.7,1.1,9.8c0.7,3,1.9,5.7,3.4,8c1.5,2.3,3.5,4.1,5.9,5.4
		c2.4,1.4,5.4,2,8.8,2c12.8,0,19.2-8.4,19.2-25.2c0-3.7-0.3-7.1-1-10.2c-0.7-3.1-1.8-5.8-3.3-8c-1.5-2.3-3.5-4-6-5.3
		c-2.5-1.3-5.4-1.9-8.9-1.9c-6,0-10.7,2-14.1,6C1262.3,155.7,1260.6,162.2,1260.6,171.1z"/>
	<path d="M1402.2,207.4c-3.6,2.4-7.9,4.3-12.8,5.5c-5,1.3-10.2,1.9-15.5,1.9c-7.1,0-13.2-1.1-18.1-3.2s-8.9-5.1-12-9
		c-3.1-3.9-5.3-8.5-6.7-13.8c-1.4-5.3-2-11.2-2-17.7c0-13.8,3.4-24.5,10.2-32.2s16.6-11.6,29.6-11.6c6.3,0,11.5,0.5,15.5,1.5
		c4,1,7.6,2.3,10.8,3.9l-5.4,17.7c-2.7-1.2-5.4-2-8.1-2.6c-2.7-0.6-5.8-0.9-9.4-0.9c-6.6,0-11.7,1.9-15.2,5.8
		c-3.5,3.8-5.3,10-5.3,18.5c0,3.4,0.4,6.5,1.3,9.4c0.8,2.9,2.2,5.4,3.9,7.6c1.8,2.2,4,3.9,6.8,5.2c2.7,1.3,5.9,1.9,9.6,1.9
		c4.4,0,7.9-0.4,10.5-1.2c2.6-0.8,5-1.9,7.3-3.2L1402.2,207.4z"/>
	<path d="M1418.4,191c1.5,0.7,3.2,1.5,5.1,2.2c1.9,0.7,4,1.4,6.3,2c2.3,0.6,4.6,1.2,6.9,1.6c2.4,0.4,4.8,0.6,7.2,0.6
		c3.7,0,6.5-0.6,8.6-1.7c2-1.2,3.1-3.3,3.1-6.5c0-2.5-1.4-4.4-4.1-5.6c-2.7-1.2-6.1-2.4-10.1-3.5c-2.9-0.8-6-1.8-9.2-3
		c-3.2-1.2-6.1-2.7-8.8-4.7c-2.7-1.9-4.9-4.5-6.6-7.6c-1.7-3.2-2.6-7.1-2.6-12c0-8.3,2.6-14.6,7.7-19c5.1-4.4,12.6-6.5,22.2-6.5
		c6.3,0,12.2,0.6,17.7,1.7c5.5,1.1,10,2.4,13.3,3.9l-4.6,16.7c-2.7-1-6.2-2.1-10.5-3.2c-4.3-1.1-8.6-1.7-13-1.7
		c-3.7,0-6.4,0.6-8.2,1.7c-1.8,1.1-2.7,3-2.7,5.8c0,2.4,1.4,4.2,4.2,5.4c2.8,1.2,6.2,2.4,10.2,3.5c2.9,0.8,6,1.8,9.2,2.9
		c3.2,1.1,6.1,2.6,8.8,4.5c2.6,1.9,4.8,4.3,6.5,7.3c1.7,3,2.6,6.8,2.6,11.3c0,8.8-2.9,15.7-8.6,20.5c-5.7,4.8-14.3,7.3-25.8,7.3
		c-6.2,0-12-0.6-17.3-1.7c-5.4-1.1-9.7-2.7-13.1-4.8L1418.4,191z"/>
</g>
</svg>
