<svg id="Layer_1" data-name="Layer 1" xmlns="http://www.w3.org/2000/svg" xmlns:xlink="http://www.w3.org/1999/xlink" viewBox="0 0 583.53 365.05"><defs><style>.cls-1{fill:none;}.cls-2{fill:#e4efff;}.cls-3{fill:#86c0f0;}.cls-4{fill:#acd5f4;}.cls-5{fill:#fec12f;}.cls-6{fill:#fff;}.cls-7{fill:#3bb6d5;}.cls-8{fill:#88bdda;}.cls-9{fill:#91e2f6;}.cls-10{fill:#001f46;}.cls-11{fill:#367082;}.cls-12{fill:#3dc7c9;}.cls-13{fill:#3d7aa8;}.cls-14{fill:#74b2e8;}.cls-15{fill:#e6b09c;}.cls-16{fill:#163f59;}.cls-17{fill:#ffc4ad;}.cls-18{fill:#161711;}.cls-19{fill:#316091;}.cls-20{fill:#b6c2c9;}.cls-21{fill:#879ba6;}.cls-22{fill:#e4eef3;}.cls-23{fill:#33a8b5;}.cls-24{fill:#dce5ea;}.cls-25{fill:#cfd9e8;}.cls-26{fill:#aebddc;}.cls-27{fill:#194866;}.cls-28{fill:#b4c0c7;}.cls-29{fill:#d6e3eb;}.cls-30{fill:#8599a4;}.cls-31{fill:#d7dfe2;}.cls-32{fill:#b0bfde;}.cls-33{fill:#282723;}.cls-34{fill:#d1dbea;}.cls-35{fill:#d0dee6;}.cls-36{fill:#effaff;}.cls-37{fill:#86bbd8;}.cls-38{clip-path:url(#clip-path);}.cls-39{fill:url(#radial-gradient);}.cls-40{fill:#ffab01;}.cls-41{fill:#f4da80;}.cls-42{fill:#34688f;}</style><clipPath id="clip-path" transform="translate(0 0)"><rect class="cls-1" x="4.56" y="200.82" width="426.59" height="9.3"/></clipPath><radialGradient id="radial-gradient" cx="0" cy="365.05" r="1" gradientTransform="matrix(380.23, 0, 0, -380.23, 24.75, 138877.79)" gradientUnits="userSpaceOnUse"><stop offset="0" stop-color="#cdf7f1"/><stop offset="0" stop-color="#cdf7f1"/><stop offset="1" stop-color="#5dcfca"/></radialGradient></defs><title>step3-01</title><path class="cls-2" d="M583.53,82.38a5.21,5.21,0,0,1-5.21,5.21H340a5.21,5.21,0,0,1-5.21-5.21V36.8A5.21,5.21,0,0,1,340,31.6h238.3a5.21,5.21,0,0,1,5.21,5.21Z" transform="translate(0 0)"/><path class="cls-3" d="M393.67,31.6H340a5.21,5.21,0,0,0-5.21,5.21V82.38A5.21,5.21,0,0,0,340,87.58h53.65Z" transform="translate(0 0)"/><rect class="cls-4" x="408.85" y="46.8" width="58.77" height="4.73"/><rect class="cls-4" x="473.96" y="46.8" width="30.09" height="4.73"/><rect class="cls-4" x="443.06" y="58.17" width="23.44" height="4.73"/><rect class="cls-4" x="453.3" y="69.55" width="13.19" height="4.73"/><rect class="cls-4" x="431.43" y="58.17" width="5.38" height="4.73"/><rect class="cls-4" x="409.02" y="58.17" width="17.06" height="4.73"/><rect class="cls-4" x="409.03" y="69.55" width="39.07" height="4.73"/><rect class="cls-4" x="472.57" y="58.17" width="29.11" height="4.73"/><rect class="cls-4" x="471.36" y="69.55" width="31.51" height="4.73"/><path class="cls-5" d="M526.26,44.27A14.34,14.34,0,1,0,540.6,58.6a14.35,14.35,0,0,0-14.34-14.34" transform="translate(0 0)"/><polygon class="cls-6" points="532.39 62.89 527.56 58.06 527.56 49.49 524.96 49.49 524.96 59.14 530.54 64.73 532.39 62.89"/><path class="cls-7" d="M561.22,3.51a20.41,20.41,0,0,0-20.41,20.41c0,11.28,20.41,42.17,20.41,42.17s20.41-30.9,20.41-42.17A20.41,20.41,0,0,0,561.22,3.51m0,27.58a6,6,0,1,1,6-6,6,6,0,0,1-6,6" transform="translate(0 0)"/><path class="cls-8" d="M303.16,279.21l-4.9,7.48,41.19,13.19s2.75-2.63-7.35-7.92c-11.77-6.16-28.93-12.76-28.93-12.76" transform="translate(0 0)"/><path class="cls-8" d="M295.84,279.21l4.9,7.48-41.19,13.19s-2.75-2.63,7.35-7.92c11.77-6.16,28.93-12.76,28.93-12.76" transform="translate(0 0)"/><rect class="cls-8" x="295.2" y="256.96" width="8.61" height="30.65"/><path class="cls-9" d="M303.71,280.78l-4.2,7.14,35.26,12.59s2.35-2.51-6.29-7.56a275.43,275.43,0,0,0-24.77-12.17" transform="translate(0 0)"/><path class="cls-9" d="M295.29,280.78l4.2,7.14-35.26,12.59s-2.35-2.51,6.3-7.56a275.34,275.34,0,0,1,24.77-12.17" transform="translate(0 0)"/><path class="cls-10" d="M330.78,303.34a3,3,0,1,0,3-3,3,3,0,0,0-3,3" transform="translate(0 0)"/><path class="cls-10" d="M262.46,303.34a3,3,0,1,0,3-3,3,3,0,0,0-3,3" transform="translate(0 0)"/><path class="cls-11" d="M338,303.34a3,3,0,1,0,3-3,3,3,0,0,0-3,3" transform="translate(0 0)"/><path class="cls-11" d="M255.22,303.34a3,3,0,1,0,3-3,3,3,0,0,0-3,3" transform="translate(0 0)"/><rect class="cls-11" x="296.46" y="245.73" width="6.29" height="11.02"/><path class="cls-11" d="M291.74,239.91a6.14,6.14,0,0,0,6.14,6.14h3.46a6.14,6.14,0,0,0,0-12.28h-3.46a6.14,6.14,0,0,0-6.14,6.14" transform="translate(0 0)"/><path class="cls-12" d="M252.82,234.29c-.15-.72-.24-5.25-.24-6,0-5,3.2-9,7.16-9h79.74c4,0,7.16,4,7.16,9,0,.78-.09,5.31-.24,6Z" transform="translate(0 0)"/><path class="cls-11" d="M347.38,236.72c0,1.52-.89,2.75-2,2.75H253.82c-1.09,0-2-1.23-2-2.75s.89-2.75,2-2.75h91.57c1.09,0,2,1.23,2,2.75" transform="translate(0 0)"/><path class="cls-13" d="M284.24,219s51.28.11,71.08.41c13.7.21,14.95-19.32,9.54-22.26-16.4-8.92-67.57-13.51-67.57-13.51l-34.81,32s2-.05,21.76,3.4" transform="translate(0 0)"/><path class="cls-14" d="M332.6,114.39s13.18-3.69,18.92,13.53c8.8,26.43,8,50.65,6.8,55.82-.57,2.38-2.26,10.59-17,10.9-6,.13-3.58-12.67-3.58-12.67a278.83,278.83,0,0,1-7.91-29.27c-4.08-18.39,2.76-38.31,2.76-38.31" transform="translate(0 0)"/><path class="cls-3" d="M343,115.88l-33.82-10.94-25.6-1.72-28,8.49s-9.18,6.33-.66,26.65,5.24,52.18,5.24,52.18l72.35,2.32a588.88,588.88,0,0,1,6.17-58.9c1.07-6.58,1.2-14.31,4.36-18.09" transform="translate(0 0)"/><path class="cls-14" d="M293.4,191.44h3.69a306.57,306.57,0,0,0-.57-86.1l-3.33,2c.93,29-.66,58,.22,84.11" transform="translate(0 0)"/><path class="cls-15" d="M307.77,112.91c-.5,3.91-3.69,7.3-7.05,7.46h-9.56c-3.36-.16-6.55-3.55-7.05-7.46q-1.17-9.67-2.35-19.34c-.52-3.87,1.77-11.63,6.86-13.93a18.28,18.28,0,0,1,14.63,0c5.09,2.29,7.39,10.06,6.87,13.93q-1.18,9.67-2.35,19.34" transform="translate(0 0)"/><polygon class="cls-14" points="295.56 120.86 289.49 130.81 278.37 116.9 280.12 109.58 283.72 106.62 283.77 112.13 295.56 120.86"/><polygon class="cls-14" points="296.3 120.86 302.37 130.81 312.71 117.85 311.01 109.91 308.42 106.56 307.37 113.06 296.3 120.86"/><path class="cls-16" d="M294.49,67.37a7.64,7.64,0,0,0-6.4,3.46h-2.62a5.93,5.93,0,0,0-5.93,5.93V91.4h4.17V85.45a4.17,4.17,0,0,1,4.17-4.17H289a7.65,7.65,0,0,0,7.65-7.65V67.37Z" transform="translate(0 0)"/><path class="cls-15" d="M287.1,96.85a3.63,3.63,0,0,1-3.63,3.63h-.3a3.63,3.63,0,0,1-3.63-3.63V92.44a3.63,3.63,0,0,1,3.63-3.63h.3A3.64,3.64,0,0,1,286.8,91Z" transform="translate(0 0)"/><path class="cls-16" d="M291.25,73.19V67.37h12.56A7.65,7.65,0,0,1,311.45,75v5.81H298.89a7.65,7.65,0,0,1-7.65-7.64" transform="translate(0 0)"/><path class="cls-17" d="M310.38,102.41c0,3-2.34,8.19-6.19,9.82a22.24,22.24,0,0,1-16.66,0c-3.86-1.63-6.17-6.77-6.19-9.82V76.52c0-3.06,3-5.63,6.8-5.7h15.44c3.76.07,6.82,2.64,6.8,5.7Z" transform="translate(0 0)"/><path class="cls-16" d="M298.83,67.37a7.63,7.63,0,0,1,6.4,3.46h2.63a5.93,5.93,0,0,1,5.93,5.93V91.4h-4.17V85.45a4.17,4.17,0,0,0-4.17-4.17h-5.33a7.65,7.65,0,0,1-7.65-7.65V67.37Z" transform="translate(0 0)"/><path class="cls-17" d="M306.28,92.44a3.62,3.62,0,0,1,3.63-3.62h.3a3.63,3.63,0,0,1,3.63,3.62v4.41a3.63,3.63,0,0,1-3.63,3.63h-.3a3.64,3.64,0,0,1-3.32-2.16Z" transform="translate(0 0)"/><path class="cls-16" d="M292.46,74.69a7.8,7.8,0,0,0,.15-1.5V67.37h-5.42A7.65,7.65,0,0,0,279.54,75v5.81H285a7.68,7.68,0,0,0,1.57-.16,7.65,7.65,0,0,1,5.93-6" transform="translate(0 0)"/><path class="cls-18" d="M225.31,317.1c-.79,1-.21,3.47-.21,3.47s13.8,1.54,18.25.49a23.62,23.62,0,0,0,4.94-2.32c.31-.18.86-1.24,1.15-1.41.56-.33.85.22,1.32-.08a15.35,15.35,0,0,0,2.11-1.46c1.21-6.33-.4-8.88-.4-8.88s-11.76-3.91-14-1.18c-5.18,6.41-11.48,9.27-13.2,11.36" transform="translate(0 0)"/><path class="cls-18" d="M354.34,310.21l1,10.43,10.44,1s.72-1.39,1.61-1.3,1.56,1.62,2.58,1.71l5.61.55,20.95,2.05s.69-2.11.18-2.9a10.21,10.21,0,0,0-3.07-1.69c-5.25-2-20.22-8.28-22.4-13.7-2.65-6.59-16.85,3.83-16.85,3.83" transform="translate(0 0)"/><path class="cls-17" d="M338.55,178.19l-35.3,14.42s25,3.57,40.7.38c10.59-2.16-4.91-15.26-5.4-14.8" transform="translate(0 0)"/><path class="cls-13" d="M258.42,200.15s-3.4,32.23-2.91,49.27c.36,12.85.4,37.49-2.66,58.49-.19,1.28-16.61.31-16.61.31s-5.89-79.91-7.64-93.07,3.34-22.66,29.82-15" transform="translate(0 0)"/><path class="cls-19" d="M361.69,207.92s-5.29,8.36-19.81,10.33c-5.24.71,8.46,93.54,8.46,93.54l21.44-6.86-4.14-102.66Z" transform="translate(0 0)"/><path class="cls-19" d="M302.54,218.25s-28,4-46.74,6c-6.86.72-12.8-18.49-13.59-19.32a14.11,14.11,0,0,0-9.78-4.77c4.05-4.38,25-8.45,47-13.6s25.28-1.9,25.28-1.9Z" transform="translate(0 0)"/><path class="cls-13" d="M279.4,186.53c-21.94,5.15-42.93,9.21-47,13.6a14.11,14.11,0,0,1,9.78,4.77c.22.23,1.48,6.38,2.38,8.59-3.58-6.44,48-24.62,59.12-29.32-2.08-.66-8.15-1.42-24.3,2.37" transform="translate(0 0)"/><polygon class="cls-19" points="255.31 218.01 253.17 280.74 251.02 295.29 250.78 280.74 251.26 271.68 246.25 257.61 243.63 224.93 247.44 226.37 246.97 212.06 255.31 218.01"/><path class="cls-13" d="M361,200.13l5.25,1.43,1.91,75.37-11,26.95,5.24-18.36-2.15-37.92S352.62,266,352.62,265s6.44-39.83,6.44-39.83-7.16,6-6.44,5.73,4.29-27.19,8.35-30.77" transform="translate(0 0)"/><path class="cls-3" d="M271.07,112s-11.27-8.83-22.29,7.56c-16.15,24-23.17,49.55-25.74,56.95-2,5.67-.88,21.7,5.72,28.3,1.59,1.59,11.13.32,11.13.32l6.26-4.33-2.62-5-.14-4s8-19.32,17.84-37.58S271.07,112,271.07,112" transform="translate(0 0)"/><path class="cls-17" d="M243.52,185.43l36.59,1.91s-35.24,16.17-36.4,13.38c-6.61-15.79-.19-15.29-.19-15.29" transform="translate(0 0)"/><path class="cls-17" d="M263.65,184.31c2.14-1,1.95-1,1.95-1a8.76,8.76,0,0,0,4.78,2.76c1.41.22,5.94.27,5.94.27l6.74.17,3.13-.18a5.73,5.73,0,0,1,2.23.07c1.36.87.2,1.57.2,1.57l-12.08,1.71,11.6,1.44s1.46.43,1.53,1.22-.42.71-.42.71l-13.48,1.44,5.91,1.41s1.41.46,1.52,1.22.18,1.06.18,1.06L271,196.93s-9.46-11.59-7.32-12.62" transform="translate(0 0)"/><path class="cls-17" d="M277,191.77l8.11,1.48a6.71,6.71,0,0,1,2.67.73,1.08,1.08,0,0,1,.39,1.51l-12.44-1Z" transform="translate(0 0)"/><path class="cls-20" d="M327.89,198.15l0-.07,0-2.31H255.82v2.31a.11.11,0,0,0,0,.07l.25.43c1.23,2,3.43,2.36,6,2.36H321.7c2.52,0,4.72-.36,6-2.36Z" transform="translate(0 0)"/><rect class="cls-21" x="268.01" y="196.31" width="47.73" height="1.63"/><path class="cls-22" d="M327.85,196l.19-47.25a2.24,2.24,0,0,0-2.24-2.25H258.33a2.26,2.26,0,0,0-2.26,2.25l-.2,47.25Z" transform="translate(0 0)"/><path class="cls-20" d="M296.33,171.26a4.37,4.37,0,1,1-4.35-4.37,4.34,4.34,0,0,1,4.35,4.37" transform="translate(0 0)"/><polygon class="cls-14" points="238.78 203.71 236.26 187.67 240.43 183.38 249.67 184.86 247.78 202.61 238.78 203.71"/><polygon class="cls-3" points="350.94 192.19 351.9 186.29 340.22 175.8 333.9 178.66 342.16 194.48 350.94 192.19"/><path class="cls-11" d="M44.06,275.79a14.57,14.57,0,0,1-9.63-3.48c-4.84-4.21-6.93-11.69-6.23-22.25.48-7.12,3.28-14.33,6.25-22,5-12.84,10.66-27.4,7.69-46.65l5.5-.85c3.19,20.73-3,36.69-8,49.52-2.93,7.54-5.47,14.05-5.88,20.32-.57,8.56.91,14.65,4.28,17.63a9.23,9.23,0,0,0,7.36,2.07l1.11,5.45a13,13,0,0,1-2.44.21" transform="translate(0 0)"/><path class="cls-8" d="M86.72,319.94l5.42,8.26L46.63,342.78s-3-2.91,8.13-8.75c13-6.8,32-14.1,32-14.1" transform="translate(0 0)"/><path class="cls-8" d="M94.81,319.94l-5.42,8.26,45.52,14.58s3-2.91-8.13-8.75c-13-6.8-32-14.1-32-14.1" transform="translate(0 0)"/><rect class="cls-8" x="86.01" y="295.35" width="9.51" height="33.87"/><path class="cls-9" d="M86.12,321.68l4.64,7.89-39,13.91s-2.6-2.78,7-8.35c11.13-6.49,27.37-13.45,27.37-13.45" transform="translate(0 0)"/><path class="cls-9" d="M95.42,321.68l-4.64,7.89,39,13.91s2.6-2.78-7-8.35c-11.13-6.49-27.37-13.45-27.37-13.45" transform="translate(0 0)"/><path class="cls-10" d="M56.2,346.61a3.31,3.31,0,1,1-3.31-3.31,3.3,3.3,0,0,1,3.31,3.31" transform="translate(0 0)"/><path class="cls-10" d="M131.7,346.61a3.3,3.3,0,1,1-3.31-3.31,3.31,3.31,0,0,1,3.31,3.31" transform="translate(0 0)"/><path class="cls-11" d="M48.2,346.61a3.3,3.3,0,1,1-3.31-3.31,3.31,3.31,0,0,1,3.31,3.31" transform="translate(0 0)"/><path class="cls-11" d="M139.7,346.61a3.31,3.31,0,1,1-3.31-3.31,3.31,3.31,0,0,1,3.31,3.31" transform="translate(0 0)"/><rect class="cls-11" x="87.17" y="282.94" width="6.96" height="12.18"/><path class="cls-11" d="M99.34,276.51a6.78,6.78,0,0,1-6.78,6.78H88.73a6.78,6.78,0,1,1,0-13.57h3.83a6.78,6.78,0,0,1,6.78,6.78" transform="translate(0 0)"/><path class="cls-12" d="M142.36,270.3c.17-.8.26-5.81.26-6.67,0-5.48-3.54-9.92-7.91-9.92H46.58c-4.37,0-7.91,4.44-7.91,9.92,0,.86.1,5.87.26,6.67Z" transform="translate(0 0)"/><path class="cls-11" d="M37.86,273c0,1.68,1,3,2.19,3H141.24c1.21,0,2.19-1.36,2.19-3s-1-3-2.19-3H40c-1.21,0-2.19,1.36-2.19,3" transform="translate(0 0)"/><path class="cls-12" d="M42.79,219.42c2.18.16,16,.41,18.37.43,15.12.18,28.15-2.65,28.87-6.38a129,129,0,0,0,.39-46.83c-.64-3.72-13.86-6.56-29.3-6.37-2.43,0-16.53.28-18.74.44a126.68,126.68,0,0,1,.41,58.71" transform="translate(0 0)"/><path class="cls-11" d="M40.72,160.7c-1.69,0-2.87.83-2.64,1.8a126.5,126.5,0,0,1,.47,55.13c-.21,1,1,1.78,2.62,1.79s3.19-.75,3.4-1.73a126.73,126.73,0,0,0-.36-55.27c-.23-1-1.79-1.75-3.49-1.73" transform="translate(0 0)"/><path class="cls-23" d="M40,219.39a37,37,0,0,0,4,.26c3.29,0,6.69-2.87,7.34-6.53A127,127,0,0,0,51.14,167c-.69-3.66-4.16-6.57-7.52-6.53a39,39,0,0,0-4,.26A126.57,126.57,0,0,1,40,219.39" transform="translate(0 0)"/><path class="cls-24" d="M69.53,81.42H62.07v3.82a9.19,9.19,0,0,1,7.46-3.82" transform="translate(0 0)"/><path class="cls-24" d="M71.72,81.42V92a9.21,9.21,0,0,1-9.22,9.21h-.44V117.4H95v-36Z" transform="translate(0 0)"/><path class="cls-25" d="M89.75,104.41S76.86,109,89.24,146s20.63,32.47,20.63,32.47l10.23-1,19.63-23.28-10.57-9.24-2.13.85s-2.73-1.13-3-3.67-5.27-13.17-9-34.89c-1.73-10-22.73-3.72-25.21-2.82" transform="translate(0 0)"/><path class="cls-17" d="M136.93,154.61s25.45,13,41.47-12.16c4.76-7.48,2.73,1.13.12,9.32s-18.42,26.71-36.39,28-24.83.24-28.2-6,23-19.13,23-19.13" transform="translate(0 0)"/><path class="cls-26" d="M115.08,148.71l6.45-4.18L124.2,143a5.61,5.61,0,0,0,2.82,2.78L121.64,148l-5.87,3.77-6.06,7.28Z" transform="translate(0 0)"/><path class="cls-25" d="M113.55,210.56l-48.18-1-20-67.07s-9.17-40.4,8-41.07c24.88-1,57.54-.52,57.54-.52s16.78,14.56,2.71,109.7" transform="translate(0 0)"/><path class="cls-26" d="M96.25,206.94l5.66.83a297.64,297.64,0,0,0-9.61-105.06l-4.62,1.54a290.66,290.66,0,0,1,8.57,102.69" transform="translate(0 0)"/><path class="cls-16" d="M192.88,353s-4.68,7.22-7.08,2.79c-7.18-13.29-13.66-55.24-14.06-72.46-.54-23-1.59-37-1.59-37l23.1-8.37Z" transform="translate(0 0)"/><path class="cls-16" d="M111.85,210.07,193.35,238,172,249.91s-84.06,14.74-85.56-16.45c-1.26-26.25,25.43-23.38,25.43-23.38" transform="translate(0 0)"/><path class="cls-27" d="M163.92,353.63s-4.22,3.87-6.62-.56c-7.18-13.29-19-48.6-19.37-65.82-.54-23,3.25-38.93,3.25-38.93l23.6-8.19Z" transform="translate(0 0)"/><path class="cls-27" d="M86.58,211l77.71,29.32L143,251.88s-78.87,14.74-80.39-16.45,24-24.46,24-24.46" transform="translate(0 0)"/><path class="cls-27" d="M61.23,237.18c-.2,2.15,1.05,9.32,3.45,12.21,7.36,8.89,24.78,5.91,38.68,5.91.76,0,4.64-10.84,4.64-10.84l5.8-35.46-48.72.83s-2.16,9.46-3.84,27.35" transform="translate(0 0)"/><path class="cls-17" d="M140.39,188.35l17.84-3.2s2.77-.3,2.9,1.62c.17,2.53-.29,10.8-.29,10.8l-3.2-2-4.6,2.8-5.33-7.06a13.74,13.74,0,0,1-5,0c-.77-.19-2.28-2.94-2.28-2.94" transform="translate(0 0)"/><path class="cls-17" d="M96.61,183.29l47.23,5.24s-25.33,12.95-36.94,13A103.65,103.65,0,0,1,84.42,199Z" transform="translate(0 0)"/><path class="cls-26" d="M73.32,134.32,96.92,179l-1.35,3.62,3.63.67-11,17.54-17.29-3.94L39.78,135.24s-6.55-18.6,8.3-32.81c7.41-7.09,23.16,28.31,25.25,31.89" transform="translate(0 0)"/><path class="cls-25" d="M79.31,194.22S90.48,185.68,96.16,181l-.59,1.58,3.63.67-3.86,6-6.69,7.78-3.84-1.4L86.26,193Z" transform="translate(0 0)"/><path class="cls-16" d="M94.19,70.2A5.84,5.84,0,0,1,88.35,76H66.29a5.84,5.84,0,0,1,0-11.68H88.35a5.84,5.84,0,0,1,5.84,5.84" transform="translate(0 0)"/><path class="cls-16" d="M90.14,80.32A10.79,10.79,0,0,1,79.35,91.11H67.84a10.79,10.79,0,1,1,0-21.57H79.35A10.79,10.79,0,0,1,90.14,80.32" transform="translate(0 0)"/><path class="cls-17" d="M98.8,97.6V63.87c0-5.37-4.36,0-9.73,0H83.88a9.73,9.73,0,0,0-9.73,9.73v24Z" transform="translate(0 0)"/><path class="cls-17" d="M78.45,81.13a4.27,4.27,0,1,1-4.27-4.27,4.27,4.27,0,0,1,4.27,4.27" transform="translate(0 0)"/><path class="cls-17" d="M96,87a2.44,2.44,0,0,0,2.4,2.48h2A2.43,2.43,0,0,0,102.77,87s-4.37-12.8-5.7-12.8A4,4,0,0,0,96,76.7Z" transform="translate(0 0)"/><path class="cls-16" d="M85.18,95.75c-9.73,0-10.74-3-11-6.4,0,0-2.59,8.54-2.59,11.3v3.07c0,5.93,6.1,10.74,13.62,10.74H98.8V95.75Z" transform="translate(0 0)"/><path class="cls-16" d="M98.8,89.49H91a6.41,6.41,0,0,0-6.25,8.11h14Z" transform="translate(0 0)"/><path class="cls-17" d="M88.75,96.3v2.16a1.08,1.08,0,0,0,1.08,1.08h6.31a1.09,1.09,0,0,0,1.08-1.08V96.3Z" transform="translate(0 0)"/><path class="cls-16" d="M95.44,57.88h-20a3.89,3.89,0,0,0-3.89,3.89v7.78H95.44Z" transform="translate(0 0)"/><path class="cls-16" d="M107.81,63.69a5.88,5.88,0,0,1-5.88,5.88H88.42a5.88,5.88,0,1,1,0-11.75h13.51a5.87,5.87,0,0,1,5.88,5.88" transform="translate(0 0)"/><rect class="cls-16" x="73.92" y="66.74" width="5.39" height="14.2"/><rect class="cls-16" x="75.6" y="60.64" width="15.87" height="16.71"/><path class="cls-17" d="M79.31,77.57a8,8,0,0,1,8-8h4.15c4.43,0,6.81,3.59,6.81,8a8,8,0,0,1-8,8H87.34a8,8,0,0,1-8-8" transform="translate(0 0)"/><path class="cls-17" d="M176.46,151.19S172.63,142,174,139.52s7-11.26,7-11.26l1.65-2.11s3.35.5-.5,6.36-.4,4-.4,4l5.53-4,7.16-4.38,2.93-2.34s1.56-1.45,2.23-1.48c1.93-.09,1.28,1.4,1.28,1.4l-10.6,10.05,12.32-6.65s1.72-.59,2.33.13.08,1,.08,1L192.87,141l6.74-2.73s1.7-.54,2.34.14.9.92.9.92l-24.79,13.87Z" transform="translate(0 0)"/><path class="cls-17" d="M192.25,137.52l8.94-4.18a8.09,8.09,0,0,1,3.11-1.15,1.3,1.3,0,0,1,1.43,1.21L192.87,141Z" transform="translate(0 0)"/><path class="cls-27" d="M171.49,360.76a5.26,5.26,0,0,1,.09,2.49s-7.28,1.2-9.61.48a10.83,10.83,0,0,1-2.58-1.63c-.16-.12-.44-.88-.6-1s-.45.16-.7,0a8.36,8.36,0,0,1-1.1-1c-.59-4.54.27-6.38.27-6.38s6.22-2.89,7.36-.95c2.68,4.57,6,6.57,6.87,8.07" transform="translate(0 0)"/><path class="cls-16" d="M185,355l1,6.59h5.51s.31-.93.77-.93.9.93,1.44.93h14s.25-1.38-.05-1.86a4.84,4.84,0,0,0-1.69-.88c-2.85-1-11.46-3.1-13.38-6.16C191.17,350.35,185,355,185,355" transform="translate(0 0)"/><path class="cls-28" d="M141.07,198l0-.08,0-2.31h95.71V198a.12.12,0,0,1,0,.08l-.24.43c-1.23,2-3.44,2.37-6,2.37H147.28c-2.53,0-4.73-.36-6-2.37Z" transform="translate(0 0)"/><path class="cls-29" d="M164.13,198.43a.08.08,0,0,1,0,.06l-.24.35a3.89,3.89,0,0,1-1.4,1.18H147.94c-2.43,0-4.55-.29-5.74-1.91l-.23-.35,0-.06,0-1.14h22.18Z" transform="translate(0 0)"/><rect class="cls-30" x="177.05" y="196.19" width="47.82" height="1.63"/><path class="cls-31" d="M164.66,195.57l12.41-47a3.12,3.12,0,0,1,2.84-2.25h67.15a1.67,1.67,0,0,1,1.65,2.25l-12.41,47Z" transform="translate(0 0)"/><path class="cls-28" d="M202.63,170.94a3.24,3.24,0,0,0,3.2,4.35,6.05,6.05,0,0,0,5.5-4.35,3.24,3.24,0,0,0-3.2-4.35,6,6,0,0,0-5.49,4.35" transform="translate(0 0)"/><path class="cls-11" d="M503.32,278.13A13.19,13.19,0,0,0,512,275c4.38-3.81,6.28-10.58,5.64-20.13-.43-6.45-3-13-5.65-19.88-4.52-11.62-9.64-24.8-7-42.22l-5-.76c-2.88,18.75,2.74,33.2,7.25,44.81,2.65,6.82,4.94,12.72,5.32,18.39.52,7.74-.82,13.26-3.87,16a8.36,8.36,0,0,1-6.66,1.87l-1,4.93a11.76,11.76,0,0,0,2.21.19" transform="translate(0 0)"/><path class="cls-8" d="M464.71,318.09l-4.9,7.48L501,338.76s2.75-2.63-7.36-7.92c-11.77-6.16-28.93-12.76-28.93-12.76" transform="translate(0 0)"/><path class="cls-8" d="M457.4,318.09l4.9,7.48-41.19,13.19s-2.75-2.63,7.35-7.92c11.77-6.16,28.93-12.76,28.93-12.76" transform="translate(0 0)"/><rect class="cls-8" x="456.75" y="295.84" width="8.61" height="30.65"/><path class="cls-9" d="M465.27,319.66l-4.2,7.14,35.26,12.59s2.35-2.51-6.29-7.56C480,326,465.27,319.66,465.27,319.66" transform="translate(0 0)"/><path class="cls-9" d="M456.85,319.66l4.2,7.14-35.26,12.59s-2.35-2.51,6.3-7.56a275.77,275.77,0,0,1,24.77-12.17" transform="translate(0 0)"/><path class="cls-10" d="M492.34,342.22a3,3,0,1,0,3-3,3,3,0,0,0-3,3" transform="translate(0 0)"/><path class="cls-10" d="M424,342.22a3,3,0,1,0,3-3,3,3,0,0,0-3,3" transform="translate(0 0)"/><path class="cls-11" d="M499.57,342.22a3,3,0,1,0,3-3,3,3,0,0,0-3,3" transform="translate(0 0)"/><path class="cls-11" d="M416.78,342.22a3,3,0,1,0,3-3,3,3,0,0,0-3,3" transform="translate(0 0)"/><rect class="cls-11" x="458.02" y="284.61" width="6.3" height="11.02"/><path class="cls-11" d="M453.3,278.79a6.14,6.14,0,0,0,6.14,6.14h3.46a6.14,6.14,0,0,0,0-12.28h-3.46a6.14,6.14,0,0,0-6.14,6.14" transform="translate(0 0)"/><path class="cls-12" d="M414.38,273.17c-.15-.72-.24-5.25-.24-6,0-5,3.2-9,7.16-9H501c4,0,7.15,4,7.15,9,0,.78-.09,5.31-.23,6Z" transform="translate(0 0)"/><path class="cls-11" d="M508.93,275.6c0,1.52-.89,2.75-2,2.75H415.38c-1.09,0-2-1.23-2-2.75s.89-2.75,2-2.75H507c1.09,0,2,1.23,2,2.75" transform="translate(0 0)"/><path class="cls-12" d="M504.47,227.13c-2,.15-14.47.37-16.62.39-13.68.17-25.47-2.4-26.12-5.77a116.8,116.8,0,0,1-.35-42.37c.58-3.37,12.55-5.94,26.52-5.76,2.2,0,15,.25,17,.39a114.61,114.61,0,0,0-.38,53.13" transform="translate(0 0)"/><path class="cls-11" d="M506.35,174c1.53,0,2.6.75,2.39,1.62a114.45,114.45,0,0,0-.43,49.89c.19.88-.86,1.61-2.36,1.62s-2.89-.68-3.08-1.56a114.65,114.65,0,0,1,.33-50c.21-.88,1.62-1.58,3.15-1.56" transform="translate(0 0)"/><path class="cls-23" d="M507,227.1a33.37,33.37,0,0,1-3.59.24c-3,0-6.05-2.59-6.64-5.91a114.89,114.89,0,0,1,.19-41.73,7.34,7.34,0,0,1,6.81-5.91,35.24,35.24,0,0,1,3.66.24A114.55,114.55,0,0,0,507,227.1" transform="translate(0 0)"/><path class="cls-15" d="M424,187.2s-.1,3.48-17,3.5-41.72-4.14-41.72-4.14l39-3.68s15-.7,19.73,4.33" transform="translate(0 0)"/><path class="cls-15" d="M378.56,187.78c-8,.25-11.36,4.39-14.5,5.74a55.87,55.87,0,0,0-6.27,3.33c1.68-3.5,4.27-3.67,5.54-4.83s.94-.59-1.92-.71c-1.63-.07-4.4,2.89-6.41,4.54a6.54,6.54,0,0,1-2.85,1.57,35.54,35.54,0,0,1,4.57-5.38,41.18,41.18,0,0,1,7.92-5.8c1.7-.72,7.07-1.08,10.91-.69,4.34.44,8.81,2,3,2.23" transform="translate(0 0)"/><path class="cls-15" d="M365.07,186.39s-6.1,1.76-7.16,2.61c-.74.59-3.77,4-3.77,4a8,8,0,0,0,3.58-1.73c1.29-1.29,7.35-4.86,7.35-4.86" transform="translate(0 0)"/><path class="cls-32" d="M416.33,180.11s15.59.44,14.83,9.7c-.42,5.26-3.91,7.2-8.62,7-8.76-.41-18.7-1.34-18.7-1.34l-4.91-14.19Z" transform="translate(0 0)"/><path class="cls-32" d="M419.63,181.28l13.6-48s2-7,5.75-5.85c5.4,1.7,3,7.48,2.6,10.87-.72,6.91,0,9.88-4.33,26.64-2.68,10.33-4.9,22.2-7.32,29-1.66,4.7-5-1.83-9.76-3.52-8.89-3.16-.54-9.14-.54-9.14" transform="translate(0 0)"/><path class="cls-33" d="M446,117.78A19.81,19.81,0,1,0,461.1,94.53,19.6,19.6,0,0,0,446,117.78" transform="translate(0 0)"/><path class="cls-33" d="M427.78,107a14.89,14.89,0,0,0,17.79,11.27l2.09-7.71a14.89,14.89,0,0,0,11.27-17.79l-1.22-5.45a14.89,14.89,0,0,0-17.78-11.28l-3.63.81A14.89,14.89,0,0,0,425,94.69Z" transform="translate(0 0)"/><path class="cls-17" d="M428.8,84.38a29.22,29.22,0,0,0,1.27,4c3.56,9,10.82,14.82,17.21,14.3a45.32,45.32,0,0,0,4.58,10.79c2,3.42,7.16,6.34,7.16,6.34,2.51,6.28-22.63,27.32-23.71,26.77-2.28-1.17,1.81-16.28,5.92-21,1.93-2.2,3.89-4.78,3.94-6.26.14-5.19-1.5-6.29-4-8.66a12.19,12.19,0,0,0-9.39-2.12,1.71,1.71,0,0,1-1.35-.26,10.51,10.51,0,0,1-1.14-2.94l-2.68-12a10.51,10.51,0,0,1,2.19-9" transform="translate(0 0)"/><path class="cls-5" d="M454.87,218s-6.44,5.83-8.25,6.35c-2.42.69-9.21-2.24-9.21-2.24s1.87-30.25,1.17-42.23-3.51-15.45-3.19-19.15c.52-5.92-4.28-8.94-2.86-13.45s5-20.73,5.23-18.47c2.09,19.17,9.44,4.39,10.91,2.07.81-1.27,6.2,87.13,6.2,87.13" transform="translate(0 0)"/><path class="cls-34" d="M441.42,123.68s-8.52,6.25-8.41,9.13-4.4,11.42-2.57,24.24c2.09,14.64,2.87,24.47,2.44,33.81S428.14,208.3,428,219.8c-.12,9,1.95,9.81,1.95,9.81a7.47,7.47,0,0,0,7.32-1.61c3.34-3.08,2.75-33.91,2.24-41.67s-2.93-26-3.49-31.37a56.58,56.58,0,0,1,.7-15,63.63,63.63,0,0,1,3.58-13c.17-.41,2.38-2.19,2.52-2.51.6-1.4-.7-1.57-1.4-.78" transform="translate(0 0)"/><path class="cls-32" d="M443.68,120.54s1.77-.37.26,1.66a4.2,4.2,0,0,0-.87,2.09s-.77-.8-1.92.35-2.7,2.35-2.7,2.35a29.24,29.24,0,0,1,1.31-3.22c.87-.78,3.92-3.22,3.92-3.22" transform="translate(0 0)"/><path class="cls-33" d="M451.66,144.11a20.69,20.69,0,1,0,15.75-24.28,20.47,20.47,0,0,0-15.75,24.28" transform="translate(0 0)"/><polygon class="cls-17" points="409.1 321.49 412.97 351.15 396.25 358.82 386.97 360.78 403.44 348.48 398.06 321.72 409.1 321.49"/><path class="cls-18" d="M414.06,355.62l-3.63.94L408,354.38l-13.35,6.48-11.84,2.71a2.19,2.19,0,0,1,.25-1.43c1.49-1.87,9.78-6.06,9.78-6.06s.13,2.75,1.31,2.83,11.41-5.11,13.78-6.56c4.07-2.49,4.84-4,5.15-3.85.82.51,1,7.12,1,7.12" transform="translate(0 0)"/><polygon class="cls-17" points="368.75 280.25 355.48 305.52 337.11 304.62 327.97 302.08 348.26 298.76 359.33 277.17 368.75 280.25"/><path class="cls-18" d="M354.39,310l-3.65-.83-1.15-3.07-16.47-.24-9.83-2.23A8.3,8.3,0,0,1,325.2,302c2.19-.88,10-1.34,10-1.34s-.82,2.15.19,2.77,12.33,1,15.1.79c4.77-.33,6.15-1.35,6.34-1,.49.83-2.41,6.77-2.41,6.77" transform="translate(0 0)"/><path class="cls-27" d="M465.79,204.66,455.88,209l-4.31,12.93L387.83,211.4s-6.49-2-10.63,8.25c-5.89,14.6-20.86,60-20.86,60l9.48,9.91,29.73-51.27s60.92,28.57,81,22.4c7.71-2.37,13.6-16,12.49-29.73a176.37,176.37,0,0,0-3-20.68Z" transform="translate(0 0)"/><path class="cls-16" d="M457.17,260.34l-48.75-3.51L412.61,332l-14.37.46-10.62-88.09s2.86-13.11,12.17-11.13,31.84,19.24,57.37,27.05" transform="translate(0 0)"/><path class="cls-34" d="M451,223.76s-1.17-30.6-2.07-45.12-.7-42.53-.89-46a42.62,42.62,0,0,1,.76-8.41s4.41-7.52,9.33-6.87c4.32.58,11,6.6,15.17,9.38s3.63,53.89,3.83,56.47c.74,9.3,6.27,18.47,10.45,27.4,2.68,5.72,3.29,14.76,3.29,14.76s-24.82-4.76-39.88-1.6" transform="translate(0 0)"/><polygon class="cls-32" points="456.61 114.96 453.11 118.41 448.19 123.69 450.68 129.62 459.37 117.43 456.61 114.96"/><path class="cls-17" d="M463.28,194.92s-.53,3.74-20.57,1.53-49-10-49-10l46.67,1.17s17.83,1.22,22.87,7.26" transform="translate(0 0)"/><path class="cls-17" d="M409.36,189.57c-9.56-.79-14,3.23-17.88,4.27a69.29,69.29,0,0,0-7.82,2.75c2.41-3.54,5.5-3.4,7.14-4.47s1.19-.51-2.19-1c-1.93-.29-5.56,2.53-8.14,4.05a8.11,8.11,0,0,1-3.57,1.32,39.36,39.36,0,0,1,6.06-5.2A49.09,49.09,0,0,1,393,186.08c2.1-.56,8.5-.23,13,.69,5.09,1,10.2,3.37,3.31,2.8" transform="translate(0 0)"/><path class="cls-17" d="M393.53,186.29s-7.44,1.09-8.79,1.86c-.94.54-4.94,3.8-4.94,3.8a10.09,10.09,0,0,0,4.45-1.4c1.68-1.22,9.29-4.27,9.29-4.27" transform="translate(0 0)"/><path class="cls-32" d="M455.05,186.28l2.23-47.35s2.55-9.92,6.27-12.2C468,124,474,129,474,129s3.11,7.4,1,42.31c-1.4,23.36-3.55,35.45-14.62,33.74-10.33-1.59-22-3.91-22-3.91l-4.15-15.93Z" transform="translate(0 0)"/><path class="cls-35" d="M415.22,198l0-.07,0-2.35H318V198a.14.14,0,0,0,0,.07l.25.44c1.25,2,3.49,2.4,6.06,2.4h84.64c2.57,0,4.81-.37,6.06-2.4Z" transform="translate(0 0)"/><path class="cls-20" d="M391.78,198.44s0,0,0,.06l.24.35a4,4,0,0,0,1.42,1.2h14.79c2.47,0,4.63-.3,5.83-1.94l.23-.36,0-.06,0-1.16H391.78Z" transform="translate(0 0)"/><rect class="cls-20" x="330.06" y="196.17" width="48.6" height="1.66"/><path class="cls-36" d="M391.24,195.54l-12.61-47.79a3.18,3.18,0,0,0-2.88-2.28H307.51a1.7,1.7,0,0,0-1.68,2.28l12.61,47.79Z" transform="translate(0 0)"/><path class="cls-20" d="M352.65,170.5a3.29,3.29,0,0,1-3.25,4.42,6.16,6.16,0,0,1-5.58-4.42,3.29,3.29,0,0,1,3.25-4.42,6.15,6.15,0,0,1,5.58,4.42" transform="translate(0 0)"/><polygon class="cls-4" points="114.47 365.06 124.42 365.06 108 205.99 93.56 205.99 114.47 365.06"/><polygon class="cls-37" points="94.53 213.32 113.84 262.41 108.37 209.58 108 205.99 95.38 205.99 94.53 213.32"/><polygon class="cls-4" points="9.96 365.06 0 365.06 16.42 205.99 30.86 205.99 9.96 365.06"/><polygon class="cls-37" points="29.89 213.32 23.56 261.49 16.05 209.58 16.42 205.99 29.04 205.99 29.89 213.32"/><polygon class="cls-4" points="433.63 365.06 423.68 365.06 440.11 205.99 454.54 205.99 433.63 365.06"/><polygon class="cls-37" points="453.58 213.32 447.25 261.49 439.73 209.58 440.11 205.99 452.72 205.99 453.58 213.32"/><polygon class="cls-4" points="538.15 365.06 548.1 365.06 531.68 205.99 517.25 205.99 538.15 365.06"/><polygon class="cls-37" points="518.21 213.32 537.53 262.41 532.05 209.58 531.68 205.99 519.06 205.99 518.21 213.32"/><rect class="cls-11" x="239.83" y="200.82" width="305.78" height="9.3"/><g class="cls-38"><rect class="cls-39" x="4.56" y="200.82" width="426.59" height="9.3"/></g><path class="cls-2" d="M118.72,67.92a5.64,5.64,0,0,0,5.64,5.64h3.76V86.72l13.16-13.16h43.24a5.64,5.64,0,0,0,5.64-5.64v-47a5.64,5.64,0,0,0-5.64-5.64H124.36a5.64,5.64,0,0,0-5.64,5.64Z" transform="translate(0 0)"/><path class="cls-5" d="M174.11,21.81C174.43,10.07,167.62.36,154.81,0s-20.14,9-20.46,20.72c-.25,9.16,6.09,12.52,11.33,20.26,1,1.53-.2,7.4-.2,7.4l16,.44s-.92-5.93.2-7.4C167.35,34,173.87,31,174.11,21.81" transform="translate(0 0)"/><path class="cls-40" d="M152.27,44.66c-7.25-10.7-16-15.34-15.66-28a37.32,37.32,0,0,1,1-7.84,24.05,24.05,0,0,0-3.3,11.9c-.25,9.16,6.09,12.52,11.33,20.26,1,1.53-.2,7.4-.2,7.4l7.35.2a7.47,7.47,0,0,0-.55-3.94" transform="translate(0 0)"/><path class="cls-13" d="M145.2,48.39l-.06,2.21a6.63,6.63,0,0,0,6.45,6.81l3.31.09A6.63,6.63,0,0,0,161.71,51l.06-2.21Z" transform="translate(0 0)"/><polygon class="cls-41" points="160.67 22.12 158.22 18.74 155.59 21.98 153.14 18.6 150.51 21.84 148.06 18.46 146.12 20.86 144.83 19.82 148.13 15.74 150.58 19.12 153.21 15.88 155.66 19.26 158.29 16.01 160.74 19.4 163.38 16.15 166.47 20.41 165.13 21.38 163.3 18.87 160.67 22.12"/><polygon class="cls-41" points="152.15 48.3 150.49 48.25 150.86 34.49 147.53 23.56 149.12 23.08 152.53 34.26 152.15 48.3"/><polygon class="cls-41" points="157.23 48.44 155.57 48.39 156 34.23 159.97 23.38 161.53 23.95 157.6 34.67 157.23 48.44"/><rect class="cls-42" x="153.97" y="45.47" width="1.72" height="10.36" transform="translate(99.99 204.05) rotate(-88.44)"/><rect class="cls-42" x="152.44" y="49.99" width="1.72" height="7.46" transform="translate(95.41 205.49) rotate(-88.43)"/><rect class="cls-6" x="363.58" y="53.64" width="2.39" height="8.26"/><rect class="cls-6" x="363.58" y="44.12" width="2.39" height="5.77"/><rect class="cls-6" x="361.19" y="43.89" width="7.17" height="2.39"/><path class="cls-6" d="M366.52,61.3a1.79,1.79,0,1,1-1.79-1.79,1.79,1.79,0,0,1,1.79,1.79" transform="translate(0 0)"/><rect class="cls-6" x="370.02" y="49.29" width="5.07" height="2.39" transform="translate(73.42 278.22) rotate(-45)"/><rect class="cls-6" x="348.04" y="59.43" width="10.76" height="2.39"/><rect class="cls-6" x="350.43" y="65.4" width="10.76" height="2.39"/><path class="cls-6" d="M352.79,59.43a11.87,11.87,0,0,0-.07,1.27,12.09,12.09,0,0,0,.23,2.31h2.45a9.56,9.56,0,0,1-.29-2.31,9.37,9.37,0,0,1,.1-1.27Z" transform="translate(0 0)"/><path class="cls-6" d="M364.72,48.69A12,12,0,0,0,353.29,57h2.54a9.62,9.62,0,1,1,.51,8.37h-2.67a12,12,0,1,0,11-16.71" transform="translate(0 0)"/><rect class="cls-6" x="348.04" y="53.45" width="3.58" height="2.39"/></svg>