<svg id="Layer_1" data-name="Layer 1" xmlns="http://www.w3.org/2000/svg" xmlns:xlink="http://www.w3.org/1999/xlink" viewBox="0 0 871.82 593.22"><defs><style>.cls-1{fill:none;}.cls-2{fill:#bdffd8;}.cls-3{fill:#008baf;}.cls-4{fill:#004381;}.cls-5{fill:#ffd0ce;}.cls-6{fill:#0096c6;}.cls-7{clip-path:url(#clip-path);}.cls-8{fill:url(#linear-gradient);}.cls-9{fill:#003977;}.cls-10{fill:#00649f;}.cls-11{clip-path:url(#clip-path-2);}.cls-12{fill:url(#linear-gradient-2);}.cls-13{clip-path:url(#clip-path-3);}.cls-14{fill:url(#linear-gradient-3);}.cls-15{clip-path:url(#clip-path-4);}.cls-16{fill:url(#linear-gradient-4);}.cls-17{fill:#00add6;}.cls-18{fill:#dcfafb;}.cls-19{fill:#ea659d;}.cls-20{clip-path:url(#clip-path-5);}.cls-21{fill:url(#linear-gradient-5);}.cls-22{fill:#b4f1f4;}.cls-23{fill:#00a6ba;}.cls-24{fill:#4674a5;}.cls-25{fill:#005592;}.cls-26{fill:#6df3c7;}.cls-27{fill:#fff;}.cls-28{clip-path:url(#clip-path-6);}.cls-29{fill:url(#linear-gradient-6);}.cls-30{opacity:0.6;}.cls-31{clip-path:url(#clip-path-7);}.cls-32{fill:#4acfd3;}.cls-33{fill:#aff9f5;}</style><clipPath id="clip-path"><path class="cls-1" d="M617.75,445.32c-.65,21.24,5.53,91.26,4.4,97.79-5.93,7.13-12.51,23.74-12.51,23.74s-14.54,3.5-14.31,5.86c0,0,16.25,3.31,20.32,1.7,5.25-2.09,10.79-11.31,15.6-14.27,1.31-.81,7.69-1,7.56-2.55-.85-10.2,1.94-34.6,3.24-45.08,5-22.4,27.28-74.43,26.25-97.36-.2-4.5-6.85-121.24-6.85-121.24l-46.7-2.3s3.37,141.31,3,153.71"/></clipPath><linearGradient id="linear-gradient" y1="593.26" x2="1" y2="593.26" gradientTransform="matrix(73.01, 0, 0, -73.01, 571.27, 43745.89)" gradientUnits="userSpaceOnUse"><stop offset="0" stop-color="#ffd0ce"/><stop offset="0.14" stop-color="#ffd0ce"/><stop offset="1" stop-color="#f4aaa7"/></linearGradient><clipPath id="clip-path-2"><path class="cls-1" d="M632.1,144.18c-2,1.05,10.07,22,17.68,21.43,5.74-.46,13.95-8.3,19.6-15.09,2.87-3.45-6.21-11.62-8.39-12a49,49,0,0,0-8.51-.91c-5.68,0-11.19,1.64-20.38,6.58"/></clipPath><linearGradient id="linear-gradient-2" y1="593.2" x2="1" y2="593.2" gradientTransform="matrix(0, 115.54, 115.54, 0, -67885.41, 134.02)" gradientUnits="userSpaceOnUse"><stop offset="0" stop-color="#ffd0ce"/><stop offset="1" stop-color="#f4aaa7"/></linearGradient><clipPath id="clip-path-3"><path class="cls-1" d="M636.57,114.71a1,1,0,0,0-1,.94c-1.54,12.67.4,18.81,1.3,25,1.2,8.3,4.45,10.94,10.4,11.15a10.78,10.78,0,0,0,11.15-10.4,231.42,231.42,0,0,1-1-29.58c.05-1.3-1.17-1.8-3.06-1.8-5.8,0-17.83,4.69-17.83,4.69"/></clipPath><linearGradient id="linear-gradient-3" y1="593.22" x2="1" y2="593.22" gradientTransform="matrix(19.84, -38.18, -44.54, -17.49, 27057.14, 10524.83)" xlink:href="#linear-gradient-2"/><clipPath id="clip-path-4"><path class="cls-1" d="M655.83,97.66a4.61,4.61,0,1,0,6-2.56,4.56,4.56,0,0,0-1.73-.34,4.66,4.66,0,0,0-4.3,2.9"/></clipPath><linearGradient id="linear-gradient-4" y1="593.19" x2="1" y2="593.19" gradientTransform="matrix(0, 9.22, 9.22, 0, -4808.67, 94.99)" xlink:href="#linear-gradient-2"/><clipPath id="clip-path-5"><polygon class="cls-1" points="427.27 111.89 449.94 115.67 466.36 107.74 465.63 81.35 468.59 53.63 461.5 48.1 437.92 47.01 427.27 111.89"/></clipPath><linearGradient id="linear-gradient-5" y1="593.2" x2="1" y2="593.2" gradientTransform="matrix(68.21, 0, 0, 68.12, 413.82, -40326.42)" xlink:href="#linear-gradient-2"/><clipPath id="clip-path-6"><path class="cls-1" d="M1.24,192.88C-10.74,299.16,65.7,395,172,407S374.12,342.53,386.1,236.25,321.63,34.11,215.35,22.14a195.75,195.75,0,0,0-21.93-1.23c-97.23,0-181,73.07-192.19,172"/></clipPath><linearGradient id="linear-gradient-6" y1="593.2" x2="1" y2="593.2" gradientTransform="matrix(387.33, 0, 0, -387.33, 0, 229985.65)" gradientUnits="userSpaceOnUse"><stop offset="0" stop-color="#93f7d6"/><stop offset="1" stop-color="#9bfffa"/></linearGradient><clipPath id="clip-path-7"><rect class="cls-1" x="38.7" y="59.6" width="309.93" height="309.93"/></clipPath></defs><title>step4</title><path class="cls-2" d="M812.22,289.5a1.68,1.68,0,0,0-1.71-1.65h0a1.68,1.68,0,0,0-1.64,1.71c0,.25.36,24.89-6.31,62.21-6.16,34.47-19.74,87.06-49.46,141.8-19.77,36.42-42.59,62.1-65,79.62h15.54c18.56-16.49,37.42-39.47,56-73.72C789.6,444.33,802.73,385.73,808.93,351c6.73-37.64,3.3-61.27,3.29-61.51"/><path class="cls-2" d="M800.33,376.38c1-19.65,16.92-53.35,40.34-64.85,20-9.81,31.05-22.21,31.05-22.21a119.2,119.2,0,0,1-4,35.14c-3.42,12.64-16.48,27-29.78,30.63a86.37,86.37,0,0,0-37.63,21.3"/><path class="cls-2" d="M809.44,312.81c-5.73-25.37-15.45-41.54-8-65.28,5.62-18,6.55-41.31,6.55-41.31s13.5,13.13,20.91,29c6.69,14.32,5.87,31-.86,43.47-4.85,9-18.57,34.13-18.57,34.13"/><path class="cls-2" d="M767.74,472.45C779.25,446,795.66,403.74,814,392c21.32-13.69,34.72-15.15,47.44-28.95,0,0-.76,14.23-5.86,37.61-4.61,21.12-17.13,45.64-39.08,50.73-27.36,6.35-48.72,21.06-48.72,21.06"/><path class="cls-2" d="M770.85,264.8c10.39,33,46.14,68.38,27.29,126.65,0,0-11.22-23.06-22.44-32.68-16.41-14.07-19.7-36.19-16.31-57.21,2.44-15.15,11.46-36.76,11.46-36.76"/><path class="cls-2" d="M714.41,573.19a84,84,0,0,1,33.31-7.09c58.72.48,62.67-23,99-47.85,0,0-35.47-11-58-14.75-28.94-4.78-45.17,16.77-57.21,29.19-10.76,11.1-23.45,28.13-32.21,40.5Z"/><path class="cls-2" d="M702.74,568.37c-11.52-39-16.47-73.8-15.4-95.15a144.89,144.89,0,0,1,14.94-56.53s-.94,5.66,20,24.45c18.94,17,25.86,34,23,58.9-3.23,28.45-42.62,68.33-42.62,68.33"/><path class="cls-2" d="M760.8,486.24C750,453.13,726.71,439.09,730,405c2.66-27.44-12.11-45.93-12.11-45.93s27.57,7.38,46,23c16.63,14.06,16.88,27,17,48.41.15,29.26-20.07,55.78-20.07,55.78"/><path class="cls-3" d="M473.88,101.09c0-9.9-12.19-17.92-26.4-17.92s-27.93,8.44-27.93,18.33S433.26,119,447.48,119s26.4-8,26.4-17.92"/><path class="cls-4" d="M457.87,45.93c-1.49,8,3.23,9.41,5.75,9.47,14,.36,26.09-45,6.58-44.36-13.35.43-10.72,26.29-12.33,34.89"/><path class="cls-5" d="M508.3,274.13c0-.37.19-.51.18-.61s-.56-.25-.64-.45a1.69,1.69,0,0,1,1-2,12.05,12.05,0,0,1,6.33-1.21c.74.07,5.67-2.07,5.67-2.07s-6.59-.28-10.93,1.6c-1.21.52-3.33,0-.63-2.51,3.57-3.36,13.7-4,18.09-6.23,6.18-3.14,12.69-12.18,18.82-11.43,11.72,1.44,12.74,4,16,7.19a4.32,4.32,0,0,0,2.33,2.5c1.24.61-7,7.09-15.14,7.51-1.16,0-1.93,2.38-8.72,6.47-4.65,2.8-8.42,2.19-10.15,3-6.63,3.19-10.55,1.65-12.21,2.14s-2.47-.8-1.1-1.67c2.15-1.36,5.77-1.29,5.77-1.29s-5.25.65-6.62,1c-.87.23-4.17-.69-5.66-.58-.35,0-2.41-.41-2.44-1.41"/><path class="cls-6" d="M623.73,163.66c-7.15,12.19-33.34,43.55-33.34,43.55l-43.91,36.72,6.38,18.8a86.47,86.47,0,0,0,11.35-3.24c20.29-8,43-31.17,50.5-36.63,3.21-2.33,19.5-28.38,25.31-49.12,1.19-4.24-6.82-26.26-16.31-10.08"/><g class="cls-7"><rect class="cls-8" x="488.2" y="389" width="288.04" height="89.64" transform="translate(164.56 1041.43) rotate(-86.87)"/></g><path class="cls-9" d="M639.17,544.14c-.51.06-5.26,4.71-6.66,6.52-4.27,5.53-9.46,12-20.82,10.34a42.49,42.49,0,0,0-2.9,4.24s-13.7,5.11-13.46,7.46c0,0,17,3.16,21.07,1.55,5.25-2.09,10-11.16,14.85-14.12a5.82,5.82,0,0,1,1.6-.49l-.61,13.7h1.46l5.78-14.73c.17-.43,1.07-5.42-.31-14.48"/><path class="cls-5" d="M681.86,437.34c0-11-2.8-35.42-2.8-35.42l-37.64,5.84s.44,36.9.58,49.31c.24,21.24.91,86.92.05,93.48-5.63,7.37-11.49,24.25-11.49,24.25s-14.38,4.11-14,6.46c0,0,16.38,2.63,20.37.84,5.16-2.31,10.3-11.76,15-14.92,1.28-.86,7.64-1.33,7.45-2.86-1-8.26-.62-24.82,4-40.15,2.2-7.26,18.51-57.92,18.51-86.82"/><path class="cls-9" d="M659.11,550.86c-.51.09-5.06,4.93-6.38,6.8-4,5.7-8.94,12.39-20.36,11.21a42.18,42.18,0,0,0-2.72,4.36s-13.47,5.68-13.13,8c0,0,17.13,2.45,21.12.66,5.16-2.31,9.56-11.58,14.24-14.74a5.82,5.82,0,0,1,1.58-.56l0,13.71,1.46,0,5.16-15c.15-.44.84-5.46-.92-14.46"/><path class="cls-10" d="M691.78,91.14C703.05,90,709.51,79.2,708.32,70c-1.14-8.84-14.07-16.24-24.73-12.39-6.1,2.21-9.52,10.61-8.62,18,1,8.38,2.76,16.94,16.81,15.52"/><g class="cls-11"><rect class="cls-12" x="625.81" y="127.64" width="50.79" height="48.54" transform="translate(45.64 435.53) rotate(-38.23)"/></g><g class="cls-13"><polygon class="cls-14" points="615.91 144.9 638.16 102.07 676.53 117.14 654.28 159.97 615.91 144.9"/></g><path class="cls-5" d="M665.26,102.48c-3.08,15.34-16.08,19-26.3,19.36-4.07.14-11-1.36-13.8-2.77-3.55-1.79-5.24-9.32-3.26-19.92a35.79,35.79,0,0,0-3.54-2,1.73,1.73,0,0,1-.19-3c1.93-1.36,7-5.81,7.44-7.22,4.52-15.38,14.27-21.61,25.72-19s17.09,18.75,13.93,34.46"/><path class="cls-10" d="M685.55,71.87c-3.21-6-23.09-16.83-41.23-13.53-18.57,3.38-22.45,24.72-19.89,23.21,4.23-2.51,2.61-.08,6.13-2.93.86-.69,2.27-4,2.27-4L626.6,82.1a18.66,18.66,0,0,0,9.06-3.21A61.79,61.79,0,0,0,642,72.45s14.54,11.71,16.78,25.29c1,6.28-2.19,17.91-1.39,18.28,2.05,1,9.16-1.26,15.28-4,3.41-1.52,7.4-6.38,9.63-8.89,8.56-9.65,5.92-26.41,3.3-31.29"/><path class="cls-10" d="M679.74,61.88c2.25-2.14,4.6-4.54,7.68-5.43,5.13-1.49,7.71,2,11.6,4.24a.64.64,0,0,0,.77-1c-5.21-5.8-17.5-6.78-20.66,1.83-.13.36.37.6.62.36"/><path class="cls-10" d="M678.53,62.73c1.64-2.71,3.54-5.46,6.31-7.16,5.88-3.61,10.59.72,14.64,4.57.23.22.68-.08.47-.36-3.29-4.4-8.54-7.56-14.1-5.6-3.2,1.13-7.74,4.72-7.87,8.4a.3.3,0,0,0,.56.15"/><path class="cls-10" d="M641.62,69.14c-.14,6.89,3.2,11.47,8.92,14.94,3.07,1.87,5.06,3.16,6.47,6.66,1.15,2.85,2,4.38,4.9,5.93a.58.58,0,0,0,.7-.91c-2.47-2.5-3.18-4.57-4.66-7.54a9.83,9.83,0,0,0-3.84-4c-6.33-4.09-10.59-7.12-12.1-15.1,0-.23-.39-.17-.4.05"/><g class="cls-15"><rect class="cls-16" x="653.52" y="92.99" width="13.15" height="13.46" transform="translate(317.82 672.88) rotate(-67.75)"/></g><path class="cls-6" d="M613.69,229.37s-13.6,12.52-21.83,36.52c-11.71,34.14-17.6,66.7-17.74,115.34-.05,18-1.48,40.79-1.48,40.79s8.26-.55,41.64,15.07c10.89,5.1,34.56,4.35,54.06-.8,9.74-2.57,17.08,0,22.6-1.25,5.73-1.3,13.5-8.25,21-10.6,22.47-7.08,24.12-12.52,24.12-12.52s-15.54-125.33-37.33-156.61c-5.65-8.11-24.95-29.73-24.95-29.73Z"/><path class="cls-17" d="M615.31,201.22s-2.09,8.44-2.52,11.3c-.5,3.36-1.06,13.56-1.06,13.56l31.34,2.6,33.62-4.07a72.83,72.83,0,0,0,5.13-22.66c.54-12.81-2.37-50.76-2.37-50.76l-18.76-17.77-28.08,14-24.41,30.44c-2.86,10.23,7.12,23.39,7.12,23.39"/><path class="cls-18" d="M637.06,141.84l-1,3.7s7.52-5.84,9.56-7.06c3.26-1.95,8.81-5,10.5-7.41.94-1.36,1.44-5.15,1.44-5.15s3,2.4,3.63,3.51c.85,1.61,2.07,4.24,1.3,5.89-2.8,6-19.51,16.11-21.06,17.53a3.35,3.35,0,0,1-3.87,0c-1.12-.83-1.66-4.35-1.66-4.35l-23.72,28.53-.75-.5L634,148.2a50.33,50.33,0,0,1-5.35,1.3.79.79,0,0,1-.69-1l2.31-3.78a68.07,68.07,0,0,1,6.23-6.15Z"/><path class="cls-19" d="M611.73,231.38s23.17,2.91,31.63,2.36c10.31-.67,33.37-4.85,33.37-4.85l0-4.29s-22.62,2.12-33.33,3c-8.82.7-31.63-1.5-31.63-1.5Z"/><g class="cls-20"><rect class="cls-21" x="412.22" y="58.29" width="71.42" height="46.1" transform="translate(334.95 522.35) rotate(-85.92)"/></g><path class="cls-5" d="M430.26,71.36c4.57-.14,11.12-2.15,15.34-2.91,7.61-1.38,10.74-1.91,11.46-7.38l6.24-42.84-35.05-2.94-2.33,20.55c-.13.73-3.27,5.38-8,10.43-1.21,1.29-.47,2.07,0,2.38,1.51.93,5.69,1.44,5.69,1.44s-.34,7.24-.84,13.1c-.49,5.68,1.52,8.34,7.5,8.16"/><path class="cls-22" d="M424.32,103.49s12.82,10,35.75,4.41l-12,79,2.59,65.39-.81,4.21-56.18-4.69,18.33-93Z"/><path class="cls-23" d="M458,592.77c-3.24.23-12.51,1.06-16.37-.37-1.53-.57-4.71-7.69-6.68-12.39-.68-1.64-3.51-5.29-3.2-7.05l2.08-15.83,19.72,3.29a56.61,56.61,0,0,0,.86,6.58c.44,2.15,3,13.27,4.41,14.91,5.34,6,3.7,10.53-.83,10.85"/><path class="cls-23" d="M405.62,542.9l3.76,5.07a24.24,24.24,0,0,1,4,13.38v1.93l-17.95,6.91L387,577.54a7.5,7.5,0,0,1-4.11,1.8l-20,1.3c-2.4.26-5.81.67-7.82-.66,0,0-.73-.34-.85-.56a8.54,8.54,0,0,1,6-8.14l5.17-1.63a18.89,18.89,0,0,0,11.21-9.57l7.21-13.19Z"/><polygon class="cls-23" points="411.3 572.34 413.4 563.28 395.45 570.2 396.92 574.46 411.3 572.34"/><path class="cls-24" d="M475,254.42l9,61.53s-10.08,107.68-10.77,111.27c-3.47,18.3-1.66,42.65-2.75,54.68-1.9,20.89-12.74,82.76-12.74,82.76H430.42s.94-64.6,3.41-84.8c1.47-12-3.53-61.09-3.53-81.76,0-23.63-8.73-76.43-8.73-76.43S401.69,407,404.43,424.76c7.23,47,9,125.33,9,125.33l-36.81,2.31s-8-104.49-15.15-133.86a98.3,98.3,0,0,1-2.14-23.1c2.11-37.33,8.68-87.1,8.68-87.1l1.21-31.8,20.94-31.12Z"/><path class="cls-23" d="M512.3,116.32,466.39,90s-27.26,83.92-29.46,109.54C434.64,226.15,449.4,277,459,304.42a11.23,11.23,0,0,0,5.95,6l.07,0a10.42,10.42,0,0,0,9.22-1l20.12-13S480.51,239,479.62,219.59c-.49-10.66,8.79-44.87,8.79-44.87Z"/><path class="cls-23" d="M425.41,91.7s-4.51,76-9.34,100.8c-2.51,12.89-14.16,48-16.37,54.57a10.94,10.94,0,0,1-.94,2.06L381,279.35c-1.67,2.83-5.55.35-7.19-.39-2.37-1.06-9.87-3.17-9.87-3.17l20.83-58.92s3-21,3.17-30c.35-20.42-5.71-82.54-5.71-82.54Z"/><path class="cls-23" d="M387.44,114.54c-2-4.5-5.21-10.22-5.21-10.22l-29.6,96.94-18.94,44.16,21.75,7.12s15.22-17.1,21-27.83c2.89-5.36,17.41-51.69,18.23-60.17,1.2-12.35-1.81-37.8-7.23-50"/><path class="cls-3" d="M474.5,96.25c1.27,4.22,6.56,22.7,6.56,22.7l-9,1.95,7.39,6.62-40.43,59.35S446,155,453.61,127.53c5.34-19.19,12.11-36.36,12.71-38.89,0,0,5.42,3.49,7,4.81a8.4,8.4,0,0,1,1.15,2.8"/><path class="cls-3" d="M403,111.95l7.37,4.89-9,3.36,15.55,67.58s4.31-26.19,7-52.88c2-19.8,3.41-41.81,4.47-46.41,0,0-9.09,3.77-10.68,5-1,.79-14.75,18.45-14.75,18.45"/><path class="cls-25" d="M427.21,24.43c11.77,3.33,26.56-3.2,37.48-3.64,7.85-.32,8.92-8.45,5.65-12.36C463.5.23,453.94-.42,446,.16c-16.66,1.22-16,8.83-26.54,6.21-2.17-.54-4,0-3.68,1.78,1.36,8.13,2.5,13.76,11.4,16.28"/><path class="cls-26" d="M733.3,265.91h0c-1.25,13.79-11.28,24.15-22.41,23.15L432,264.79l4.51-49.93L715.4,239.12c11.13,1,19.15,13,17.9,26.79"/><rect class="cls-18" x="371.66" y="197.6" width="39.34" height="76.59" transform="matrix(0.09, -1, 1, 0.09, 121.18, 604.41)"/><path class="cls-19" d="M420.16,273.95l6.37-70.5a7.63,7.63,0,1,1,15.21,1.37l-6.37,70.5a7.64,7.64,0,0,1-15.21-1.37"/><path class="cls-27" d="M698.1,255.77h-.27l-240.1-20.94a3,3,0,1,1,.52-6l240.1,20.95a3,3,0,0,1-.26,6"/><path class="cls-5" d="M484.12,258.93l-9.62,4.3L464,269.68s-3.63,3.22-6,3.2c-1.6,0-5,1.21-10.63-.83-.74-.27-2,.28-2.8-.15-.59-.32-3-2.23-3-2.23s-3-.42-3.56-1c-.36-.39-1.63-3.27-1.08-3.46,1.65-.55,3-.42,4.83-2.61a38.49,38.49,0,0,1,9.61-8.3s-4.85-.45-6.58.09c-6.44,2-8.54-.55-9.18-2.17a8.56,8.56,0,0,1,.09-2.87s8.14-.58,10.8-1.15c2.86-.61,5.07-3,11-3.39,1.38-.1,12.35,1.64,13,1.49s9.36-2.93,9.36-2.93Z"/><path class="cls-23" d="M512.3,116.32l-27,52s20.94,42.56,22.07,49.45c1,6.11-38.77,26.92-38.77,26.92l10.83,21.5s65-34.26,65-46c0-10-23.21-65-27.9-85.3-1.21-5.26-4.24-18.55-4.24-18.55"/><path class="cls-5" d="M606.5,251.23c.19-.06,4.64-2,7.27-1.29,5.26,1.42,11.15,10,16.47,11.15.83.18,3.35.63,3.35.63l8.19,7.15s-2.9,4.71-3,5-7.15,2.37-9.48,1.74c-3.18-.86-7-7.42-10.19-8.34-1.85-.54-5.62,1.45-7.54,1.57a5.74,5.74,0,0,1-2.58-.19,3.32,3.32,0,0,1-.58-.9,11.31,11.31,0,0,1-3.1.71,10.6,10.6,0,0,1-2.58-1.48L613,260l-6.19,1.16s-3.69,1.91-5,1.91a2.15,2.15,0,0,1-2-1.39l11-7.61s-7.26,1.36-9.16.37a7.08,7.08,0,0,1-1.81-1.83Z"/><path class="cls-17" d="M669.72,191l11,40.8L632.6,260.37l4.52,15.31s17.57-2.4,22.84-4c9.13-2.8,47-21.84,49-30.46,2.67-11.61-7.12-60.38-13.25-71.17-1.72-3-14.37-27.37-25.32-21.85-9.6,4.85-.65,42.83-.65,42.83"/><path class="cls-4" d="M455.8,25.87c1.57,8.69.21,16.64,2.66,16,3.61-.91,11.19-3.84,13.36-4.27C483,35.46,483.56,9.93,468.17,11c-7,.5-13.92,6.23-12.37,14.84"/><g class="cls-28"><rect class="cls-29" x="-10.74" y="20.9" width="408.81" height="398.07"/></g><g class="cls-30"><g class="cls-31"><path class="cls-32" d="M211,60.59A155,155,0,1,1,39.69,197.21,155,155,0,0,1,211,60.59"/></g></g><path class="cls-27" d="M209.51,74A141.46,141.46,0,1,1,53.1,198.73,141.46,141.46,0,0,1,209.51,74"/><path class="cls-18" d="M209.51,74A141.44,141.44,0,0,0,111,329.34H276.3A141.43,141.43,0,0,0,209.51,74"/><path class="cls-33" d="M244.41,160.39l-19.84-21a6.1,6.1,0,0,0-4.43-1.91H147.35a6.1,6.1,0,0,0-6.1,6.1v110a6.1,6.1,0,0,0,6.1,6.1H240a6.1,6.1,0,0,0,6.1-6.1v-89a6.1,6.1,0,0,0-1.67-4.19m-20-3.43,3.83,4.05h-3.83Zm9.51,90.5H153.45V149.7h58.71v17.42a6.1,6.1,0,0,0,6.1,6.1h15.61Z"/><path class="cls-33" d="M180.17,174.85l-8.58,8.58-3.89-3.89a6.1,6.1,0,0,0-8.63,8.63l8.21,8.2a6.1,6.1,0,0,0,8.63,0l12.89-12.89a6.1,6.1,0,0,0-8.63-8.63"/><path class="cls-33" d="M180.18,212.69l-8.58,8.58-3.89-3.89a6.1,6.1,0,1,0-8.63,8.63l8.21,8.2a6.1,6.1,0,0,0,8.63,0l12.89-12.89a6.1,6.1,0,1,0-8.63-8.63"/><path class="cls-33" d="M195.12,185.61a6.1,6.1,0,0,0,6.1,6.1H222.9a6.1,6.1,0,1,0,0-12.2H201.22a6.1,6.1,0,0,0-6.1,6.1"/><path class="cls-33" d="M222.85,217.34H201.43a6.1,6.1,0,0,0,0,12.2h21.42a6.1,6.1,0,1,0,0-12.2"/><path class="cls-18" d="M302,447.28a8.91,8.91,0,1,1,8.68-6.89,8.92,8.92,0,0,1-8.68,6.89m0-13.82a4.92,4.92,0,1,0,1.12.13,4.92,4.92,0,0,0-1.12-.13"/></svg>