<svg id="Layer_1" data-name="Layer 1" xmlns="http://www.w3.org/2000/svg" xmlns:xlink="http://www.w3.org/1999/xlink" viewBox="0 0 1220.87 450.58"><defs><style>.cls-1{fill:none;}.cls-2{fill:#e3e3e9;}.cls-3{clip-path:url(#clip-path);}.cls-4{fill:url(#linear-gradient);}.cls-5{fill:#335fa8;}.cls-6{fill:#b62339;}.cls-7{fill:#b2b2b2;}.cls-8{fill:#fff;}.cls-9{fill:#000001;}.cls-10{fill:#f0c43a;}.cls-11{fill:#20bbc0;}.cls-12{fill:#c92737;}.cls-13{fill:#0571b4;}.cls-14{clip-path:url(#clip-path-2);}.cls-15{fill:url(#linear-gradient-2);}.cls-16{fill:#5abfd7;}.cls-17{fill:#4db9bc;}.cls-18{fill:#ba2d48;}.cls-19{fill:#474286;}.cls-20{fill:#d5d5d9;}.cls-21{fill:#ebc341;}.cls-22{clip-path:url(#clip-path-3);}.cls-23{fill:url(#linear-gradient-3);}.cls-24{fill:#38b8d2;}.cls-25{fill:#de2d48;}.cls-26{fill:#7ac9e0;}.cls-27{fill:#037ec1;}.cls-28{fill:#7bc9df;}.cls-29{clip-path:url(#clip-path-4);}.cls-30{fill:url(#linear-gradient-4);}.cls-31{fill:#274293;}.cls-32{fill:#2f509d;}.cls-33{clip-path:url(#clip-path-5);}.cls-34{fill:url(#linear-gradient-5);}.cls-35{clip-path:url(#clip-path-6);}.cls-36{fill:url(#linear-gradient-6);}.cls-37{fill:#4f539e;}.cls-38{fill:#69c1cb;}.cls-39{fill:#cbc9ca;}.cls-40{fill:#2d4b99;}.cls-41{fill:#ef91b7;}.cls-42{clip-path:url(#clip-path-7);}.cls-43{fill:url(#linear-gradient-7);}.cls-44{fill:#f2adcc;}.cls-45{fill:#e5e5e5;}.cls-46{clip-path:url(#clip-path-8);}.cls-47{fill:url(#linear-gradient-8);}</style><clipPath id="clip-path"><path class="cls-1" d="M1037.66,150c-13.18,11.93-35.18,36.42-35.18,36.42-13.25,1-18.53,7.1-20,9.25-6,8.75,7.67,10.69,18.12,3,5.13.25,52.34-23.54,57.88-30.31,8.6-10.51,14-25.92,22-41.24-8.85-3.55-19.5-6.46-28.33-9.57-3.09,12.24-11.18,22.22-14.44,32.46"/></clipPath><linearGradient id="linear-gradient" y1="450.57" x2="1" y2="450.57" gradientTransform="matrix(99.42, 0, 0, -99.42, 981.02, 44957.34)" gradientUnits="userSpaceOnUse"><stop offset="0" stop-color="#f0c43a"/><stop offset="0.1" stop-color="#f0c43a"/><stop offset="0.66" stop-color="#edb13d"/><stop offset="1" stop-color="#cd9a38"/></linearGradient><clipPath id="clip-path-2"><path class="cls-1" d="M190.79,187.62c-4,0-8.86,1.43-13,1.75-.57,2.18-1.07,4.28-1.61,6.43q-1.89,2.74-3.77,5.5c1.13.28,2.31.71,3.4.9,3.88-1.49,6.58-5.82,10.87-6.43s9.91,3.24,14.3,3.94c2.83-.43,5.57-1.11,8.36-1.61,0-3.44-.11-6.88-.17-10.32-2.43.44-4.89,1-7.3,1.37-3.83-.23-7-1.53-11-1.53h-.08"/></clipPath><linearGradient id="linear-gradient-2" y1="450.58" y2="450.58" gradientTransform="matrix(0, 36.91, 36.91, 0, -16440.74, 176.49)" xlink:href="#linear-gradient"/><clipPath id="clip-path-3"><path class="cls-1" d="M233.06,70.37s7.81,10.25,10.22,13.33c5.52,7.05,11.13,14.77,11.13,14.77s10.51-2.08,15.16-3.47c4.6-6.51,28.7-12.92,22.12-17.42-14.92-10.22-40.95-17.23-50.92-27.7,0,0-3.71,14.17-7.71,20.5"/></clipPath><linearGradient id="linear-gradient-3" y1="450.52" y2="450.52" gradientTransform="matrix(0, -50.37, -50.37, 0, 22958.74, 95.68)" xlink:href="#linear-gradient"/><clipPath id="clip-path-4"><polygon class="cls-1" points="543.24 50.87 545.94 71.74 551.97 87.28 573.08 69.46 575.53 64.01 559.94 34.43 552.42 34.21 543.24 50.87"/></clipPath><linearGradient id="linear-gradient-4" y1="450.58" y2="450.58" gradientTransform="matrix(53.13, 0, 0, 53.13, 532.59, -23879.84)" xlink:href="#linear-gradient"/><clipPath id="clip-path-5"><path class="cls-1" d="M468.29,238.39l.3,1.21ZM457.62,195l10.67,43.37L530,225.57l-55.56-38.7Zm-44.87,5.59,53.5,38.21,2-.43-16-65.07-62.82-36Z"/></clipPath><linearGradient id="linear-gradient-5" y1="450.64" y2="450.64" gradientTransform="translate(-72186.87 266.83) rotate(-90) scale(161.21)" xlink:href="#linear-gradient"/><clipPath id="clip-path-6"><polygon class="cls-1" points="456.1 188.83 466.25 238.82 529.96 225.57 474.39 186.87 456.1 188.83"/></clipPath><linearGradient id="linear-gradient-6" y1="450.67" y2="450.67" gradientTransform="translate(-36320.78 251.9) rotate(-90) scale(81.69)" xlink:href="#linear-gradient"/><clipPath id="clip-path-7"><path class="cls-1" d="M783.25,67.94s9.37,22.18,11.57,26l16.46-15.59L792.58,51.81Z"/></clipPath><linearGradient id="linear-gradient-7" y1="450.58" y2="450.58" gradientTransform="matrix(0, -40.39, -40.39, 0, 18995.8, 91.87)" xlink:href="#linear-gradient"/><clipPath id="clip-path-8"><path class="cls-1" d="M1047.66,53.06c4.4,9.56,5.74,14.1,9.74,21.8-1.08,1.79-2.16,3.57-3.19,5.38,6.44,5.76,14.19,20.37,14.19,20.37s24.82-23.4,33.47-34.69c-4.35-.88-8.72-1.64-13.07-2.5-7.9-7.83-17-17.86-22.41-27.66-6.39,5.63-22.3,9.57-18.74,17.3"/></clipPath><linearGradient id="linear-gradient-8" y1="450.64" y2="450.64" gradientTransform="matrix(0, -63.52, -63.52, 0, 29699.03, 98.64)" xlink:href="#linear-gradient"/></defs><title>step1</title><rect class="cls-2" x="515.2" y="106.24" width="14.51" height="4" transform="translate(75.81 400.11) rotate(-44.87)"/><rect class="cls-2" x="519.7" y="80.2" width="4" height="14.24" transform="translate(90.41 393.55) rotate(-44.88)"/><rect class="cls-2" x="536.84" y="85.1" width="13.72" height="4" transform="translate(96.98 409.02) rotate(-44.88)"/><rect class="cls-2" x="541.37" y="101.55" width="4" height="15.05" transform="translate(81.36 415.17) rotate(-44.88)"/><g class="cls-3"><rect class="cls-4" x="976.48" y="117.5" width="103.95" height="88.82"/></g><path class="cls-5" d="M976.26,344.18a39.19,39.19,0,0,0-2,4.49l2.11,7.75,10.61-6-.83-7.51Z"/><polygon class="cls-6" points="1084.8 180.52 1129.36 195.38 1114.8 257.99 1017.33 266.86 989.34 346.28 982.98 346.87 972.47 343.48 979.48 229.87 977.73 222.87 980.36 216.91 1050.73 206.53 1064.36 202.5 1084.8 180.52"/><path class="cls-7" d="M987,349.8a28.36,28.36,0,0,1,.59,4.34c.22,2.49-1.79,7.21-1.79,7.21l-3.83.16-19.28,6.27a29.18,29.18,0,0,0-6.87-3.9l-.68-3.27a4.74,4.74,0,0,1,5-4.19c4.54.1,12.36-5.29,12.36-5.29l1.76-2.92A9.56,9.56,0,0,0,975.5,351c.8.69,3.54,2,4.59,1.83,1.88-.22,6.92-3.07,6.92-3.07"/><path class="cls-8" d="M955.81,359.78s5.23,3.84,8.55,3.3a1.43,1.43,0,0,0,1.11-1.91c-.43-1.73-3.55-2.75-5.47-3.09a4.4,4.4,0,0,0-2.94.5c-1.13.7-1.24,1.21-1.24,1.21"/><path class="cls-9" d="M963.36,363.68a15.11,15.11,0,0,1-7.66-3.23l.69-.73a14.45,14.45,0,0,0,7.13,3Z"/><rect class="cls-9" x="949.34" y="280.38" width="50.13" height="1" transform="matrix(0.1, -1, 1, 0.1, 599.38, 1223.06)"/><path class="cls-10" d="M688.38,367.8s9.43-.19,12.25-2.21c2.54-1.81,4.65-7.64,7-9.72,1.29-1.16,6.47-1.34,6.23-3.05-1.68-12.14,8.53-41.7,8.53-41.7l-12.12,1.5-5.8,30.45s-7.8,14.46-9.9,17.94c-2.39,4-6.93,4.31-6.16,6.79"/><path class="cls-5" d="M712.92,341.61c-3,1.93-3.15,7.82-4.31,9.78-2.8,4.71-7.41,7-12.71,7.59l-.06,0c-.47.83-.87,1.52-1.16,2-2.39,4-6.93,4.31-6.16,6.79,0,0,9.43-.2,12.25-2.21,2.54-1.81,4.65-7.64,7-9.72a9.48,9.48,0,0,1,3-1.18l.66,8.77,1-.09,2.06-11h0a1.25,1.25,0,0,0,0-.14c.26-2-1.34-6.49-1.61-10.59"/><polygon class="cls-11" points="735.08 267.53 729.73 243.18 829.44 254.12 848.24 189.49 801.11 190.22 786.98 203.5 702.31 212.46 697.14 218.38 700.18 228.71 703.17 339.46 716.27 343.69 720.94 341.61 735.08 267.53"/><path class="cls-9" d="M363.25,305.66l7.58-11.72-10.58,2.59s-7.94-2.62-11.48-4.76c-2-1.19-7-8.18-9.16-7.43-.9.31,2.25,8.37,2.25,8.37,1.92,3.83,5.49,6.62,7.24,8.44l-.35,1.24,3.46,6.8,1.92,0a44.45,44.45,0,0,0,5.11-1.16,39.62,39.62,0,0,0,4-2.33"/><path class="cls-12" d="M363.22,305.68l12.28-5.8-5.5-7.93-9.77,4.6a3.71,3.71,0,0,0-.57,1.09c.14,3.82,3.56,8,3.56,8"/><polygon class="cls-13" points="579.88 186.87 556.55 183.66 544.95 203.87 465.87 228.87 504.16 223.15 568.38 221.43 579.88 186.87"/><polygon class="cls-13" points="370.46 304.41 467.08 270.84 597.46 243.62 598.57 226.86 465.52 224.71 364.59 288.22 365.26 295.92 370.46 304.41"/><g class="cls-14"><rect class="cls-15" x="183.44" y="176.4" width="14.82" height="37.02" transform="translate(-5.26 384.52) rotate(-89.64)"/></g><path class="cls-16" d="M228.88,196.21c-6.38,1.22-12.81,2.21-19.22,3.24q-1.75-6.68-3.52-13.36c4.9-3.33,9.83-6.62,14.75-9.92q4,10,8,20"/><path class="cls-16" d="M219.23,194.16c13.84-4.76,27.7-9.53,41.46-14.54,5.09,0,10.18-.22,15.26-.36,3.25-19.07-10.6-38.54-13.43-57.78-6-5-7.53-17.13-13.83-21.69.94,17.27,10.75,39.2,5.25,55.69l-1.8.55c-11.74,7-23.45,17.11-34.9,24.53.69,4.53,1.34,9.07,2,13.6"/><path class="cls-17" d="M170.58,341.85l-2.34,8.79,8.82,5.66,5.85-6.89-.61-6.31-11.71-1.25"/><path class="cls-18" d="M183.35,362.21c-.08-2.69-.12-7.49-.21-9.68s-.23-1.77-.33-3.45a53.62,53.62,0,0,1-7.32,1.81,22.19,22.19,0,0,1-6-.32,12.58,12.58,0,0,0-1.38-.2c-3.72,2-8.57,5.35-11.84,7.45-4.64,3-13.32,3.43-14.65,9,6.21-.51,12.85-.92,18.88-1.28a7,7,0,0,0,4.45-1.74,33.15,33.15,0,0,1,5.54-3.5,15.91,15.91,0,0,1,2.56-1c.24,1.48.48,3,.72,4.44,3.19-.55,6.39-1,9.59-1.61"/><path class="cls-19" d="M298.36,176.17h22.38s-10.37,32-13.62,43c-36.09,5.57-103.17,29.43-103.17,29.43l-9.16,42.75-4.05,53.08-12,3.33-11.1-2.15s2.64-75.35.77-126.44c-3.92-4.47,3.94-8.24,3.94-8.24l2.93-3.57,103.33-14.86Z"/><path class="cls-20" d="M68.38,448.93a68.38,68.38,0,1,1,68.38-68.38,68.46,68.46,0,0,1-68.38,68.38m0-131.77a63.38,63.38,0,1,0,63.38,63.38,63.46,63.46,0,0,0-63.38-63.38"/><path class="cls-20" d="M339.22,450.58A68.38,68.38,0,1,1,407.6,382.2a68.46,68.46,0,0,1-68.38,68.38m0-131.77A63.38,63.38,0,1,0,402.6,382.2a63.46,63.46,0,0,0-63.38-63.38"/><path class="cls-20" d="M67.16,384.84a2.5,2.5,0,0,1-2.26-3.56l61.87-131.48a2.5,2.5,0,0,1,4.52,2.13L69.43,383.4a2.5,2.5,0,0,1-2.26,1.44"/><path class="cls-20" d="M342.37,384.84H187a2.5,2.5,0,0,1-2.29-1.49l-58-131.48a2.5,2.5,0,0,1,3.6-3.14L343.68,380.21a2.5,2.5,0,0,1-1.31,4.63m-153.69-5H333.55l-199-122.64Z"/><path class="cls-20" d="M150.79,221.69H109.7v-5h41.09a29.92,29.92,0,0,0,29.89-29.89v-6.28h5v6.28a34.93,34.93,0,0,1-34.89,34.89"/><rect class="cls-20" x="126.54" y="227.66" width="5" height="23.2"/><path class="cls-20" d="M196.75,383.88l-3.94-3.08L277,273.19l.15-13.38a2.5,2.5,0,0,1,2.5-2.47h68.65a2.5,2.5,0,0,1,2.5,2.5v14.23a2.5,2.5,0,0,1-2.5,2.5h-67.6ZM282,271.56h63.79v-9.23H282.08Z"/><path class="cls-20" d="M610.31,450.58a68.38,68.38,0,1,1,68.38-68.38,68.46,68.46,0,0,1-68.38,68.38m0-131.77a63.38,63.38,0,1,0,63.38,63.38,63.46,63.46,0,0,0-63.38-63.38"/><path class="cls-20" d="M338.26,384.84a2.5,2.5,0,0,1-2.26-3.56l61.87-131.48a2.5,2.5,0,0,1,4.52,2.13L340.52,383.4a2.5,2.5,0,0,1-2.26,1.44"/><path class="cls-20" d="M613.46,384.84H458.14a2.5,2.5,0,0,1-2.29-1.49l-58-131.48a2.5,2.5,0,0,1,3.6-3.14L614.77,380.21a2.5,2.5,0,0,1-1.31,4.63m-153.69-5H604.64l-199-122.64Z"/><path class="cls-20" d="M421.88,221.69H380.8v-5h41.09a29.92,29.92,0,0,0,29.89-29.89v-6.28h5v6.28a34.93,34.93,0,0,1-34.89,34.89"/><rect class="cls-20" x="397.63" y="227.66" width="5" height="23.2"/><path class="cls-20" d="M467.84,383.88l-3.94-3.08L548,273.19l.15-13.38a2.5,2.5,0,0,1,2.5-2.47h68.65a2.5,2.5,0,0,1,2.5,2.5v14.23a2.5,2.5,0,0,1-2.5,2.5h-67.6Zm85.23-112.32h63.79v-9.23H553.17Z"/><path class="cls-20" d="M881.4,450.58a68.38,68.38,0,1,1,68.38-68.38,68.46,68.46,0,0,1-68.38,68.38m0-131.77a63.38,63.38,0,1,0,63.38,63.38,63.46,63.46,0,0,0-63.38-63.38"/><path class="cls-20" d="M609.35,384.84a2.5,2.5,0,0,1-2.26-3.56L669,249.79a2.5,2.5,0,0,1,4.52,2.13L611.61,383.4a2.5,2.5,0,0,1-2.26,1.44"/><path class="cls-20" d="M884.55,384.84H729.23a2.5,2.5,0,0,1-2.29-1.49l-58-131.48a2.5,2.5,0,0,1,3.6-3.14L885.86,380.21a2.5,2.5,0,0,1-1.31,4.63m-153.69-5H875.73l-199-122.64Z"/><path class="cls-20" d="M693,221.69H651.89v-5H693a29.92,29.92,0,0,0,29.89-29.89v-6.28h5v6.28A34.93,34.93,0,0,1,693,221.69"/><rect class="cls-20" x="668.72" y="227.66" width="5" height="23.2"/><path class="cls-20" d="M738.93,383.88,735,380.8l84.15-107.61.15-13.38a2.5,2.5,0,0,1,2.5-2.47h68.65a2.5,2.5,0,0,1,2.5,2.5v14.23a2.5,2.5,0,0,1-2.5,2.5h-67.6Zm85.23-112.32h63.79v-9.23H824.26Z"/><path class="cls-20" d="M1152.49,450.58a68.38,68.38,0,1,1,68.38-68.38,68.46,68.46,0,0,1-68.38,68.38m0-131.77a63.38,63.38,0,1,0,63.38,63.38,63.46,63.46,0,0,0-63.38-63.38"/><path class="cls-20" d="M880.44,384.84a2.5,2.5,0,0,1-2.26-3.56L940,249.79a2.5,2.5,0,0,1,4.52,2.13L882.7,383.4a2.5,2.5,0,0,1-2.26,1.44"/><path class="cls-20" d="M1155.64,384.84H1000.32a2.5,2.5,0,0,1-2.29-1.49L940,251.87a2.5,2.5,0,0,1,3.6-3.14L1157,380.21a2.5,2.5,0,0,1-1.31,4.63m-153.69-5h144.87l-199-122.64Z"/><path class="cls-20" d="M964.06,221.69H923v-5h41.09A29.92,29.92,0,0,0,994,186.81v-6.28h5v6.28a34.93,34.93,0,0,1-34.89,34.89"/><rect class="cls-20" x="939.81" y="227.66" width="5" height="23.2"/><path class="cls-20" d="M1010,383.88l-3.94-3.08,84.15-107.61.15-13.38a2.5,2.5,0,0,1,2.5-2.47h68.65a2.5,2.5,0,0,1,2.5,2.5v14.23a2.5,2.5,0,0,1-2.5,2.5h-67.6Zm85.23-112.32H1159v-9.23h-63.68Z"/><path class="cls-20" d="M187.16,407.38a25,25,0,1,1,25-25,25.07,25.07,0,0,1-25,25m0-45.08a20,20,0,1,0,20,20,20.06,20.06,0,0,0-20-20"/><path class="cls-21" d="M174,204.64c1-1.73,3.33-5.47,4.61-7.64,4.17-.76,8.84-2.53,12.85-2.93s7.29.64,11.16.53c5-1.39,10-2.88,14.95-4.27q1.28,4.85,2.55,9.7c-5.84,1.7-11.55,3.5-17.47,5.15-4.12-.67-10.77-3.1-14.45-2.79s-5.4,2.11-8.25,2.79-4.55,1.44-7.27,2.19c.76-1.33.33-1,1.33-2.74"/><rect class="cls-9" x="220.45" y="254.91" width="1" height="6.93" transform="translate(-115.37 208.7) rotate(-41.06)"/><rect class="cls-9" x="215.18" y="255.61" width="1" height="12.13" transform="translate(-71.4 442.18) rotate(-82.66)"/><path class="cls-9" d="M338.09,223.18c-5.37-8.44-10.32-18.6-6.3-29.93l.94.33c-3.88,10.92,1,20.82,6.2,29.05Z"/><g class="cls-22"><rect class="cls-23" x="228.79" y="43.74" width="73.74" height="60.86" transform="translate(-9.54 55.67) rotate(-11.75)"/></g><path class="cls-24" d="M248.68,99.22s6.8-.43,8.11-.83c.73-9.42,20.18-27,20.18-27s-3.06-4.2-4.75-6.16c12.57.44,26.26,1.8,26.26,1.8s23.24,14.44,28.67,23.11c4.06,6.48,30.34,57.29,23.48,90.12-2,9.39,3,15.79-2.35,17.36,0,0-43.79-11.56-62.17-11.09-4.24.11-.55-9.32-2-10.38-21.52-15.36-35.4-76.93-35.4-76.93"/><path class="cls-16" d="M253,99.42c4.54,9.38,6.64,22.22,9.88,31.39S268.44,152,276.44,162c1.68,8.94,8,12.55,9,21.6,1,0,2-.06,3-.07-1.1-9.24-5.15-11.31-6.95-20.53s-12.07-25.42-15.93-34.62-6.53-21-11.06-30.4a11,11,0,0,0-1.5,1.41"/><path class="cls-6" d="M237.59,26.51a51.47,51.47,0,0,1,7.91,3.8,9.27,9.27,0,0,1,3.87,9c-.82,5.3-.32,16.89-.32,16.89s-5.72-3.71-7.5-4.13-1.38-.46-2.75-.8c-3.33-3.92-6.81-7.87-10.19-11.81,3-4.33,6-8.67,9-13"/><path class="cls-21" d="M207.55,51.28c-.15,4.58-.5,9-.73,13.49,1.76-.43,3.51-.91,5.28-1.29,1.74,3.92,3.88,9.14,5.52,12.74,1.1,2.4,1.53,4.54,4.15,3.78a69.36,69.36,0,0,0,10.82-4.44c2.46-1.2,4.87-2.53,5.56-5.81.83-3.91,1.12-9.42,1.81-13.56,3.51-1.37,3.8-5.17,2.82-9-.6-2.34-4.63-2-6.27.78-2.94-5.59-5.66-10.93-8.58-16.47-9.4-2.07-19-2.08-23.74,7.62-1.78,3.64,1.54,9,3.35,12.18"/><path class="cls-25" d="M191.59,31.6c1,3.83,2.2,7,5.56,9.55,5.17,3.9,14.45,4,20,2.17,5.82-1.87,8.89-3.39,14.1-5.49,2-3.66,6.45-11.35,6.45-11.35a11,11,0,0,0-8.56-5.27c-9.39-.73-23.94,5.32-33.36,9.51-1.46-.73-2.55-1.58-3.89-2.32,0,.91-.5,2.36-.29,3.2"/><path class="cls-26" d="M256,100.16c.77-2.38,4.92-7.57,4.92-7.57a27.53,27.53,0,0,1,7.56,8.26c8.06-13.12,12-36.31,12-36.31s-10.22-3.05-12.19-3.26a25,25,0,0,0-6.43,1.41l5.24,4.54-9.33,19.39s-3.71,8.36-4.39,13c.89.12,1.74.39,2.62.56"/><rect class="cls-9" x="247.85" y="79.91" width="29.41" height="1" transform="translate(76.17 282.06) rotate(-64.28)"/><rect class="cls-9" x="321.49" y="171.11" width="1" height="33.67" transform="translate(76.63 468.66) rotate(-79.12)"/><path class="cls-9" d="M348.64,180.32l-1-.13c2.44-18.18-4.22-33.2-11.28-49.11-4.49-10.12-9.13-20.58-11.49-32.22l1-.2c2.33,11.53,7,21.94,11.42,32,7.12,16,13.84,31.18,11.36,49.65"/><path class="cls-27" d="M257.66,108.12h0c.44-2.71.81-6.38,1.44-9.65-3.24,1.33-7.33,2-10.6,3.24q2.26,2.44,4.55,4.84l.48,1.33c-1,12.86-1.58,26.85-2.91,38.53,4.06,4.32,7.88,26,11.38,31-.15-7,2.88-19.75,2.88-19.75s-4.12-40.49-7.22-49.55"/><path class="cls-28" d="M215.7,202.54c11.91-2.75,24.56-4,36.27-7.23s22.5-8.16,33.86-12.16c13.68-16.62,13.54-33.42,20.76-53.92,4.87-13.83,3.15-33.64-6.82-43.36-12.33-12-27.06,10.24-31.33,17.16-.77,19.91,4.88,39.79-2.7,58.24-8.25,4.29-13.52,8-22.62,12.13s-21.7,9.46-31.42,13.93c1.23,5.11,2.66,10.08,4,15.22"/><path class="cls-28" d="M231.89,203.55c-5.83.88-11.71,1.46-17.56,2.12Q211.67,197,209,188.35q7.89-4.43,15.7-9c2.42,8.06,4.85,16.11,7.23,24.19"/><polygon class="cls-28" points="250.21 107.6 249.42 102.47 249.99 98.45 253.4 97.49 243.96 87.5 245.84 102.35 250.21 107.6"/><rect class="cls-9" x="248.97" y="89.33" width="1" height="7.93" transform="translate(-6.59 166.62) rotate(-36.48)"/><polygon class="cls-10" points="542.62 169.25 506.04 188.44 497.44 181.63 523.13 155.97 542.62 169.25"/><path class="cls-16" d="M548.85,163.08c2-3.53,10.23-20.43,10.23-20.43L538.63,79.13l-7,7.37L528,119.64l-3.66,31.27Z"/><path class="cls-24" d="M545.55,169.25c-.62-.59-23.37-13.74-23.37-13.74l1.39-6.21,26.68,13.47Z"/><polygon class="cls-24" points="544.31 172.24 520.32 154.63 521.67 150.93 548.42 168.16 544.31 172.24"/><rect class="cls-9" x="532.7" y="148.34" width="1" height="20.71" transform="translate(167.1 577.57) rotate(-65.42)"/><path class="cls-9" d="M405.25,352.09l4.64-11.57L399,344.76s-8.61-.21-12.7-.86c-2.27-.36-9.59-5.49-11.33-4-.71.62,5.28,7.45,5.28,7.45,3.23,2.82,7.84,4.83,10.16,5.86l.14,1.29,5.77,5,1.76-.75a44.62,44.62,0,0,0,4.3-3,39.41,39.41,0,0,0,2.83-3.67"/><path class="cls-12" d="M405.25,352.1l8.78-8-7.28-7.33L399,344.77a3.72,3.72,0,0,0-.12,1.22c1.57,3.48,6.33,6.11,6.33,6.11"/><path class="cls-27" d="M633.75,175.36l-67.27,9.44L563.9,215l-14.13-4.56L482,235.15l-6.38.86-77,101.38,4.1,7.64,8.82,6.05,72.26-59.24,18-18.11,4.23-2.8,106.21-14.17s15.76-8.8,18.6-14.86,5.78-26.19,5.78-26.19Z"/><polygon class="cls-13" points="612.86 189.83 611.49 194.81 623.86 209.77 625.93 209.31 630.61 206.83 612.86 189.83"/><rect class="cls-9" x="557.81" y="207.15" width="1" height="10.63" transform="translate(159.56 657.26) rotate(-68.96)"/><rect class="cls-9" x="547.38" y="89.06" width="1" height="10.71" transform="translate(37.91 315.81) rotate(-33.25)"/><rect class="cls-9" x="438.36" y="236.33" width="15.55" height="1" transform="translate(-57.26 278.32) rotate(-32.67)"/><rect class="cls-9" x="559.01" y="85.36" width="1" height="10.33" transform="translate(48.79 336.32) rotate(-34.89)"/><rect class="cls-9" x="566.67" y="217.05" width="1" height="12.19" transform="translate(-42.32 221.51) rotate(-21.32)"/><rect class="cls-9" x="466.18" y="224.41" width="5.92" height="1" transform="translate(-43.32 314.71) rotate(-35.55)"/><rect class="cls-9" x="533.88" y="261.43" width="67.95" height="1" transform="translate(-15.6 36.89) rotate(-3.67)"/><polygon class="cls-16" points="572.91 59.22 544.38 67.95 538.16 81.04 542.48 108.33 554.05 127.25 567.05 103.86 591.2 65.16 572.91 59.22"/><g class="cls-29"><rect class="cls-30" x="532.21" y="43.53" width="54.34" height="34.42" transform="translate(475.98 617.2) rotate(-87.67)"/></g><rect class="cls-9" x="617.21" y="192.04" width="1" height="20.12" transform="translate(7.66 426.26) rotate(-38.29)"/><rect class="cls-9" x="601.25" y="99.3" width="1" height="29.14" transform="translate(288.02 639.84) rotate(-69.9)"/><polygon class="cls-28" points="553.85 86.38 552.2 85.23 551.31 119.3 554.49 115.83 553.85 86.38"/><path class="cls-25" d="M604.69,67l-13.56-2.18L573.29,84.43l-18.8,37-12-27.59-2.08-18.74-8.91,11.05,5.59,37.49,15.52,41.67,4.58,21.47s10.3,8.65,28.08,6.3a456.12,456.12,0,0,0,55.89-10.78l1.43-7.51L640.14,172,628.7,102.26Z"/><rect class="cls-9" x="629.33" y="173.4" width="7.38" height="1" transform="translate(-23.44 169.27) rotate(-14.96)"/><path class="cls-9" d="M590.8,191.67l-.15-1c19.91-3,49-10.82,49.27-10.9l.26,1c-.29.08-29.4,7.89-49.38,10.92"/><rect class="cls-9" x="540.73" y="98.69" width="22.28" height="1" transform="translate(436.18 647.84) rotate(-88.28)"/><path class="cls-16" d="M588.36,185.91c18.15-18,40.81-61.78,40.81-61.78s2.36-18.53-3.59-34.19C620.07,75.41,611.4,65.54,604.69,67c-15.28,3.42-29.22,52.76-29.22,52.76l-10.19,44.3Z"/><path class="cls-9" d="M583.75,115l-1-.14c1.87-12.82,7.25-30.23,7.3-30.4l1,.3c-.05.17-5.41,17.52-7.27,30.25"/><polygon class="cls-10" points="583.71 188.72 522.77 206.83 515.24 195.91 542.71 178.36 562.7 168.71 583.71 188.72"/><polygon class="cls-24" points="582.6 192.38 559.08 167.15 564.06 159.54 592.05 187.03 582.6 192.38"/><path class="cls-24" d="M577.52,198.2c-.57-.9-26-28.43-26-28.43l5-5.2,28.62,30Z"/><rect class="cls-9" x="571.07" y="167.4" width="1" height="24.61" transform="translate(28.65 433.13) rotate(-42.48)"/><polygon class="cls-28" points="582.83 65.4 564.05 92.43 559.88 82.83 552.52 87.16 551.88 85.53 560.02 78.05 573.28 66.45 574.28 61.64 570.75 54.94 576.18 56.72 582.83 65.4"/><polygon class="cls-28" points="552.65 85.54 552.94 89.5 544.73 80.36 539.77 85.85 539.66 69.22 541.93 61.96 546.46 59.15 545.94 71.74 552.65 85.54"/><rect class="cls-9" x="556.34" y="73.75" width="16.12" height="1" transform="translate(91.68 391.42) rotate(-41.35)"/><path class="cls-31" d="M548.76,37.24l-6.54-9-1-9.1,3.92-3.31L546.67,8s6.51-.52,8.79,1.61c5.67,5.27,6.59,28.21,6.59,28.21Z"/><path class="cls-10" d="M548.89,35s3.66-3.29,5.33-.3c2.84,5.08-1.55,9.31-1.55,9.31l1.85,12.91-2.85,10.5L536.56,73.6l-9.2-16.37-4.55,1.87-1.69-13.36-6.49-14.87s17.49-1,25.32-6.79c6.15-4.57,7.17-.06,6.93,6.4-.13,3.32,2,4.47,2,4.47"/><path class="cls-32" d="M548.72,8c-.73-1.55-.49-5.42-23.49,3.61-7.4,2.9-14.66,12.8-14.66,12.8s1.79,7.14,3.91,8.25c3.35,1.76,9,.09,15.08-2.83,7.45-3.59,16.05-8.53,19.07-13.67.9-1.54,1-6.32.09-8.17"/><path class="cls-32" d="M552.67,44l3.46,7,.74,13.46a96,96,0,0,1-10,8.54c-1.94,1.37-15.41,1-15.41,1l-1.37-11-3.32-1.21.6-4.55,2.23-.26,9.06,4.16s10.69-5.49,11.43-6.22c2-2,2.59-10.94,2.59-10.94"/><rect class="cls-9" x="503.21" y="261.02" width="1" height="7.12" transform="translate(-61.49 329.99) rotate(-34.31)"/><rect class="cls-9" x="502.58" y="263.91" width="1" height="3.87" transform="matrix(0.28, -0.96, 0.96, 0.28, 107.92, 675.25)"/><g class="cls-33"><rect class="cls-34" x="388.95" y="105.62" width="141.51" height="165.65" transform="translate(135.46 564.88) rotate(-71.55)"/></g><g class="cls-35"><rect class="cls-36" x="456.7" y="169.59" width="72.65" height="86.5" transform="translate(135.08 613.16) rotate(-71.55)"/></g><polygon class="cls-28" points="465.83 236.3 523.26 224.35 523.53 222.76 473.58 187.54 456.23 189.42 465.83 236.3"/><path class="cls-10" d="M473.61,207.74c1.22,1.19,4.86,2.33,6.35,2,3.91-.95,13.27-1.48,13.27-1.48,2.61.78,7.72,5,10.86,4.92,3.33-.08,18.67-6.32,18.67-6.32l-7.52-10.91-15.52,1.9L488,194.6s-13.08,6.11-14.88,10.47a2.35,2.35,0,0,0,.54,2.67"/><rect class="cls-9" x="479.92" y="208.49" width="12.72" height="1" transform="translate(-20.51 56.33) rotate(-6.49)"/><path class="cls-10" d="M472.87,196.7c1.69.13,13.4-3.17,13.4-3.17,2-.71,13.2,1.09,19.77-5.08l-8.24-7.14-14.14.16-8,4.9a31.65,31.65,0,0,0-4.81,8.24c-.32.78,1.14,2,2,2.1"/><rect class="cls-9" x="475.07" y="194.64" width="10.84" height="1" transform="translate(-31.58 113.04) rotate(-13)"/><rect class="cls-20" x="184.66" y="349.41" width="5" height="67.49" transform="translate(-239.2 389.89) rotate(-64.87)"/><path class="cls-17" d="M216.69,374.12l-2.34,8.79,8.82,5.66,5.85-6.89-.61-6.31-11.71-1.25"/><path class="cls-37" d="M295.34,186.87s12.07,1.27,25.4,3.48c8.6,1.43,20.61,5.59,27.53,7.27,0,0,.43,28.06,1.12,44.77-4.31,5.2-7.84,10-12.15,15.23-36.39.62-107.5-.78-107.5-.78l-1.87,2.1,5.32,28.64s-1.11,28.78-1,43.23-.41,32.16,0,47.27c-4,.41-9.78,1.42-13.46,1.52s-5.37-.85-8.64-1q-10.39-71.94-20.83-143.83c-1-1.16-1.91-2.33-2.86-3.49q.06-3.34.11-6.68l6-5.57c31.14-6.82,55-11.62,86-18.77,3.2,1.81,12,6,15.19,7.84-1.49-1.76-7.69-6.66-9.18-8.42,5.18-4.85,10.74-12.85,10.74-12.85"/><path class="cls-25" d="M229.56,394.77c-.08-2.69-.12-7.49-.21-9.68s-.23-1.76-.33-3.45a53.91,53.91,0,0,1-7.32,1.81,22.2,22.2,0,0,1-6-.32,12.34,12.34,0,0,0-1.38-.2c-3.72,2.05-8.57,5.35-11.84,7.45-4.64,3-13.32,3.43-14.65,9,6.21-.52,12.85-.92,18.88-1.28a7,7,0,0,0,4.45-1.74,32.85,32.85,0,0,1,5.54-3.5,15.94,15.94,0,0,1,2.55-1c.24,1.48.48,3,.72,4.44,3.2-.55,6.39-1,9.59-1.61"/><rect class="cls-20" x="202.03" y="396.92" width="30.25" height="5" transform="translate(-60.03 39.06) rotate(-9.03)"/><rect class="cls-20" x="143.78" y="365.89" width="30.25" height="5" transform="translate(-55.88 29.52) rotate(-9.03)"/><path class="cls-20" d="M458,406.68a25,25,0,1,1,25-25,25.07,25.07,0,0,1-25,25m0-45.08a20,20,0,1,0,20,20,20.06,20.06,0,0,0-20-20"/><rect class="cls-20" x="456.34" y="348.71" width="5" height="67.49" transform="translate(-82.26 635.47) rotate(-64.87)"/><rect class="cls-20" x="472.84" y="396.22" width="30.25" height="5" transform="translate(-56.56 81.57) rotate(-9.03)"/><rect class="cls-20" x="414.59" y="365.19" width="30.25" height="5" transform="translate(-52.41 72.04) rotate(-9.03)"/><path class="cls-20" d="M729.68,407.24a25,25,0,1,1,25-25,25.07,25.07,0,0,1-25,25m0-45.08a20,20,0,1,0,20,20,20.06,20.06,0,0,0-20-20"/><rect class="cls-20" x="727.18" y="349.26" width="5" height="67.49" transform="translate(73.07 880.99) rotate(-64.87)"/><rect class="cls-20" x="744.56" y="396.78" width="30.25" height="5" transform="translate(-53.28 124.25) rotate(-9.03)"/><rect class="cls-20" x="686.31" y="365.74" width="30.25" height="5" transform="translate(-49.13 114.72) rotate(-9.03)"/><path class="cls-20" d="M999.11,406.21a25,25,0,1,1,25-25,25.07,25.07,0,0,1-25,25m0-45.08a20,20,0,1,0,20,20,20.06,20.06,0,0,0-20-20"/><rect class="cls-20" x="996.61" y="348.23" width="5" height="67.49" transform="translate(229.02 1124.33) rotate(-64.87)"/><rect class="cls-20" x="1013.98" y="395.75" width="30.25" height="5" transform="translate(-49.77 166.55) rotate(-9.03)"/><rect class="cls-20" x="955.73" y="364.72" width="30.25" height="5" transform="translate(-45.62 157.02) rotate(-9.03)"/><path class="cls-9" d="M281.94,204.14l-.49-.87a35.55,35.55,0,0,0,14.31-14.55l.88.47a36.51,36.51,0,0,1-14.69,14.95"/><path class="cls-9" d="M192.48,232c-2.4-2.83-2.9-5.57-1.42-7.91l.85.53c-1.24,2-.79,4.23,1.33,6.73Z"/><path class="cls-10" d="M753.3,138c0-.5-1.64-10.31-1.52-10.78l-64.41.94-15.28-5.8-10.73,1.14-1,1.85,1.76,2.61,6.52,2.5L678.6,135a5,5,0,0,1-3.42.72c-1.42-.33-3-.09-3.16,1-.17,1.52,7.55,3.11,7.55,3.11l8-2.47s58.49-1.54,65.74.72"/><path class="cls-10" d="M756,346s2.27,28.8,1.64,29.65c-4.07,5.49-8.72,20.24-8.72,20.24s-7.86,2.55-7.33,4.31c0,0,10.64.29,13.48-1.54,3.68-2.37,6.51-10.2,9.73-13.17.88-.81,5.69-1.91,5.36-3.06-2.8-9.84-1.59-38.77-1.59-38.77Z"/><path class="cls-38" d="M752.22,369.75,771,369.5s1.06-34.95-.24-59.15c-.7-13.14-10.17-44.11-10.17-44.11s62.72,2.78,91.06-12.43c5.56-3,10-23.18,10-23.18l-8.32-44.87-38.86,4.08-6.65,22.66-77.39,35.78S727,251,727,254.83c0,4.21,3.84,9.25,3.84,9.25l18.63,88.26Z"/><path class="cls-9" d="M748.28,342.55c-1.22-6.17-2.08-10.69-2.85-14.73-2.17-11.39-3.61-18.91-10.14-48.59l1-.21c6.53,29.7,8,37.23,10.15,48.62.77,4,1.64,8.56,2.85,14.72Z"/><path class="cls-9" d="M731.39,263.57c-3.54-3.34-5.09-6.58-4.61-9.64.81-5.15,7.23-8.23,9.34-9.24l.29-.14,79.32-36.21.42.91L736.56,245.6c-2,1-8.06,3.86-8.79,8.49-.42,2.71,1,5.65,4.3,8.75Z"/><path class="cls-9" d="M732.88,259.09a3.73,3.73,0,0,1-2.85-2.51c-.63-2.6,2.51-5.75,2.65-5.88l.7.71c-.8.79-2.79,3.23-2.38,4.93.19.8.93,1.4,2.18,1.8Z"/><polygon class="cls-39" points="793.35 97.42 748.62 122.18 694.15 127.16 693.95 139.94 709.35 142.56 752.58 142.01 806.56 123.22 802.26 101.83 793.35 97.42"/><path class="cls-40" d="M782,24.88c1.59-.18,5.34-7,17.3-.62,1.77.94,3.77,4,7.32,3.94,9.53-.18,12.89,9.22,13.42,12.46,1.42,8.75-5.2,11.66-1.61,24.24,1.62,5.69-1.65,11-2,15.54-.2,3.05,6.11,7.21,7.28,12.61,3.22,14.94-14.46,32.52-20.37,33-10.53.78-36.14-10-39.58-22.57-1.19-4.33,3.83-8,3.88-12,0-3-3.77-7-4.48-10.47-.79-3.78,3.55-10.27,4-14.06.74-5.71-6-10.64-4.53-15.61,3.11-10.42-1.14-15.56,7.14-22.73,3.77-3.26,9.37-3.41,12.15-3.72"/><path class="cls-9" d="M845,200.91c-4.83,0-8.36-2.51-10.71-7.58l.91-.42c2.87,6.18,7.64,8.23,14.6,6.26l.27,1a18.75,18.75,0,0,1-5.07.78"/><path class="cls-41" d="M792.14,136,797,176.32l4.14,13.9,53.5-.84s4.45-19,4.07-25.36c-1.13-19.25-17.37-61.21-25.09-72.92-4-6.05-25.25-21.11-25.25-21.11l-4.87-1.6L788.61,80.32l5.65,10.07L782,126.82Z"/><g class="cls-42"><rect class="cls-43" x="776.9" y="48.3" width="40.73" height="49.19" transform="translate(22.99 276.47) rotate(-19.96)"/></g><path class="cls-44" d="M809.38,68.13l-7.48-1.47,2.47,3.06,2.59.7c.08-.11,1.18,2.8-6.87,12.84-1.09,1.36-5.12,4-7.42,5.5l-4-8.56-1.4,5,.86,3.34L788,97.3a1,1,0,0,0,1.93.2l.75-3.77,1.25,3.67,1.08-.45,1.22-3.08,4.56,5.51a1.65,1.65,0,0,0,2.79-.21c1.08-2,15.12-24,15.12-24Z"/><rect class="cls-9" x="804.89" y="204.69" width="1" height="6.61" transform="translate(-16.38 336.89) rotate(-23.39)"/><path class="cls-5" d="M770.24,381.9c-.09-1.46-1.39-5.31-1.93-9.23a28.59,28.59,0,0,0-4,5.48c-2.42,4.83-4.54,11.52-13.42,11.94-1.21,3.33-2,5.83-2,5.83s-7.86,2.55-7.33,4.31c0,0,10.64.29,13.48-1.54,3.68-2.37,6.51-10.2,9.73-13.17a4.49,4.49,0,0,1,1.14-.61l1.69,10.17,1.11-.21,1.46-12.14a5.09,5.09,0,0,0,.07-.84"/><path class="cls-21" d="M772.29,48.12l.51-8.32a36.67,36.67,0,0,1,7.41,3.15c4.68,2.63,10.71,3.41,11.9,3.55a6,6,0,0,0,2,0,3.2,3.2,0,0,1,4.05,3l0,1.86a3.1,3.1,0,0,1-3.81,3.1,72.28,72.28,0,0,1-2.59,9.11c-2.12,4.64-8.74,6.26-13.31,7.42-1.85.47-4.2-.63-4.39-2.53-.29-3-.77-11.42-.77-11.42L769,56.46Z"/><path class="cls-10" d="M751,174c0,.5.05,1,.09,1.5a4.32,4.32,0,0,0-.7,1.57,8.36,8.36,0,0,0-.19,2.14,4.53,4.53,0,0,0,1.35,3.2c.11.47.29.94.43,1.41L743.44,186l-13.3,8.77-9.76-1.51-.83-2.88,1.43-2.3,6.46-2.11s3.11-2.64,2.88-3.79c0,0-4.73,1.19-5.39.08-1.07-1.79,4.76-3,7.15-4.21,1.81-1,9.59-.37,9.59-.37s4-1.62,9.37-3.72"/><path class="cls-45" d="M746.64,186.7l-2.87-11.4,48.91-18.72s11.92-33.6,12.77-44c-.39-9.27,9-20.84,18.05-18.85,7,1.53,8.87,19.27,7.59,27.63-2.75,18-13.7,48.13-15.83,50.79-3.56,4.45-34,10.49-34,10.49Z"/><polygon class="cls-5" points="1028.61 373.14 1028.53 381.82 1031.64 390 1040.73 381.79 1039.61 374.32 1028.61 373.14"/><path class="cls-7" d="M1040.88,381.17a20.35,20.35,0,0,1,1.85,6.08,33.56,33.56,0,0,1,.14,6l-5.14,1.11a115.41,115.41,0,0,0-14.88,10.49c-2.08,1.79-9.54-2.51-12.79-4.41l.12-4.32s.74-2.62,5.25-2.75c1.43,0,11.07-7.69,11.07-7.69l2-3.81s6.83,2.07,7.83,1.73a17.9,17.9,0,0,0,4.53-2.38"/><path class="cls-8" d="M1011.8,396.51s5.95,4.37,9.73,3.75a1.63,1.63,0,0,0,1.26-2.18c-.49-2-4-3.13-6.22-3.51a5,5,0,0,0-3.35.57c-1.28.79-1.42,1.37-1.42,1.37"/><path class="cls-9" d="M1020.14,400.51c-5.74-.93-8.56-3.55-8.68-3.66l.69-.73a16.5,16.5,0,0,0,8.16,3.4Z"/><path class="cls-25" d="M1097.3,196.75l50.65-16.23s12,41.9,8.35,54.6c-1.17,4.1-12.52,20.81-12.52,20.81l-108.46,9.88,1.71,15.73,5.4,91.93-4.74,3.46-12.09.48-6.35-25.18-20-96L993.94,242l7.29-8.12,77.21-22.08Z"/><rect class="cls-9" x="1081.06" y="258.05" width="46.95" height="1" transform="translate(-14.3 71.31) rotate(-3.67)"/><rect class="cls-9" x="1030.71" y="259.4" width="1" height="5.46" transform="translate(-31.61 312.28) rotate(-16.96)"/><rect class="cls-9" x="1030.72" y="261.51" width="1" height="6.77" transform="translate(645.96 1257.44) rotate(-83.19)"/><g class="cls-46"><rect class="cls-47" x="1037.31" y="29.91" width="71.35" height="76.57" transform="translate(13.81 252.85) rotate(-13.53)"/></g><path class="cls-37" d="M1044.91,129.75a51.79,51.79,0,0,0,13.65,3.27c1.7,19.09,5.13,41.6,5.13,41.6s-3.59,13.51-4.25,14.89c11.66,5.77,20.61,12.49,32.66,15.44s42.17.83,42.17.83l19.06-4.69s-6.9-55.14-7.06-82.44c-.71-18-6.23-37.35-23.26-46.29-5.41-2.84-16.93-7.11-23.89-7.84-7.67,10.33-30.77,30.79-30.77,30.79s-9.9-9.89-13.67-17.42c-3.52,3.23-7,3.28-7.54,6.41-2.44,13.13-2.23,45.45-2.23,45.45"/><path class="cls-31" d="M1036.85,32.7c-3.1-2.32-5.85-2.21-7.16-7-.78-2.86-.77-9.43,2.13-12.71,1.31-1.49,6.71-1.11,8.82-.43,3.13,2.59,6.05,5.24,9.1,7.84-4.34,4.08-8.62,8.06-12.89,12.3"/><path class="cls-21" d="M1034.57,29.57a10.11,10.11,0,0,1,.43,2.49c.12,2.27.45,9.55.85,13a8.69,8.69,0,0,0,3,5.22c1.6,1.54,3.66,3.76,5.32,5.37a2.74,2.74,0,0,0,1.89.89,34.62,34.62,0,0,0,5.58.37,2.41,2.41,0,0,0,1.87-1c4.28-4.32,9.37-8.56,13.58-12.83,1.63-1.65,1-3.5,1.46-5.47,1.47-1.49,3.76-4.07,3.87-6.11.22-4.3-2.62-4.57-5.89-3.4,0-5.93.24-11.9.27-17.86-8.67,3.34-18.41,6.4-26.78,9.81-4.69,1.91-5.45,4.83-5.42,9.54"/><path class="cls-32" d="M1030.82,4.81c-3.82,5.91.63,12.21,3.37,14.82,3.4,3.24,8.15,2.16,9.73,1.59,6.24-2.26,15.87-6.13,18.51.49,1.48,3.7,1.14,4.33,3,7.25a6.92,6.92,0,0,1,6.23-.86c1.32-2.83,3.06-6.14,3.08-9.25,0-1.95-1.58-4-2.09-5.49-2.71-7.73-8.61-9.44-16.17-8.9-.87-1.17-2.22-2.83-3.67-3s-2.38.42-3.55,1h0c-1.61-2.52-4-3.07-6.59-1.48-.52.32-1.22,1-1.79,1.36-.73-.26-1.83-.42-2.51-.67-3.16-1.18-6.34,1.3-7.59,3.23"/><rect class="cls-9" x="1062.11" y="84.65" width="1" height="16.08" transform="translate(230.72 760.29) rotate(-43.73)"/><rect class="cls-9" x="1060.86" y="128.61" width="1" height="32.61" transform="translate(-9.42 114.75) rotate(-6.16)"/><path class="cls-21" d="M1129.36,136.91,1097.44,122s-36.47,46.19-39.17,52.33c0,0-41,20.4-55.69,21.3s-16-1.59-26.29,4.89c-1.35,2.57-3.78,4.89-5.55,7.35-.06,1.53-.17,7.17,1.74,7.73,5.69-2.11,3.44-.94,11.31-5.57,2.09-.72,3.62-1.65,5.07-.7,4,2.63,9.75,1.77,12.31,0,0,0,38.46-4.07,70.74-10.24,19.57-16.74,57.45-62.15,57.45-62.15"/><rect class="cls-9" x="1107.85" y="106.83" width="1" height="40.7" transform="translate(528.08 1080.03) rotate(-65.2)"/></svg>