<svg id="Isolation_Mode" data-name="Isolation Mode" xmlns="http://www.w3.org/2000/svg" xmlns:xlink="http://www.w3.org/1999/xlink" viewBox="0 0 966.06 274.35"><defs><style>.cls-1{fill:url(#linear-gradient);}</style><linearGradient id="linear-gradient" x1="178.78" y1="20.64" x2="16.78" y2="280.24" gradientUnits="userSpaceOnUse"><stop offset="0" stop-color="#2787ed"/><stop offset="1" stop-color="#0e6fd5"/></linearGradient></defs><title>logo-SVG</title><path class="cls-1" d="M196.23,225.42,103,279.25,9.76,225.42V187.21L103,241l60.14-34.73V136.86L103,102.14,60.89,126.45V88.24L103,63.94l93.23,53.82ZM103,43.11,42.85,77.83v69.45L103,182l42.11-24.32V195.9L103,220.21,9.76,166.39V58.73L103,4.9l93.23,53.83v38.2Z" transform="translate(-9.76 -4.9)"/><path d="M260.35,194.09q-13.58,0-22.37-3.77a49.67,49.67,0,0,1-13.88-8.73l10.43-10.24a26.53,26.53,0,0,0,9.45,5.84,42.25,42.25,0,0,0,13,2.45l2,.06A27.92,27.92,0,0,0,269.21,178a11.71,11.71,0,0,0,6.1-4.93,13.28,13.28,0,0,0,1.88-6.54,12.77,12.77,0,0,0-1.88-6.53q-3.84-6.42-18-7.79a50.32,50.32,0,0,1-21-6.92A17.36,17.36,0,0,1,229.5,138a25.51,25.51,0,0,1-2.26-11.37q0-11.94,10.43-19.29,10.8-7.53,22.12-7.54,13.24,0,20.73,3.14a42,42,0,0,1,12.25,8l-10.43,10.24q-7-7-18.6-7-13.12,0-17,6.54a12.28,12.28,0,0,0-1.88,6.09,8.94,8.94,0,0,0,2.07,5.6,15.33,15.33,0,0,0,6.22,4,44,44,0,0,0,10.3,2.48,51.64,51.64,0,0,1,22,7.85q9.43,6.36,9.43,20.36,0,10.81-10.24,18.73A38.53,38.53,0,0,1,260.35,194.09Z" transform="translate(-9.76 -4.9)"/><path d="M355,193.9l.44-8a28.85,28.85,0,0,1-6.6,5.59,17.76,17.76,0,0,1-6.12,2.3,50.65,50.65,0,0,1-7.57.47h-2.64a26.83,26.83,0,0,1-11.06-2.2,17.73,17.73,0,0,1-7.73-6.47,18.13,18.13,0,0,1-2.83-10.25v-.25q0-9.68,6.85-14.73t18.91-5.06a42.92,42.92,0,0,1,8.74.82,97,97,0,0,1,10,2.76V155q0-7.09-4.37-10.78t-12.35-3.67a51,51,0,0,0-9.17.75,56.22,56.22,0,0,0-8.54,2.33l-3.65-11.06a58.7,58.7,0,0,1,24.19-4.65q14.64,0,21.8,7,7,7,6.85,20.35l-.31,38.58Zm-6.57-30.16a31.63,31.63,0,0,0-7.19-.81q-6.86,0-11.12,2.89a9.57,9.57,0,0,0-4.27,8.48v.25a8.87,8.87,0,0,0,3.58,7.57,14.61,14.61,0,0,0,9,2.67,22,22,0,0,0,8.86-1.69,14.37,14.37,0,0,0,6.13-4.84,12.44,12.44,0,0,0,2.23-7.35v-4.72A42.27,42.27,0,0,0,348.47,163.74Z" transform="translate(-9.76 -4.9)"/><path d="M431.19,193.9l.44-8a29,29,0,0,1-6.59,5.59,17.88,17.88,0,0,1-6.13,2.3,50.56,50.56,0,0,1-7.57.47H408.7a26.83,26.83,0,0,1-11.06-2.2,17.79,17.79,0,0,1-7.73-6.47,18.2,18.2,0,0,1-2.82-10.25v-.25q0-9.68,6.84-14.73t18.92-5.06a42.89,42.89,0,0,1,8.73.82,97,97,0,0,1,10,2.76V155q0-7.09-4.37-10.78t-12.34-3.67a51.12,51.12,0,0,0-9.18.75,56.22,56.22,0,0,0-8.54,2.33l-3.65-11.06a58.7,58.7,0,0,1,24.2-4.65q14.63,0,21.8,7,7,7,6.85,20.35L446,193.9Zm-6.56-30.16a31.79,31.79,0,0,0-7.2-.81q-6.84,0-11.12,2.89A9.57,9.57,0,0,0,402,174.3v.25a8.87,8.87,0,0,0,3.58,7.57,14.62,14.62,0,0,0,9,2.67,22,22,0,0,0,8.86-1.69,14.4,14.4,0,0,0,6.12-4.84,12.37,12.37,0,0,0,2.23-7.35v-4.72A42.47,42.47,0,0,0,424.63,163.74Z" transform="translate(-9.76 -4.9)"/><path d="M495.28,194.09q-13.57,0-22.37-3.77A49.67,49.67,0,0,1,459,181.59l10.43-10.24a26.48,26.48,0,0,0,9.46,5.84,42.19,42.19,0,0,0,13,2.45l1.95.06A27.88,27.88,0,0,0,504.14,178a11.71,11.71,0,0,0,6.1-4.93,13.28,13.28,0,0,0,1.88-6.54,12.77,12.77,0,0,0-1.88-6.53q-3.84-6.42-18-7.79a50.23,50.23,0,0,1-21-6.92,17.32,17.32,0,0,1-6.73-7.29,25.51,25.51,0,0,1-2.26-11.37q0-11.94,10.43-19.29,10.8-7.53,22.12-7.54,13.26,0,20.73,3.14a41.91,41.91,0,0,1,12.25,8l-10.43,10.24q-7-7-18.59-7-13.14,0-17,6.54a12.28,12.28,0,0,0-1.88,6.09,8.94,8.94,0,0,0,2.07,5.6,15.33,15.33,0,0,0,6.22,4,44.09,44.09,0,0,0,10.3,2.48,51.69,51.69,0,0,1,22,7.85q9.42,6.36,9.42,20.36,0,10.81-10.24,18.73A38.51,38.51,0,0,1,495.28,194.09Z" transform="translate(-9.76 -4.9)"/><path d="M630.06,194.09q-17.85,0-29.34-10T589.22,160V99.84h15.83v55q0,12.06,7.35,17.85,7.17,5.66,17.66,5.65t17.65-5.65q7.37-5.79,7.36-17.85v-55H670.9V160q0,14.13-11.5,24.06T630.06,194.09Z" transform="translate(-9.76 -4.9)"/><path d="M732.1,194.09V159.35q0-7.48-4-11.72t-11.5-4.43q-7.15.44-11.94,9.92v41H689.81l.19-62.77,14.7-.12v8.48a39,39,0,0,1,9.43-6.6,21,21,0,0,1,8.61-1.82q11.94,0,18,7A24,24,0,0,1,747,154.7v39.39Z" transform="translate(-9.76 -4.9)"/><path d="M765.9,119.7a6.58,6.58,0,0,1-2.26-5.15,6.71,6.71,0,0,1,2.23-5.19,8.75,8.75,0,0,1,6.13-2,9,9,0,0,1,6.31,2,6.71,6.71,0,0,1,2.23,5.19,6.62,6.62,0,0,1-2.23,5.15,8.9,8.9,0,0,1-6.19,2A9,9,0,0,1,765.9,119.7Zm-1.51,12.56h15v61.83h-15Z" transform="translate(-9.76 -4.9)"/><path d="M806.93,188.37a19,19,0,0,1-6.22-14.7V143.2h-10.3v-11h10.3v-18L816,112.6v19.6h10.31v11H816V171q0,5.79,2.71,8.64a9.76,9.76,0,0,0,7.47,2.86A19.3,19.3,0,0,0,830,182L833.07,192a19,19,0,0,1-8.92,2.07Q813.34,194.09,806.93,188.37Z" transform="translate(-9.76 -4.9)"/><path d="M856,167.39a24.91,24.91,0,0,0,2,7.32,12.22,12.22,0,0,0,3.77,4.55,17.09,17.09,0,0,0,10.56,3.4,29.41,29.41,0,0,0,16.46-4.78l8.3,8.29q-7.17,7.92-24.76,7.92-14,0-22.68-8.79t-8.8-22.62q0-14,8.8-22.62t22.68-8.8q13.76,0,21.93,8.73t8.17,22.69v4.71Zm16.28-24.7a17.15,17.15,0,0,0-10.56,3.4,10.83,10.83,0,0,0-3.64,4.65A19.41,19.41,0,0,0,857,158h30.66a19,19,0,0,0-1.16-7.22,11.07,11.07,0,0,0-3.68-4.65A17,17,0,0,0,872.28,142.69Z" transform="translate(-9.76 -4.9)"/><path d="M961.06,187.05a51.76,51.76,0,0,1-9.52,5.5,19,19,0,0,1-7.13,1.54q-14.5,0-22.93-9.17A31.21,31.21,0,0,1,913,163.3a30.84,30.84,0,0,1,8.48-21.55q8.47-9.24,21.86-9.23a22.3,22.3,0,0,1,9.11,1.72,31.23,31.23,0,0,1,8.61,6.32V99.84l14.77.07v94.18H961.06Zm-4.77-38.51q-4-3.71-11.12-4.78-8.86.69-13.92,5.28t-6.13,12.88q.38,10,5.41,15.3t14.64,5.69q14.33-2.15,15.89-13.57V158.53A15.57,15.57,0,0,0,956.29,148.54Z" transform="translate(-9.76 -4.9)"/></svg>