<svg xmlns="http://www.w3.org/2000/svg" width="20" height="20" viewBox="0 0 20 20">

    <defs>
        <style>
            .cls-1 {
            fill: #27a636;
            fill-rule: evenodd;
            }
        </style>
    </defs>
    <path id="icon-evernote" class="cls-1" d="M93.778,952H78.222A2.229,2.229,0,0,1,76,949.778V934.222A2.229,2.229,0,0,1,78.222,932H93.778A2.229,2.229,0,0,1,96,934.222v15.556A2.229,2.229,0,0,1,93.778,952ZM83.492,935.317l-2.769,2.792,2.21,0,0.56-.543v-2.252ZM90.763,937a3.355,3.355,0,0,0-2.108-.876H87.007a2.062,2.062,0,0,0-1.774-.96c-1.245,0-1.161.556-1.161,1.031v1.92l-0.564.6H80.9a1.885,1.885,0,0,0-.734,1.539c0,1.052.326,4.718,2.513,5.057,2.588,0.4,3.031-.8,3.031-0.948,0-.611.016-1.536,0.016-1.536s0.758,1.452,1.9,1.452a1.577,1.577,0,0,1,1.81,1.337v1.255a0.791,0.791,0,0,1-.715.786H87.287a1.271,1.271,0,0,1-.471-0.876c0-.509.231-0.647,0.5-0.647a3.937,3.937,0,0,1,.49.031V945.1s-2.167-.014-2.167,1.649a1.89,1.89,0,0,0,2.042,2.089h1.48s2.673-.344,2.673-5.637S91,937.41,90.763,937Zm-2.023,3.872c0.505,0,1.2,1.165,1.2,1.165s-1.582-.293-1.834-0.293A0.992,0.992,0,0,1,88.739,940.875Z" transform="translate(-76 -932)"/>
</svg>
