<svg id="Layer_1" data-name="Layer 1" xmlns="http://www.w3.org/2000/svg" xmlns:xlink="http://www.w3.org/1999/xlink" viewBox="0 0 18 18"><defs><style>.cls-1{fill:none;}.cls-2{clip-path:url(#clip-path);}.cls-3{fill:#26a358;}.cls-4{fill:#fff;}</style><clipPath id="clip-path"><rect class="cls-1" width="18" height="18"/></clipPath></defs><title>excel</title><g class="cls-2"><path class="cls-3" d="M16,0H2A2,2,0,0,0,0,2V16a2,2,0,0,0,2,2H16a2,2,0,0,0,2-2V2a2,2,0,0,0-2-2"/><polygon class="cls-4" points="13.4 14 11.4 14 9.2 10.2 7 14 5 14 8.2 9 5 4 7 4 9.2 7.8 11.4 4 13.4 4 10.2 9 13.4 14"/></g></svg>