<svg
        xmlns="http://www.w3.org/2000/svg"
        xmlns:xlink="http://www.w3.org/1999/xlink"
        width="40px" height="40px">
    <path fill-rule="evenodd"  fill="rgb(65, 144, 162)"
          d="M40.000,4.444 L40.000,35.556 C40.000,38.000 38.000,40.000 35.556,40.000 L4.444,40.000 C2.000,40.000 -0.000,38.000 -0.000,35.556 L-0.000,4.444 C-0.000,2.000 2.000,0.000 4.444,0.000 L35.556,0.000 C38.000,0.000 40.000,2.000 40.000,4.444 ZM10.000,26.000 L10.000,30.000 L14.000,30.000 L14.000,26.000 L10.000,26.000 ZM18.000,26.000 L18.000,30.000 L22.000,30.000 L22.000,26.000 L18.000,26.000 ZM26.000,26.000 L26.000,30.000 L30.000,30.000 L30.000,26.000 L26.000,26.000 ZM10.000,10.000 L10.000,22.000 L30.000,22.000 L30.000,10.000 L10.000,10.000 Z"/>
</svg>