<svg
        xmlns="http://www.w3.org/2000/svg"
        xmlns:xlink="http://www.w3.org/1999/xlink"
        width="23px" height="23px">
    <path fill-rule="evenodd"  fill="rgb(91, 61, 174)"
          d="M14.887,23.001 L8.121,23.001 C3.640,23.001 0.007,19.408 0.007,14.976 L0.007,8.018 C0.007,3.586 3.640,-0.007 8.121,-0.007 L14.887,-0.007 C19.367,-0.007 23.000,3.586 23.000,8.018 L23.000,14.976 C23.000,19.408 19.367,23.001 14.887,23.001 ZM18.977,6.932 L15.656,10.255 L15.656,7.347 C15.656,6.849 15.324,6.517 14.826,6.517 L4.864,6.517 C4.366,6.517 4.034,6.849 4.034,7.347 L4.034,15.653 C4.034,16.152 4.366,16.484 4.864,16.484 L14.826,16.484 C15.324,16.484 15.656,16.152 15.656,15.653 L15.656,12.746 L18.977,16.069 L18.977,6.932 Z"/>
</svg>