<svg id="Layer_1" data-name="Layer 1" xmlns="http://www.w3.org/2000/svg" xmlns:xlink="http://www.w3.org/1999/xlink" viewBox="0 0 18 18"><defs><style>.cls-1{fill:none;}.cls-2{clip-path:url(#clip-path);}.cls-3{fill:#f4b236;}.cls-4{fill:#fff;}</style><clipPath id="clip-path"><rect class="cls-1" width="18" height="18"/></clipPath></defs><title>ppt</title><g class="cls-2"><path class="cls-3" d="M3,0H15a3,3,0,0,1,3,3V15a3,3,0,0,1-3,3H3a3,3,0,0,1-3-3V3A3,3,0,0,1,3,0"/><path class="cls-4" d="M2,4A1,1,0,0,1,3,3H15a1,1,0,0,1,1,1V14a1,1,0,0,1-1,1H3a1,1,0,0,1-1-1ZM3,6H15v6H3Z"/></g></svg>