<svg id="Layer_1" data-name="Layer 1" xmlns="http://www.w3.org/2000/svg" xmlns:xlink="http://www.w3.org/1999/xlink" viewBox="0 0 18 18"><defs><style>.cls-1{fill:none;}.cls-2{clip-path:url(#clip-path);}.cls-3{fill:#da3737;}.cls-4{fill:#fff;}</style><clipPath id="clip-path"><rect class="cls-1" width="18" height="18"/></clipPath></defs><title>pdf</title><g class="cls-2"><path class="cls-3" d="M16,0H2A2,2,0,0,0,0,2V16a2,2,0,0,0,2,2H16a2,2,0,0,0,2-2V2a2,2,0,0,0-2-2"/><path class="cls-3" d="M16,0H2A2,2,0,0,0,0,2V16a2,2,0,0,0,2,2H16a2,2,0,0,0,2-2V2a2,2,0,0,0-2-2"/><path class="cls-4" d="M8.63,8.14a14.81,14.81,0,0,1-1,2.4,6,6,0,0,0-.5,1l.11,0a18.78,18.78,0,0,1,3.34-.93,3.43,3.43,0,0,1-.41-.32A6.14,6.14,0,0,1,8.63,8.14m6.48,3.81a1.18,1.18,0,0,1-.91.3,7.32,7.32,0,0,1-3-.74,21,21,0,0,0-4,.75L7,12.33C5.75,14.45,4.83,15.4,4,15.4a.9.9,0,0,1-.44-.11L3.1,15l0,0A.91.91,0,0,1,3,14.39,3.92,3.92,0,0,1,4.9,12.27a6,6,0,0,1,.89-.49c.3-.52.62-1.13,1-1.8A16.91,16.91,0,0,0,7.83,7.05h0a4.94,4.94,0,0,1-.22-3.27A1,1,0,0,1,8.4,3h.24a.85.85,0,0,1,.61.24c.66.66.35,2.27,0,3.6l0,.14a5.9,5.9,0,0,0,1.6,2.56,7.47,7.47,0,0,0,.87.58A11.65,11.65,0,0,1,13,10.05c1.24,0,2,.22,2.28.69a.8.8,0,0,1,.12.55,1,1,0,0,1-.28.66m-.41-.71c-.1-.1-.5-.35-1.9-.35a.26.26,0,0,0-.23.1,5.35,5.35,0,0,0,1.9.51l.19,0h0c.05,0,.08,0,.09-.13a.39.39,0,0,0-.09-.11M5.53,12.7a4.09,4.09,0,0,0-.48.31A3.69,3.69,0,0,0,3.84,14.7c.45-.15,1-.81,1.69-2m3-6.91,0,0c.07-.32.1-.6.16-.82l0-.16c.1-.57.08-.86-.09-1.1l-.15-.05-.07.12a3.62,3.62,0,0,0,.07,2"/></g></svg>