<svg id="Layer_1" data-name="Layer 1" xmlns="http://www.w3.org/2000/svg" viewBox="0 0 19.99 16.99"><defs><style>.cls-1{fill:#67b008;}</style></defs><title>upload</title><path class="cls-1" d="M13.33,12.74a.83.83,0,0,1-.59-.25L10,9.69l-2.74,2.8a.82.82,0,0,1-1.16,0l0,0a.85.85,0,0,1,0-1.2l3.33-3.4a.82.82,0,0,1,1.16,0l0,0,3.33,3.4a.87.87,0,0,1,0,1.2A.83.83,0,0,1,13.33,12.74ZM10,17a.84.84,0,0,1-.83-.85h0V8.49a.83.83,0,1,1,1.66,0h0v7.65A.84.84,0,0,1,10,17Zm7-2.22a.83.83,0,0,1-.73-.44.86.86,0,0,1,.34-1.15,3.44,3.44,0,0,0,1.33-4.61A3.34,3.34,0,0,0,15,6.79h-1a.84.84,0,0,1-.81-.64A5.79,5.79,0,0,0,2.47,4.63a6,6,0,0,0,.66,7,.87.87,0,0,1-.07,1.2.83.83,0,0,1-1.17-.06h0A7.76,7.76,0,0,1,1,3.77,7.43,7.43,0,0,1,14.56,5.1H15a5,5,0,0,1,4.39,2.66,5.16,5.16,0,0,1-2,6.91.8.8,0,0,1-.4.11Zm-3.65-2a.83.83,0,0,1-.59-.25L10,9.69l-2.74,2.8a.82.82,0,0,1-1.16,0l0,0a.85.85,0,0,1,0-1.2l3.33-3.4a.82.82,0,0,1,1.16,0l0,0,3.33,3.4a.87.87,0,0,1,0,1.2.83.83,0,0,1-.59.25Z"/></svg>