<svg xmlns="http://www.w3.org/2000/svg"
        xmlns:xlink="http://www.w3.org/1999/xlink"
        width="14px" height="16px">
    <path class="menu-icon" fill-rule="evenodd" fill="rgb(241, 67, 54)" d="M14.000,15.000 C14.000,15.552 13.552,16.000 13.000,16.000 C12.448,16.000 12.000,15.552 12.000,15.000 C12.000,12.240 9.760,10.000 7.000,10.000 C4.240,10.000 2.000,12.240 2.000,15.000 C2.000,15.552 1.552,16.000 1.000,16.000 C0.448,16.000 -0.000,15.552 -0.000,15.000 C-0.000,12.306 1.520,9.970 3.750,8.800 C2.678,7.882 2.000,6.520 2.000,5.000 C2.000,2.240 4.240,-0.000 7.000,-0.000 C9.760,-0.000 12.000,2.240 12.000,5.000 C12.000,6.520 11.323,7.880 10.250,8.800 C12.480,9.970 14.000,12.307 14.000,15.000 ZM7.000,2.000 C5.343,2.000 4.000,3.343 4.000,5.000 C4.000,6.657 5.343,8.000 7.000,8.000 C8.657,8.000 10.000,6.657 10.000,5.000 C10.000,3.343 8.657,2.000 7.000,2.000 Z"/>
</svg>