<svg id="Layer_1" data-name="Layer 1" xmlns="http://www.w3.org/2000/svg" viewBox="0 0 20 16.51">
    <defs>
        <style>.cls-1{fill:#fff;}</style>
    </defs>
    <title>user-icon</title>
    <path class="cls-1"
          d="M1,16.51a1,1,0,0,1-.53-1.85L4.75,12a2.86,2.86,0,0,1,2.91-.17,7.41,7.41,0,0,0,4.88,0,2.8,2.8,0,0,1,2.81.11l4.21,2.81a1,1,0,0,1-1.11,1.66l-4.19-2.8a.78.78,0,0,0-.79,0,9.24,9.24,0,0,1-6.67.06.91.91,0,0,0-.93,0L1.53,16.35a1,1,0,0,1-.53.15"/>
    <path class="cls-1" d="M9.95,10a5,5,0,1,1,5-5,5,5,0,0,1-5,5m0-8a3,3,0,1,0,3,3,3,3,0,0,0-3-3"/>
</svg>