<svg xmlns="http://www.w3.org/2000/svg" width="23.875" height="9.844" viewBox="0 0 23.875 9.844">

    <defs>
        <style>
            .cls-1 {
            fill: #f1f1f1;
            fill-rule: evenodd;
            }
        </style>
    </defs>
    <path id="Forma_1"  class="cls-1" d="M765.594,417.973a5.157,5.157,0,0,0-5.357,4.917,4.7,4.7,0,0,0,1.489,3.392h-5.442a4.692,4.692,0,0,0,1.489-3.392,5.376,5.376,0,1,0-5.356,4.916h13.177A4.935,4.935,0,1,0,765.594,417.973Zm-16.873,4.917a3.71,3.71,0,1,1,3.7,3.392A3.558,3.558,0,0,1,748.721,422.89Zm16.873,3.392a3.405,3.405,0,1,1,3.7-3.392A3.558,3.558,0,0,1,765.594,426.282Z" transform="translate(-747.063 -417.969)"/>
</svg>
